{"glyphs":{"0":{"ha":850,"x_min":0,"x_max":0,"o":"m 425 972 b 29 472 172 972 29 794 b 425 -31 29 153 172 -31 b 821 472 678 -31 821 153 b 425 972 821 794 678 972 z m 425 751 b 507 472 493 751 507 711 b 425 192 507 236 493 192 b 343 472 358 192 343 246 b 425 751 343 697 358 751 z "},"1":{"ha":685,"x_min":0,"x_max":0,"o":"m 608 947 l 335 947 l -11 743 l 122 543 l 311 658 l 311 0 l 608 0 z "},"2":{"ha":747,"x_min":0,"x_max":0,"o":"m 344 972 b -17 789 182 972 58 894 l 157 651 b 308 744 204 714 249 744 b 396 654 364 744 396 708 b 26 208 396 571 329 489 l 26 0 l 699 0 l 729 228 l 375 228 b 710 690 678 476 710 571 b 344 972 710 839 592 972 z "},"3":{"ha":749,"x_min":0,"x_max":0,"o":"m 350 972 b -15 831 203 972 79 922 l 135 674 b 308 751 183 722 244 751 b 406 676 368 751 406 726 b 301 596 406 629 376 596 l 243 596 l 208 393 l 296 393 b 418 290 382 393 418 358 b 311 199 418 226 368 199 b 128 285 242 199 193 224 l -31 129 b 335 -31 46 36 161 -31 b 732 261 604 -31 732 111 b 513 500 732 421 629 485 b 700 732 639 540 700 621 b 350 972 700 871 579 972 z "},"4":{"ha":829,"x_min":0,"x_max":0,"o":"m 813 403 l 721 403 l 721 597 l 457 597 l 421 403 l 336 403 l 540 889 l 276 981 l 21 375 l 21 176 l 418 176 l 418 0 l 721 0 l 721 176 l 813 176 z "},"5":{"ha":792,"x_min":0,"x_max":0,"o":"m 708 947 l 63 947 l 63 406 l 260 406 b 353 439 299 431 326 439 b 449 317 413 439 449 407 b 333 194 449 236 408 194 b 169 288 264 194 207 232 l 0 136 b 349 -31 71 43 183 -31 b 763 322 603 -31 763 111 b 488 639 763 526 639 639 b 358 611 449 639 404 632 l 358 736 l 676 736 z "},"6":{"ha":824,"x_min":0,"x_max":0,"o":"m 531 651 b 354 599 474 651 411 635 b 504 764 372 717 429 764 b 619 729 553 764 585 750 l 728 907 b 494 972 676 943 594 972 b 29 422 207 972 29 754 b 428 -31 29 149 156 -31 b 811 325 682 -31 811 147 b 531 651 811 526 700 651 z m 432 182 b 354 428 368 182 353 240 b 429 451 385 447 411 451 b 503 325 486 451 503 421 b 432 182 503 238 483 182 z "},"7":{"ha":682,"x_min":0,"x_max":0,"o":"m 674 947 l 0 947 l 0 722 l 349 722 l 53 63 l 332 -31 l 674 749 z "},"8":{"ha":847,"x_min":0,"x_max":0,"o":"m 649 508 b 792 724 751 568 792 657 b 424 972 792 874 657 972 b 56 707 190 972 56 853 b 185 479 56 631 88 547 b 19 254 82 435 19 357 b 417 -31 19 107 157 -31 b 828 258 692 -31 828 111 b 649 508 828 357 776 439 z m 426 774 b 494 706 472 774 494 744 b 444 589 494 669 492 631 l 408 604 b 353 703 364 632 353 668 b 426 774 353 753 383 774 z m 428 182 b 324 275 365 182 324 221 b 379 393 324 318 342 363 l 435 371 b 524 264 496 344 524 318 b 428 182 524 224 499 182 z "},"9":{"ha":826,"x_min":0,"x_max":0,"o":"m 410 972 b 11 633 181 972 11 831 b 290 314 11 433 143 314 b 469 379 371 314 417 333 b 76 163 406 256 314 208 l 136 -47 b 808 606 596 18 808 225 b 410 972 808 815 672 972 z m 319 650 b 406 764 319 729 358 764 b 492 569 481 764 493 714 b 397 519 463 532 425 519 b 319 650 360 519 319 538 z "},"A":{"ha":843,"x_min":0,"x_max":0,"o":"m 549 0 l 888 0 l 613 969 l 232 969 l -44 0 l 292 0 l 321 175 l 518 175 z m 358 397 l 418 749 l 479 397 z "},"Á":{"ha":843,"x_min":0,"x_max":0,"o":"m 643 1168 l 538 1390 l 201 1192 l 279 1039 z m 549 0 l 888 0 l 613 969 l 232 969 l -44 0 l 292 0 l 321 175 l 518 175 z m 358 397 l 418 749 l 479 397 z "},"Ă":{"ha":843,"x_min":0,"x_max":0,"o":"m 424 1032 b 690 1311 603 1032 679 1176 l 535 1335 b 424 1239 519 1285 485 1239 b 313 1335 361 1239 326 1285 l 156 1311 b 424 1032 167 1176 244 1032 z m 549 0 l 888 0 l 613 969 l 232 969 l -44 0 l 292 0 l 321 175 l 518 175 z m 358 397 l 418 749 l 479 397 z "},"Ắ":{"ha":843,"x_min":0,"x_max":0,"o":"m 678 1501 l 518 1658 l 317 1388 l 429 1288 z m 425 1019 b 692 1299 604 1019 681 1164 l 536 1322 b 425 1226 521 1272 486 1226 b 314 1322 363 1226 328 1272 l 157 1299 b 425 1019 168 1164 246 1019 z m 549 0 l 888 0 l 613 969 l 232 969 l -44 0 l 292 0 l 321 175 l 518 175 z m 358 397 l 418 749 l 479 397 z "},"Ặ":{"ha":843,"x_min":0,"x_max":0,"o":"m 424 1032 b 690 1311 603 1032 679 1176 l 535 1335 b 424 1239 519 1285 485 1239 b 313 1335 361 1239 326 1285 l 156 1311 b 424 1032 167 1176 244 1032 z m 321 175 l 518 175 l 549 0 l 888 0 l 613 969 l 232 969 l -44 0 l 292 0 z m 479 397 l 358 397 l 418 749 z m 422 -65 b 254 -226 324 -65 254 -136 b 422 -387 254 -318 324 -387 b 592 -226 521 -387 592 -318 b 422 -65 592 -136 521 -65 z "},"Ằ":{"ha":843,"x_min":0,"x_max":0,"o":"m 522 1388 l 321 1658 l 161 1501 l 410 1288 z m 425 1019 b 692 1299 604 1019 681 1164 l 536 1322 b 425 1226 521 1272 486 1226 b 314 1322 363 1226 328 1272 l 157 1299 b 425 1019 168 1164 246 1019 z m 549 0 l 888 0 l 613 969 l 232 969 l -44 0 l 292 0 l 321 175 l 518 175 z m 358 397 l 418 749 l 479 397 z "},"Ẳ":{"ha":843,"x_min":0,"x_max":0,"o":"m 397 1524 b 446 1486 426 1524 446 1510 b 347 1440 446 1456 419 1440 l 347 1308 l 511 1308 l 511 1360 b 632 1500 592 1376 632 1426 b 438 1656 632 1589 567 1656 b 267 1615 364 1656 310 1642 l 310 1506 b 397 1524 339 1517 361 1524 z m 425 1019 b 692 1299 604 1019 681 1164 l 536 1322 b 425 1226 521 1272 486 1226 b 314 1322 363 1226 328 1272 l 157 1299 b 425 1019 168 1164 246 1019 z m 549 0 l 888 0 l 613 969 l 232 969 l -44 0 l 292 0 l 321 175 l 518 175 z m 358 397 l 418 749 l 479 397 z "},"Ẵ":{"ha":843,"x_min":0,"x_max":0,"o":"m 350 1410 b 507 1358 392 1410 419 1358 b 715 1539 608 1358 679 1444 l 575 1597 b 503 1546 553 1564 538 1546 b 342 1597 463 1546 433 1597 b 136 1418 246 1597 174 1513 l 276 1358 b 350 1410 299 1390 315 1410 z m 425 1226 b 314 1322 363 1226 328 1272 l 157 1299 b 425 1019 168 1164 246 1019 b 692 1299 604 1019 681 1164 l 536 1322 b 425 1226 521 1272 486 1226 z m 549 0 l 888 0 l 613 969 l 232 969 l -44 0 l 292 0 l 321 175 l 518 175 z m 358 397 l 418 749 l 479 397 z "},"Ǎ":{"ha":843,"x_min":0,"x_max":0,"o":"m 513 1035 l 717 1240 l 615 1358 l 422 1238 l 228 1358 l 126 1240 l 331 1035 z m 549 0 l 888 0 l 613 969 l 232 969 l -44 0 l 292 0 l 321 175 l 518 175 z m 358 397 l 418 749 l 479 397 z "},"Â":{"ha":843,"x_min":0,"x_max":0,"o":"m 424 1164 l 617 1042 l 718 1160 l 514 1365 l 332 1365 l 128 1160 l 229 1042 z m 549 0 l 888 0 l 613 969 l 232 969 l -44 0 l 292 0 l 321 175 l 518 175 z m 358 397 l 418 749 l 479 397 z "},"Ấ":{"ha":843,"x_min":0,"x_max":0,"o":"m 942 1460 l 782 1617 l 581 1346 l 693 1246 z m 424 1129 l 617 1007 l 718 1125 l 514 1331 l 332 1331 l 128 1125 l 229 1007 z m 232 969 l -44 0 l 292 0 l 321 175 l 518 175 l 549 0 l 888 0 l 613 969 z m 358 397 l 418 749 l 479 397 z "},"Ậ":{"ha":843,"x_min":0,"x_max":0,"o":"m 424 1164 l 617 1042 l 718 1160 l 514 1365 l 332 1365 l 128 1160 l 229 1042 z m 321 175 l 518 175 l 549 0 l 888 0 l 613 969 l 232 969 l -44 0 l 292 0 z m 479 397 l 358 397 l 418 749 z m 422 -65 b 254 -226 324 -65 254 -136 b 422 -387 254 -318 324 -387 b 592 -226 521 -387 592 -318 b 422 -65 592 -136 521 -65 z "},"Ầ":{"ha":843,"x_min":0,"x_max":0,"o":"m 268 1346 l 67 1617 l -93 1460 l 156 1246 z m 228 1007 l 422 1129 l 615 1007 l 717 1125 l 513 1331 l 331 1331 l 126 1125 z m 549 0 l 888 0 l 613 969 l 232 969 l -44 0 l 292 0 l 321 175 l 518 175 z m 358 397 l 418 749 l 479 397 z "},"Ẩ":{"ha":843,"x_min":0,"x_max":0,"o":"m 661 1456 b 710 1418 690 1456 710 1442 b 611 1372 710 1388 683 1372 l 611 1240 l 775 1240 l 775 1292 b 896 1432 856 1308 896 1358 b 701 1588 896 1521 831 1588 b 531 1547 628 1588 574 1574 l 574 1438 b 661 1456 603 1449 625 1456 z m 422 1129 l 615 1007 l 717 1125 l 513 1331 l 331 1331 l 126 1125 l 228 1007 z m 232 969 l -44 0 l 292 0 l 321 175 l 518 175 l 549 0 l 888 0 l 613 969 z m 358 397 l 418 749 l 479 397 z "},"Ẫ":{"ha":843,"x_min":0,"x_max":0,"o":"m 344 1418 b 501 1367 386 1418 414 1367 b 710 1547 603 1367 674 1453 l 569 1606 b 497 1554 547 1572 532 1554 b 336 1606 457 1554 428 1606 b 131 1426 240 1606 168 1521 l 271 1367 b 344 1418 293 1399 310 1418 z m 421 1129 l 614 1007 l 715 1125 l 511 1331 l 329 1331 l 125 1125 l 226 1007 z m 549 0 l 888 0 l 613 969 l 232 969 l -44 0 l 292 0 l 321 175 l 518 175 z m 358 397 l 418 749 l 479 397 z "},"Ȁ":{"ha":843,"x_min":0,"x_max":0,"o":"m 379 1103 l 229 1407 l 44 1317 l 235 1032 z m 644 1096 l 506 1407 l 317 1325 l 496 1038 z m 549 0 l 888 0 l 613 969 l 232 969 l -44 0 l 292 0 l 321 175 l 518 175 z m 358 397 l 418 749 l 479 397 z "},"Ä":{"ha":843,"x_min":0,"x_max":0,"o":"m 242 1047 b 386 1188 324 1047 386 1110 b 242 1326 386 1265 324 1326 b 99 1188 164 1326 99 1265 b 242 1047 99 1110 164 1047 z m 594 1047 b 738 1188 675 1047 738 1110 b 594 1326 738 1265 675 1326 b 450 1188 515 1326 450 1265 b 594 1047 450 1110 515 1047 z m 549 0 l 888 0 l 613 969 l 232 969 l -44 0 l 292 0 l 321 175 l 518 175 z m 358 397 l 418 749 l 479 397 z "},"Ǟ":{"ha":843,"x_min":0,"x_max":0,"o":"m 663 1563 l 194 1563 l 194 1357 l 663 1357 z m 246 1035 b 390 1175 328 1035 390 1097 b 246 1314 390 1253 328 1314 b 103 1175 168 1314 103 1253 b 246 1035 103 1097 168 1035 z m 454 1175 b 599 1035 454 1097 519 1035 b 742 1175 679 1035 742 1097 b 599 1314 742 1253 679 1314 b 454 1175 519 1314 454 1253 z m 549 0 l 888 0 l 613 969 l 232 969 l -44 0 l 292 0 l 321 175 l 518 175 z m 358 397 l 418 749 l 479 397 z "},"Ȧ":{"ha":843,"x_min":0,"x_max":0,"o":"m 424 1019 b 592 1181 522 1019 592 1090 b 424 1342 592 1272 522 1342 b 254 1181 325 1342 254 1272 b 424 1019 254 1090 325 1019 z m 549 0 l 888 0 l 613 969 l 232 969 l -44 0 l 292 0 l 321 175 l 518 175 z m 358 397 l 418 749 l 479 397 z "},"Ạ":{"ha":843,"x_min":0,"x_max":0,"o":"m 321 175 l 518 175 l 549 0 l 888 0 l 613 969 l 232 969 l -44 0 l 292 0 z m 479 397 l 358 397 l 418 749 z m 422 -65 b 254 -226 324 -65 254 -136 b 422 -387 254 -318 324 -387 b 592 -226 521 -387 592 -318 b 422 -65 592 -136 521 -65 z "},"Ǡ":{"ha":843,"x_min":0,"x_max":0,"o":"m 651 1563 l 183 1563 l 183 1357 l 651 1357 z m 246 1176 b 415 1015 246 1086 317 1015 b 583 1176 514 1015 583 1086 b 415 1338 583 1268 514 1338 b 246 1176 317 1338 246 1268 z m 549 0 l 888 0 l 613 969 l 232 969 l -44 0 l 292 0 l 321 175 l 518 175 z m 358 397 l 418 749 l 479 397 z "},"À":{"ha":843,"x_min":0,"x_max":0,"o":"m 646 1192 l 313 1390 l 204 1168 l 569 1039 z m 549 0 l 888 0 l 613 969 l 232 969 l -44 0 l 292 0 l 321 175 l 518 175 z m 358 397 l 418 749 l 479 397 z "},"Ả":{"ha":843,"x_min":0,"x_max":0,"o":"m 389 1276 b 438 1239 418 1276 438 1263 b 339 1193 438 1208 411 1193 l 339 1061 l 503 1061 l 503 1113 b 624 1253 583 1129 624 1179 b 429 1408 624 1342 558 1408 b 258 1368 356 1408 301 1394 l 301 1258 b 389 1276 331 1269 353 1276 z m 549 0 l 888 0 l 613 969 l 232 969 l -44 0 l 292 0 l 321 175 l 518 175 z m 358 397 l 418 749 l 479 397 z "},"Ȃ":{"ha":843,"x_min":0,"x_max":0,"o":"m 424 1154 b 535 1044 485 1154 519 1108 l 690 1069 b 424 1361 679 1217 603 1361 b 156 1069 244 1361 167 1217 l 313 1044 b 424 1154 326 1108 361 1154 z m 549 0 l 888 0 l 613 969 l 232 969 l -44 0 l 292 0 l 321 175 l 518 175 z m 358 397 l 418 749 l 479 397 z "},"Ɑ":{"ha":956,"x_min":0,"x_max":0,"o":"m 903 297 l 903 969 l 633 969 l 619 904 b 403 999 569 956 504 999 b 17 474 178 999 17 801 b 400 -31 17 169 158 -31 b 651 71 519 -31 596 11 b 874 -31 700 13 769 -18 l 958 190 b 903 297 917 213 903 240 z m 350 474 b 478 775 350 700 388 775 b 582 733 522 775 558 757 l 582 221 b 479 185 550 196 514 185 b 350 474 390 185 350 253 z "},"Ā":{"ha":843,"x_min":0,"x_max":0,"o":"m 656 1275 l 188 1275 l 188 1069 l 656 1069 z m 549 0 l 888 0 l 613 969 l 232 969 l -44 0 l 292 0 l 321 175 l 518 175 z m 358 397 l 418 749 l 479 397 z "},"Ą":{"ha":843,"x_min":0,"x_max":0,"o":"m 714 0 l 888 0 l 613 969 l 232 969 l -44 0 l 292 0 l 321 175 l 518 175 l 540 51 b 354 -176 432 6 354 -64 b 588 -360 354 -294 458 -360 b 693 -349 625 -360 663 -356 l 711 -175 b 626 -186 682 -182 653 -186 b 557 -126 585 -186 557 -168 b 714 0 557 -96 583 -40 z m 358 397 l 418 749 l 479 397 z "},"Å":{"ha":843,"x_min":0,"x_max":0,"o":"m 422 989 b 649 1206 567 989 649 1092 b 422 1421 649 1321 567 1421 b 196 1206 278 1421 196 1321 b 422 989 196 1092 278 989 z m 422 1267 b 474 1206 451 1267 474 1250 b 422 1146 474 1163 451 1146 b 371 1206 393 1146 371 1163 b 422 1267 371 1250 393 1267 z m 549 0 l 888 0 l 613 969 l 232 969 l -44 0 l 292 0 l 321 175 l 518 175 z m 358 397 l 418 749 l 479 397 z "},"Ǻ":{"ha":843,"x_min":0,"x_max":0,"o":"m 642 1551 l 536 1774 l 200 1575 l 278 1422 z m 422 986 b 649 1203 567 986 649 1089 b 422 1418 649 1318 567 1418 b 196 1203 278 1418 196 1318 b 422 986 196 1089 278 986 z m 422 1264 b 474 1203 451 1264 474 1247 b 422 1143 474 1160 451 1143 b 371 1203 393 1143 371 1160 b 422 1264 371 1247 393 1264 z m 549 0 l 888 0 l 613 969 l 232 969 l -44 0 l 292 0 l 321 175 l 518 175 z m 358 397 l 418 749 l 479 397 z "},"Ⱥ":{"ha":843,"x_min":0,"x_max":0,"o":"m 581 0 l 888 0 l 622 935 l 649 1035 l 551 1057 l 528 969 l 232 969 l -44 0 l 258 0 l 294 175 l 319 175 l 250 -87 l 349 -110 l 424 175 l 544 175 z m 336 381 l 418 779 l 444 651 l 374 381 z m 478 381 l 490 432 l 501 381 z "},"Ã":{"ha":843,"x_min":0,"x_max":0,"o":"m 346 1086 b 503 1028 388 1086 415 1028 b 711 1233 604 1028 675 1126 l 571 1300 b 499 1242 549 1263 533 1242 b 338 1300 458 1242 429 1300 b 132 1096 242 1300 169 1204 l 272 1028 b 346 1086 294 1065 311 1086 z m 549 0 l 888 0 l 613 969 l 232 969 l -44 0 l 292 0 l 321 175 l 518 175 z m 358 397 l 418 749 l 479 397 z "},"Æ":{"ha":1214,"x_min":0,"x_max":0,"o":"m 871 221 l 847 382 l 1138 382 l 1138 596 l 815 596 l 793 749 l 1117 749 l 1150 969 l 328 969 l -47 0 l 304 0 l 354 175 l 579 175 l 599 0 l 1196 0 l 1196 221 z m 418 397 l 517 743 l 554 397 z "},"Ǽ":{"ha":1214,"x_min":0,"x_max":0,"o":"m 904 1168 l 799 1390 l 463 1192 l 540 1039 z m 871 221 l 847 382 l 1138 382 l 1138 596 l 815 596 l 793 749 l 1117 749 l 1150 969 l 328 969 l -47 0 l 304 0 l 354 175 l 579 175 l 599 0 l 1196 0 l 1196 221 z m 418 397 l 517 743 l 554 397 z "},"Ǣ":{"ha":1214,"x_min":0,"x_max":0,"o":"m 917 1275 l 449 1275 l 449 1069 l 917 1069 z m 871 221 l 847 382 l 1138 382 l 1138 596 l 815 596 l 793 749 l 1117 749 l 1150 969 l 328 969 l -47 0 l 304 0 l 354 175 l 579 175 l 599 0 l 1196 0 l 1196 221 z m 418 397 l 517 743 l 554 397 z "},"B":{"ha":868,"x_min":0,"x_max":0,"o":"m 643 514 b 817 717 728 538 817 590 b 360 969 817 911 639 969 l 42 969 l 42 0 l 397 0 b 857 289 660 0 857 54 b 643 514 857 438 747 492 z m 389 753 b 492 683 469 753 492 726 b 390 603 492 622 472 603 l 363 603 l 363 753 z m 401 224 l 363 224 l 363 404 l 410 404 b 528 313 492 404 528 375 b 401 224 528 239 476 224 z "},"Ḃ":{"ha":868,"x_min":0,"x_max":0,"o":"m 403 1019 b 571 1181 501 1019 571 1090 b 403 1342 571 1272 501 1342 b 233 1181 304 1342 233 1272 b 403 1019 233 1090 304 1019 z m 643 514 b 817 717 728 538 817 590 b 360 969 817 911 639 969 l 42 969 l 42 0 l 397 0 b 857 289 660 0 857 54 b 643 514 857 438 747 492 z m 389 753 b 492 683 469 753 492 726 b 390 603 492 622 472 603 l 363 603 l 363 753 z m 401 224 l 363 224 l 363 404 l 410 404 b 528 313 492 404 528 375 b 401 224 528 239 476 224 z "},"Ḅ":{"ha":868,"x_min":0,"x_max":0,"o":"m 643 514 b 817 717 728 538 817 590 b 360 969 817 911 639 969 l 42 969 l 42 0 l 397 0 b 857 289 660 0 857 54 b 643 514 857 438 747 492 z m 389 753 b 492 683 469 753 492 726 b 390 603 492 622 472 603 l 363 603 l 363 753 z m 401 224 l 363 224 l 363 404 l 410 404 b 528 313 492 404 528 375 b 401 224 528 239 476 224 z m 431 -65 b 263 -226 332 -65 263 -136 b 431 -387 263 -318 332 -387 b 600 -226 529 -387 600 -318 b 431 -65 600 -136 529 -65 z "},"Ꞵ":{"ha":868,"x_min":0,"x_max":0,"o":"m 643 514 b 817 717 728 538 817 590 b 360 969 817 911 639 969 l 42 969 l 42 -303 l 363 -303 l 363 8 b 474 0 399 3 435 0 b 857 290 657 0 857 57 b 643 514 857 438 747 492 z m 414 224 b 363 225 397 224 379 224 l 363 753 l 389 753 b 492 675 469 753 492 726 b 428 603 492 625 468 603 l 432 603 l 418 404 l 443 404 b 528 318 500 404 528 375 b 414 224 528 253 488 224 z "},"Ɓ":{"ha":1143,"x_min":0,"x_max":0,"o":"m 918 514 b 1092 717 1003 538 1092 590 b 635 969 1092 911 914 969 l 301 969 b -3 725 126 969 -3 883 b 63 542 -3 657 28 596 l 251 621 b 232 701 242 647 232 674 b 285 749 232 732 250 749 l 317 749 l 317 0 l 672 0 b 1132 289 935 0 1132 54 b 918 514 1132 438 1022 492 z m 664 753 b 767 683 744 753 767 726 b 665 603 767 622 747 603 l 638 603 l 638 753 z m 676 224 l 638 224 l 638 404 l 685 404 b 803 313 767 404 803 375 b 676 224 803 239 751 224 z "},"Ƀ":{"ha":892,"x_min":0,"x_max":0,"o":"m 667 514 b 840 717 751 538 840 590 b 383 969 840 911 663 969 l 65 969 l 65 378 l 11 378 l 11 254 l 65 254 l 65 0 l 421 0 b 881 289 683 0 881 54 b 667 514 881 438 771 492 z m 413 753 b 515 683 493 753 515 726 b 414 603 515 622 496 603 l 386 603 l 386 753 z m 425 224 l 386 224 l 386 254 l 490 254 l 490 378 l 386 378 l 386 404 l 433 404 b 551 313 515 404 551 375 b 425 224 551 239 500 224 z "},"Ƃ":{"ha":850,"x_min":0,"x_max":0,"o":"m 443 642 l 363 642 l 363 733 l 690 733 l 721 969 l 42 969 l 42 0 l 458 0 b 843 331 681 0 843 117 b 443 642 843 538 699 642 z m 410 224 l 363 224 l 363 429 l 404 429 b 510 328 488 429 510 379 b 410 224 510 276 485 224 z "},"C":{"ha":818,"x_min":0,"x_max":0,"o":"m 492 999 b 17 488 210 999 17 810 b 497 -31 17 150 201 -31 b 825 111 633 -31 750 36 l 686 286 b 513 208 628 239 576 208 b 350 488 406 208 350 300 b 507 772 350 672 404 772 b 668 710 571 772 621 744 l 814 881 b 492 999 729 956 622 999 z "},"Ć":{"ha":818,"x_min":0,"x_max":0,"o":"m 615 1390 l 279 1192 l 357 1039 l 721 1168 z m 492 999 b 17 488 210 999 17 810 b 497 -31 17 150 201 -31 b 825 111 633 -31 750 36 l 686 286 b 513 208 628 239 576 208 b 350 488 406 208 350 300 b 507 772 350 672 404 772 b 668 710 571 772 621 744 l 814 881 b 492 999 729 956 622 999 z "},"Č":{"ha":818,"x_min":0,"x_max":0,"o":"m 693 1358 l 500 1238 l 306 1358 l 204 1240 l 408 1035 l 590 1035 l 794 1240 z m 492 999 b 17 488 210 999 17 810 b 497 -31 17 150 201 -31 b 825 111 633 -31 750 36 l 686 286 b 513 208 628 239 576 208 b 350 488 406 208 350 300 b 507 772 350 672 404 772 b 668 710 571 772 621 744 l 814 881 b 492 999 729 956 622 999 z "},"Ç":{"ha":818,"x_min":0,"x_max":0,"o":"m 542 -56 l 542 -28 b 825 111 658 -15 758 44 l 686 286 b 513 208 628 239 576 208 b 350 488 406 208 350 300 b 507 772 350 672 404 772 b 668 710 571 772 621 744 l 814 881 b 492 999 729 956 622 999 b 17 488 210 999 17 810 b 378 -19 17 199 153 24 l 358 -174 b 490 -210 449 -174 490 -181 b 429 -237 490 -231 468 -237 b 340 -212 397 -237 368 -228 l 275 -342 b 460 -393 317 -368 383 -393 b 700 -212 617 -393 700 -310 b 542 -56 700 -121 644 -69 z "},"Ĉ":{"ha":818,"x_min":0,"x_max":0,"o":"m 307 1042 l 501 1164 l 694 1042 l 796 1160 l 592 1365 l 410 1365 l 206 1160 z m 492 999 b 17 488 210 999 17 810 b 497 -31 17 150 201 -31 b 825 111 633 -31 750 36 l 686 286 b 513 208 628 239 576 208 b 350 488 406 208 350 300 b 507 772 350 672 404 772 b 668 710 571 772 621 744 l 814 881 b 492 999 729 956 622 999 z "},"Ċ":{"ha":818,"x_min":0,"x_max":0,"o":"m 501 1342 b 332 1181 403 1342 332 1272 b 501 1019 332 1090 403 1019 b 669 1181 600 1019 669 1090 b 501 1342 669 1272 600 1342 z m 492 999 b 17 488 210 999 17 810 b 497 -31 17 150 201 -31 b 825 111 633 -31 750 36 l 686 286 b 513 208 628 239 576 208 b 350 488 406 208 350 300 b 507 772 350 672 404 772 b 668 710 571 772 621 744 l 814 881 b 492 999 729 956 622 999 z "},"Ꭓ":{"ha":847,"x_min":0,"x_max":0,"o":"m 610 388 l 850 969 l 513 969 l 419 575 l 340 969 l -3 969 l 226 379 l -18 -265 l 321 -265 l 417 176 l 522 -265 l 867 -265 z "},"Ƈ":{"ha":818,"x_min":0,"x_max":0,"o":"m 818 1208 b 558 979 644 1208 567 1119 b 442 999 525 993 488 999 b 17 488 218 999 17 810 b 494 -31 17 150 201 -31 b 825 111 633 -31 750 36 l 686 289 b 515 208 629 243 578 208 b 350 488 407 208 350 300 b 504 772 350 672 404 772 b 679 724 586 772 632 751 l 814 881 l 814 921 b 868 990 814 968 828 990 b 954 968 896 990 922 982 l 1032 1157 b 818 1208 981 1185 911 1208 z "},"Ȼ":{"ha":818,"x_min":0,"x_max":0,"o":"m 825 111 l 686 286 b 513 208 628 239 576 208 b 457 218 492 208 474 211 l 597 753 b 668 710 622 742 646 726 l 814 881 b 656 972 768 921 715 953 l 672 1035 l 575 1057 l 558 994 b 492 999 538 997 515 999 b 17 488 210 999 17 810 b 297 3 17 235 121 69 l 274 -87 l 371 -110 l 394 -22 b 497 -31 426 -28 461 -31 b 825 111 633 -31 750 36 z m 350 488 b 500 772 350 668 401 768 l 378 306 b 350 488 360 351 350 411 z "},"D":{"ha":915,"x_min":0,"x_max":0,"o":"m 376 969 l 42 969 l 42 0 l 390 0 b 899 489 674 0 899 103 b 376 969 899 886 646 969 z m 413 746 b 569 489 528 746 569 685 b 408 224 569 290 533 224 l 363 224 l 363 746 z "},"Ǳ":{"ha":1665,"x_min":0,"x_max":0,"o":"m 376 969 l 42 969 l 42 0 l 390 0 b 899 489 674 0 899 103 b 376 969 899 886 646 969 z m 1639 969 l 925 969 l 925 728 l 1267 728 l 888 233 l 888 0 l 1624 0 l 1654 249 l 1274 249 l 1639 732 z m 413 746 b 569 489 528 746 569 685 b 408 224 569 290 533 224 l 363 224 l 363 746 z "},"Ǆ":{"ha":1665,"x_min":0,"x_max":0,"o":"m 1464 1358 l 1271 1238 l 1076 1358 l 975 1240 l 1179 1035 l 1361 1035 l 1565 1240 z m 376 969 l 42 969 l 42 0 l 390 0 b 899 489 674 0 899 103 b 376 969 899 886 646 969 z m 1639 969 l 925 969 l 925 728 l 1267 728 l 888 233 l 888 0 l 1624 0 l 1654 249 l 1274 249 l 1639 732 z m 413 746 b 569 489 528 746 569 685 b 408 224 569 290 533 224 l 363 224 l 363 746 z "},"Ɖ":{"ha":936,"x_min":0,"x_max":0,"o":"m 399 969 l 64 969 l 64 578 l 11 578 l 11 403 l 64 403 l 64 0 l 413 0 b 921 489 696 0 921 103 b 399 969 921 886 668 969 z m 431 224 l 385 224 l 385 403 l 542 403 l 542 578 l 385 578 l 385 746 l 435 746 b 592 489 550 746 592 685 b 431 224 592 290 556 224 z "},"Ð":{"ha":936,"x_min":0,"x_max":0,"o":"m 399 969 l 64 969 l 64 578 l 11 578 l 11 403 l 64 403 l 64 0 l 413 0 b 921 489 696 0 921 103 b 399 969 921 886 668 969 z m 431 224 l 385 224 l 385 403 l 542 403 l 542 578 l 385 578 l 385 746 l 435 746 b 592 489 550 746 592 685 b 431 224 592 290 556 224 z "},"Ď":{"ha":915,"x_min":0,"x_max":0,"o":"m 593 1358 l 400 1238 l 206 1358 l 104 1240 l 308 1035 l 490 1035 l 694 1240 z m 376 969 l 42 969 l 42 0 l 390 0 b 899 489 674 0 899 103 b 376 969 899 886 646 969 z m 413 746 b 569 489 528 746 569 685 b 408 224 569 290 533 224 l 363 224 l 363 746 z "},"Ḓ":{"ha":915,"x_min":0,"x_max":0,"o":"m 376 969 l 42 969 l 42 0 l 390 0 b 899 489 674 0 899 103 b 376 969 899 886 646 969 z m 413 746 b 569 489 528 746 569 685 b 408 224 569 290 533 224 l 363 224 l 363 746 z m 239 -419 l 433 -282 l 626 -419 l 728 -303 l 524 -81 l 342 -81 l 138 -303 z "},"Đ":{"ha":936,"x_min":0,"x_max":0,"o":"m 399 969 l 64 969 l 64 578 l 11 578 l 11 403 l 64 403 l 64 0 l 413 0 b 921 489 696 0 921 103 b 399 969 921 886 668 969 z m 431 224 l 385 224 l 385 403 l 542 403 l 542 578 l 385 578 l 385 746 l 435 746 b 592 489 550 746 592 685 b 431 224 592 290 556 224 z "},"Ḋ":{"ha":915,"x_min":0,"x_max":0,"o":"m 401 1342 b 232 1181 303 1342 232 1272 b 401 1019 232 1090 303 1019 b 569 1181 500 1019 569 1090 b 401 1342 569 1272 500 1342 z m 376 969 l 42 969 l 42 0 l 390 0 b 899 489 674 0 899 103 b 376 969 899 886 646 969 z m 413 746 b 569 489 528 746 569 685 b 408 224 569 290 533 224 l 363 224 l 363 746 z "},"Ḍ":{"ha":915,"x_min":0,"x_max":0,"o":"m 376 969 l 42 969 l 42 0 l 390 0 b 899 489 674 0 899 103 b 376 969 899 886 646 969 z m 413 746 b 569 489 528 746 569 685 b 408 224 569 290 533 224 l 363 224 l 363 746 z m 433 -387 b 603 -226 532 -387 603 -318 b 433 -65 603 -136 532 -65 b 265 -226 335 -65 265 -136 b 433 -387 265 -318 335 -387 z "},"Ɗ":{"ha":1190,"x_min":0,"x_max":0,"o":"m 651 969 l 301 969 b -3 725 126 969 -3 883 b 63 542 -3 657 28 596 l 251 621 b 232 701 242 647 232 674 b 285 749 232 732 250 749 l 317 749 l 317 0 l 665 0 b 1174 489 949 0 1174 103 b 651 969 1174 886 921 969 z m 683 224 l 638 224 l 638 746 l 688 746 b 844 489 803 746 844 685 b 683 224 844 290 808 224 z "},"Ḏ":{"ha":915,"x_min":0,"x_max":0,"o":"m 376 969 l 42 969 l 42 0 l 390 0 b 899 489 674 0 899 103 b 376 969 899 886 646 969 z m 413 746 b 569 489 528 746 569 685 b 408 224 569 290 533 224 l 363 224 l 363 746 z m 667 -289 l 667 -83 l 199 -83 l 199 -289 z "},"Ƌ":{"ha":850,"x_min":0,"x_max":0,"o":"m 808 969 l 142 969 l 142 733 l 488 733 l 488 642 l 407 642 b 8 325 150 642 8 524 b 390 0 8 106 165 0 l 808 0 z m 440 224 b 340 325 365 224 340 274 b 447 429 340 381 364 429 l 488 429 l 488 224 z "},"ǲ":{"ha":1568,"x_min":0,"x_max":0,"o":"m 376 969 l 42 969 l 42 0 l 390 0 b 899 489 674 0 899 103 b 376 969 899 886 646 969 z m 413 746 b 569 489 528 746 569 685 b 408 224 569 290 533 224 l 363 224 l 363 746 z m 1550 744 l 929 744 l 929 524 l 1194 524 l 901 214 l 901 0 l 1535 0 l 1560 225 l 1263 225 l 1550 532 z "},"ǅ":{"ha":1568,"x_min":0,"x_max":0,"o":"m 1436 1167 l 1243 1029 l 1049 1167 l 947 1050 l 1151 828 l 1333 828 l 1538 1050 z m 376 969 l 42 969 l 42 0 l 390 0 b 899 489 674 0 899 103 b 376 969 899 886 646 969 z m 413 746 b 569 489 528 746 569 685 b 408 224 569 290 533 224 l 363 224 l 363 746 z m 1550 744 l 929 744 l 929 524 l 1194 524 l 901 214 l 901 0 l 1535 0 l 1560 225 l 1263 225 l 1550 532 z "},"E":{"ha":718,"x_min":0,"x_max":0,"o":"m 703 969 l 42 969 l 42 0 l 692 0 l 692 221 l 363 221 l 363 386 l 633 386 l 633 599 l 363 599 l 363 749 l 671 749 z "},"É":{"ha":718,"x_min":0,"x_max":0,"o":"m 488 1390 l 151 1192 l 229 1039 l 593 1168 z m 703 969 l 42 969 l 42 0 l 692 0 l 692 221 l 363 221 l 363 386 l 633 386 l 633 599 l 363 599 l 363 749 l 671 749 z "},"Ĕ":{"ha":718,"x_min":0,"x_max":0,"o":"m 374 1032 b 640 1311 553 1032 629 1176 l 485 1335 b 374 1239 469 1285 435 1239 b 263 1335 311 1239 276 1285 l 106 1311 b 374 1032 117 1176 194 1032 z m 703 969 l 42 969 l 42 0 l 692 0 l 692 221 l 363 221 l 363 386 l 633 386 l 633 599 l 363 599 l 363 749 l 671 749 z "},"Ě":{"ha":718,"x_min":0,"x_max":0,"o":"m 565 1358 l 372 1238 l 178 1358 l 76 1240 l 281 1035 l 463 1035 l 667 1240 z m 703 969 l 42 969 l 42 0 l 692 0 l 692 221 l 363 221 l 363 386 l 633 386 l 633 599 l 363 599 l 363 749 l 671 749 z "},"Ȩ":{"ha":718,"x_min":0,"x_max":0,"o":"m 363 386 l 633 386 l 633 599 l 363 599 l 363 749 l 671 749 l 703 969 l 42 969 l 42 0 l 279 0 l 257 -174 b 389 -210 347 -174 389 -181 b 328 -237 389 -231 367 -237 b 239 -212 296 -237 267 -228 l 174 -342 b 358 -393 215 -368 282 -393 b 599 -212 515 -393 599 -310 b 440 -56 599 -121 543 -69 l 440 0 l 692 0 l 692 221 l 363 221 z "},"Ê":{"ha":718,"x_min":0,"x_max":0,"o":"m 179 1042 l 374 1164 l 567 1042 l 668 1160 l 464 1365 l 282 1365 l 78 1160 z m 703 969 l 42 969 l 42 0 l 692 0 l 692 221 l 363 221 l 363 386 l 633 386 l 633 599 l 363 599 l 363 749 l 671 749 z "},"Ế":{"ha":718,"x_min":0,"x_max":0,"o":"m 732 1617 l 531 1346 l 643 1246 l 892 1460 z m 179 1007 l 374 1129 l 567 1007 l 668 1125 l 464 1331 l 282 1331 l 78 1125 z m 703 969 l 42 969 l 42 0 l 692 0 l 692 221 l 363 221 l 363 386 l 633 386 l 633 599 l 363 599 l 363 749 l 671 749 z "},"Ệ":{"ha":718,"x_min":0,"x_max":0,"o":"m 179 1042 l 374 1164 l 567 1042 l 668 1160 l 464 1365 l 282 1365 l 78 1160 z m 703 969 l 42 969 l 42 0 l 692 0 l 692 221 l 363 221 l 363 386 l 633 386 l 633 599 l 363 599 l 363 749 l 671 749 z m 367 -387 b 536 -226 465 -387 536 -318 b 367 -65 536 -136 465 -65 b 199 -226 268 -65 199 -136 b 367 -387 199 -318 268 -387 z "},"Ề":{"ha":718,"x_min":0,"x_max":0,"o":"m 17 1617 l -143 1460 l 106 1246 l 218 1346 z m 178 1007 l 372 1129 l 565 1007 l 667 1125 l 463 1331 l 281 1331 l 76 1125 z m 703 969 l 42 969 l 42 0 l 692 0 l 692 221 l 363 221 l 363 386 l 633 386 l 633 599 l 363 599 l 363 749 l 671 749 z "},"Ể":{"ha":718,"x_min":0,"x_max":0,"o":"m 561 1240 l 725 1240 l 725 1292 b 846 1432 806 1308 846 1358 b 651 1588 846 1521 781 1588 b 481 1547 578 1588 524 1574 l 524 1438 b 611 1456 553 1449 575 1456 b 660 1418 640 1456 660 1442 b 561 1372 660 1388 633 1372 z m 178 1007 l 372 1129 l 565 1007 l 667 1125 l 463 1331 l 281 1331 l 76 1125 z m 703 969 l 42 969 l 42 0 l 692 0 l 692 221 l 363 221 l 363 386 l 633 386 l 633 599 l 363 599 l 363 749 l 671 749 z "},"Ễ":{"ha":718,"x_min":0,"x_max":0,"o":"m 451 1367 b 660 1547 553 1367 624 1453 l 519 1606 b 447 1554 497 1572 482 1554 b 286 1606 407 1554 378 1606 b 81 1426 190 1606 118 1521 l 221 1367 b 294 1418 243 1399 260 1418 b 451 1367 336 1418 364 1367 z m 176 1007 l 371 1129 l 564 1007 l 665 1125 l 461 1331 l 279 1331 l 75 1125 z m 703 969 l 42 969 l 42 0 l 692 0 l 692 221 l 363 221 l 363 386 l 633 386 l 633 599 l 363 599 l 363 749 l 671 749 z "},"Ȅ":{"ha":718,"x_min":0,"x_max":0,"o":"m 179 1407 l -6 1317 l 185 1032 l 329 1103 z m 456 1407 l 267 1325 l 446 1038 l 594 1096 z m 703 969 l 42 969 l 42 0 l 692 0 l 692 221 l 363 221 l 363 386 l 633 386 l 633 599 l 363 599 l 363 749 l 671 749 z "},"Ë":{"ha":718,"x_min":0,"x_max":0,"o":"m 192 1326 b 49 1188 114 1326 49 1265 b 192 1047 49 1110 114 1047 b 336 1188 274 1047 336 1110 b 192 1326 336 1265 274 1326 z m 544 1326 b 400 1188 465 1326 400 1265 b 544 1047 400 1110 465 1047 b 688 1188 625 1047 688 1110 b 544 1326 688 1265 625 1326 z m 703 969 l 42 969 l 42 0 l 692 0 l 692 221 l 363 221 l 363 386 l 633 386 l 633 599 l 363 599 l 363 749 l 671 749 z "},"Ė":{"ha":718,"x_min":0,"x_max":0,"o":"m 374 1342 b 204 1181 275 1342 204 1272 b 374 1019 204 1090 275 1019 b 542 1181 472 1019 542 1090 b 374 1342 542 1272 472 1342 z m 703 969 l 42 969 l 42 0 l 692 0 l 692 221 l 363 221 l 363 386 l 633 386 l 633 599 l 363 599 l 363 749 l 671 749 z "},"Ẹ":{"ha":718,"x_min":0,"x_max":0,"o":"m 703 969 l 42 969 l 42 0 l 692 0 l 692 221 l 363 221 l 363 386 l 633 386 l 633 599 l 363 599 l 363 749 l 671 749 z m 367 -387 b 536 -226 465 -387 536 -318 b 367 -65 536 -136 465 -65 b 199 -226 268 -65 199 -136 b 367 -387 199 -318 268 -387 z "},"È":{"ha":718,"x_min":0,"x_max":0,"o":"m 263 1390 l 154 1168 l 519 1039 l 596 1192 z m 703 969 l 42 969 l 42 0 l 692 0 l 692 221 l 363 221 l 363 386 l 633 386 l 633 599 l 363 599 l 363 749 l 671 749 z "},"Ẻ":{"ha":718,"x_min":0,"x_max":0,"o":"m 289 1061 l 453 1061 l 453 1113 b 574 1253 533 1129 574 1179 b 379 1408 574 1342 508 1408 b 208 1368 306 1408 251 1394 l 251 1258 b 339 1276 281 1269 303 1276 b 388 1239 368 1276 388 1263 b 289 1193 388 1208 361 1193 z m 703 969 l 42 969 l 42 0 l 692 0 l 692 221 l 363 221 l 363 386 l 633 386 l 633 599 l 363 599 l 363 749 l 671 749 z "},"Ȇ":{"ha":718,"x_min":0,"x_max":0,"o":"m 374 1361 b 106 1069 194 1361 117 1217 l 263 1044 b 374 1154 276 1108 311 1154 b 485 1044 435 1154 469 1108 l 640 1069 b 374 1361 629 1217 553 1361 z m 703 969 l 42 969 l 42 0 l 692 0 l 692 221 l 363 221 l 363 386 l 633 386 l 633 599 l 363 599 l 363 749 l 671 749 z "},"Ē":{"ha":718,"x_min":0,"x_max":0,"o":"m 606 1069 l 606 1275 l 138 1275 l 138 1069 z m 703 969 l 42 969 l 42 0 l 692 0 l 692 221 l 363 221 l 363 386 l 633 386 l 633 599 l 363 599 l 363 749 l 671 749 z "},"Ę":{"ha":718,"x_min":0,"x_max":0,"o":"m 363 386 l 633 386 l 633 599 l 363 599 l 363 749 l 671 749 l 703 969 l 42 969 l 42 0 l 371 0 b 276 -176 313 -43 276 -100 b 510 -360 276 -294 381 -360 b 615 -349 547 -360 585 -356 l 633 -175 b 549 -186 604 -182 575 -186 b 479 -126 507 -186 479 -168 b 636 0 479 -96 506 -40 l 692 0 l 692 221 l 363 221 z "},"Ɛ":{"ha":778,"x_min":0,"x_max":0,"o":"m 422 999 b 39 738 203 999 39 893 b 279 510 39 638 103 544 b 11 267 99 490 11 408 b 426 -31 11 83 182 -31 b 799 111 600 -31 715 25 l 633 271 b 463 193 571 218 524 193 b 344 293 392 193 344 224 b 478 400 344 358 386 400 l 554 400 l 589 615 l 472 615 b 365 700 397 615 365 647 b 464 778 365 744 388 778 b 619 710 514 778 565 758 l 764 863 b 422 999 671 951 567 999 z "},"Ǝ":{"ha":718,"x_min":0,"x_max":0,"o":"m 32 969 l 32 749 l 354 749 l 354 599 l 83 599 l 83 386 l 354 386 l 354 221 l 25 221 l 25 0 l 676 0 l 676 969 z "},"Ʃ":{"ha":699,"x_min":0,"x_max":0,"o":"m 694 969 l 4 969 l 4 749 l 231 472 l 4 221 l 4 0 l 694 0 l 694 228 l 350 228 l 544 428 l 544 524 l 356 746 l 694 746 z "},"Ɇ":{"ha":718,"x_min":0,"x_max":0,"o":"m 496 386 l 633 386 l 633 599 l 551 599 l 590 749 l 671 749 l 703 969 l 649 969 l 665 1035 l 569 1057 l 546 969 l 42 969 l 42 0 l 290 0 l 267 -87 l 365 -110 l 394 0 l 692 0 l 692 221 l 451 221 z m 363 749 l 488 749 l 449 599 l 363 599 z m 363 386 l 392 386 l 363 275 z "},"Ẽ":{"ha":718,"x_min":0,"x_max":0,"o":"m 453 1028 b 661 1233 554 1028 625 1126 l 521 1300 b 449 1242 499 1263 483 1242 b 288 1300 408 1242 379 1300 b 82 1096 192 1300 119 1204 l 222 1028 b 296 1086 244 1065 261 1086 b 453 1028 338 1086 365 1028 z m 703 969 l 42 969 l 42 0 l 692 0 l 692 221 l 363 221 l 363 386 l 633 386 l 633 599 l 363 599 l 363 749 l 671 749 z "},"Ʒ":{"ha":800,"x_min":0,"x_max":0,"o":"m 526 565 l 725 757 l 725 969 l 64 969 l 64 749 l 381 749 l 176 563 l 176 401 l 329 401 b 458 310 396 401 458 376 b 342 197 458 235 407 197 b 153 281 268 197 219 224 l -3 129 b 361 -31 76 36 188 -31 b 789 296 639 -31 789 119 b 526 565 789 451 690 550 z "},"Ǯ":{"ha":800,"x_min":0,"x_max":0,"o":"m 485 1035 l 689 1240 l 588 1358 l 394 1238 l 200 1358 l 99 1240 l 303 1035 z m 526 565 l 725 757 l 725 969 l 64 969 l 64 749 l 381 749 l 176 563 l 176 401 l 329 401 b 458 310 396 401 458 376 b 342 197 458 235 407 197 b 153 281 268 197 219 224 l -3 129 b 361 -31 76 36 188 -31 b 789 296 639 -31 789 119 b 526 565 789 451 690 550 z "},"Ƹ":{"ha":800,"x_min":0,"x_max":0,"o":"m 647 281 b 450 197 581 224 525 197 b 342 303 386 197 342 235 b 471 401 342 364 394 401 l 624 401 l 624 557 l 425 749 l 736 749 l 736 969 l 75 969 l 75 757 l 275 565 b 11 297 121 549 11 446 b 429 -31 11 113 160 -31 b 803 129 610 -31 721 36 z "},"F":{"ha":672,"x_min":0,"x_max":0,"o":"m 42 0 l 363 0 l 363 344 l 614 344 l 614 564 l 363 564 l 363 749 l 647 749 l 679 969 l 42 969 z "},"Ḟ":{"ha":672,"x_min":0,"x_max":0,"o":"m 376 1342 b 207 1181 278 1342 207 1272 b 376 1019 207 1090 278 1019 b 544 1181 475 1019 544 1090 b 376 1342 544 1272 475 1342 z m 42 0 l 363 0 l 363 344 l 614 344 l 614 564 l 363 564 l 363 749 l 647 749 l 679 969 l 42 969 z "},"Ƒ":{"ha":672,"x_min":0,"x_max":0,"o":"m 647 749 l 679 969 l 42 969 l 42 -29 b -24 -97 42 -74 17 -97 b -117 -69 -61 -97 -82 -86 l -214 -256 b 18 -319 -161 -293 -89 -319 b 364 -10 224 -319 364 -217 l 364 1 l 363 1 l 363 344 l 614 344 l 614 564 l 363 564 l 363 749 z "},"G":{"ha":914,"x_min":0,"x_max":0,"o":"m 521 999 b 17 486 228 999 17 815 b 496 -31 17 157 156 -31 b 874 86 617 -31 767 11 l 874 576 l 457 576 l 485 364 l 567 364 l 567 213 b 486 194 540 201 518 194 b 346 485 386 194 346 254 b 542 778 346 681 408 778 b 724 710 613 778 660 753 l 876 868 b 521 999 797 938 674 999 z "},"Ǵ":{"ha":914,"x_min":0,"x_max":0,"o":"m 600 1390 l 264 1192 l 342 1039 l 706 1168 z m 521 999 b 17 486 228 999 17 815 b 496 -31 17 157 156 -31 b 874 86 617 -31 767 11 l 874 576 l 457 576 l 485 364 l 567 364 l 567 213 b 486 194 540 201 518 194 b 346 485 386 194 346 254 b 542 778 346 681 408 778 b 724 710 613 778 660 753 l 876 868 b 521 999 797 938 674 999 z "},"Ɣ":{"ha":813,"x_min":0,"x_max":0,"o":"m 857 969 l 528 969 l 411 361 l 293 969 l -44 969 l 260 158 b 160 -117 189 44 160 -29 b 411 -319 160 -235 231 -319 b 664 -117 600 -319 664 -233 b 565 158 664 -22 631 64 z m 447 -97 b 411 -136 447 -122 436 -136 b 376 -99 389 -136 376 -124 b 411 8 376 -68 390 -35 b 447 -97 433 -36 447 -64 z "},"Ğ":{"ha":914,"x_min":0,"x_max":0,"o":"m 486 1032 b 753 1311 665 1032 742 1176 l 597 1335 b 486 1239 582 1285 547 1239 b 375 1335 424 1239 389 1285 l 218 1311 b 486 1032 229 1176 307 1032 z m 521 999 b 17 486 228 999 17 815 b 496 -31 17 157 156 -31 b 874 86 617 -31 767 11 l 874 576 l 457 576 l 485 364 l 567 364 l 567 213 b 486 194 540 201 518 194 b 346 485 386 194 346 254 b 542 778 346 681 408 778 b 724 710 613 778 660 753 l 876 868 b 521 999 797 938 674 999 z "},"Ǧ":{"ha":914,"x_min":0,"x_max":0,"o":"m 678 1358 l 485 1238 l 290 1358 l 189 1240 l 393 1035 l 575 1035 l 779 1240 z m 521 999 b 17 486 228 999 17 815 b 496 -31 17 157 156 -31 b 874 86 617 -31 767 11 l 874 576 l 457 576 l 485 364 l 567 364 l 567 213 b 486 194 540 201 518 194 b 346 485 386 194 346 254 b 542 778 346 681 408 778 b 724 710 613 778 660 753 l 876 868 b 521 999 797 938 674 999 z "},"Ĝ":{"ha":914,"x_min":0,"x_max":0,"o":"m 292 1042 l 486 1164 l 679 1042 l 781 1160 l 576 1365 l 394 1365 l 190 1160 z m 521 999 b 17 486 228 999 17 815 b 496 -31 17 157 156 -31 b 874 86 617 -31 767 11 l 874 576 l 457 576 l 485 364 l 567 364 l 567 213 b 486 194 540 201 518 194 b 346 485 386 194 346 254 b 542 778 346 681 408 778 b 724 710 613 778 660 753 l 876 868 b 521 999 797 938 674 999 z "},"Ģ":{"ha":914,"x_min":0,"x_max":0,"o":"m 521 999 b 17 486 228 999 17 815 b 496 -31 17 157 156 -31 b 874 86 617 -31 767 11 l 874 576 l 457 576 l 485 364 l 567 364 l 567 213 b 486 194 540 201 518 194 b 346 485 386 194 346 254 b 542 778 346 681 408 778 b 724 710 613 778 660 753 l 876 868 b 521 999 797 938 674 999 z m 489 -82 b 350 -219 407 -82 350 -146 b 407 -332 350 -271 374 -307 l 374 -489 l 517 -489 l 589 -344 b 626 -219 611 -299 626 -267 b 489 -82 626 -140 571 -82 z "},"Ġ":{"ha":914,"x_min":0,"x_max":0,"o":"m 486 1342 b 317 1181 388 1342 317 1272 b 486 1019 317 1090 388 1019 b 654 1181 585 1019 654 1090 b 486 1342 654 1272 585 1342 z m 521 999 b 17 486 228 999 17 815 b 496 -31 17 157 156 -31 b 874 86 617 -31 767 11 l 874 576 l 457 576 l 485 364 l 567 364 l 567 213 b 486 194 540 201 518 194 b 346 485 386 194 346 254 b 542 778 346 681 408 778 b 724 710 613 778 660 753 l 876 868 b 521 999 797 938 674 999 z "},"Ɠ":{"ha":881,"x_min":0,"x_max":0,"o":"m 879 1208 b 619 975 704 1208 626 1118 b 485 999 582 989 535 999 b 17 486 235 999 17 815 b 499 -31 17 157 156 -31 b 874 86 617 -31 765 11 l 874 576 l 457 576 l 485 364 l 567 364 l 567 213 b 486 194 540 201 518 194 b 346 485 386 194 346 254 b 542 778 346 681 408 778 b 732 719 613 778 669 753 l 876 868 l 876 921 b 931 990 876 968 890 990 b 1017 968 958 990 985 982 l 1094 1157 b 879 1208 1042 1185 974 1208 z "},"Ɂ":{"ha":765,"x_min":0,"x_max":0,"o":"m 200 0 l 521 0 l 521 394 l 560 411 b 738 685 693 471 738 556 b 357 999 738 875 593 999 b -3 863 211 999 89 951 l 142 710 b 304 778 204 758 250 778 b 407 669 368 778 407 738 b 254 490 407 574 371 524 l 200 474 z "},"Ǥ":{"ha":957,"x_min":0,"x_max":0,"o":"m 958 408 l 874 408 l 874 619 l 457 619 l 481 449 l 600 449 l 600 408 l 468 408 l 468 254 l 600 254 l 600 214 b 486 194 553 201 525 194 b 346 485 386 194 346 254 b 542 778 346 681 408 778 b 725 710 613 778 660 753 l 876 868 b 521 999 796 939 676 999 b 17 486 228 999 17 815 b 497 -31 17 157 156 -31 b 874 86 617 -31 765 11 l 874 254 l 958 254 z "},"Ȝ":{"ha":744,"x_min":0,"x_max":0,"o":"m 339 999 b -21 863 193 999 72 951 l 121 710 b 289 778 183 758 239 778 b 379 693 356 778 379 744 b 272 601 379 633 346 601 l 190 601 l 156 386 l 267 386 b 400 288 358 386 400 349 b 74 51 400 199 356 138 l 99 -172 b 733 269 561 -86 733 86 b 465 496 733 410 646 476 b 706 731 642 531 706 624 b 339 999 706 893 557 999 z "},"H":{"ha":906,"x_min":0,"x_max":0,"o":"m 543 0 l 864 0 l 864 969 l 543 969 l 543 622 l 363 622 l 363 969 l 42 969 l 42 0 l 363 0 l 363 376 l 543 376 z "},"Ħ":{"ha":926,"x_min":0,"x_max":0,"o":"m 938 842 l 875 842 l 875 969 l 554 969 l 554 842 l 374 842 l 374 969 l 53 969 l 53 842 l -11 842 l -11 683 l 53 683 l 53 0 l 374 0 l 374 376 l 554 376 l 554 0 l 875 0 l 875 683 l 938 683 z m 554 622 l 374 622 l 374 683 l 554 683 z "},"Ȟ":{"ha":906,"x_min":0,"x_max":0,"o":"m 647 1358 l 454 1238 l 260 1358 l 158 1240 l 363 1035 l 544 1035 l 749 1240 z m 543 0 l 864 0 l 864 969 l 543 969 l 543 622 l 363 622 l 363 969 l 42 969 l 42 0 l 363 0 l 363 376 l 543 376 z "},"Ĥ":{"ha":906,"x_min":0,"x_max":0,"o":"m 261 1042 l 456 1164 l 649 1042 l 750 1160 l 546 1365 l 364 1365 l 160 1160 z m 543 0 l 864 0 l 864 969 l 543 969 l 543 622 l 363 622 l 363 969 l 42 969 l 42 0 l 363 0 l 363 376 l 543 376 z "},"Ḥ":{"ha":906,"x_min":0,"x_max":0,"o":"m 543 0 l 864 0 l 864 969 l 543 969 l 543 622 l 363 622 l 363 969 l 42 969 l 42 0 l 363 0 l 363 376 l 543 376 z m 454 -387 b 624 -226 553 -387 624 -318 b 454 -65 624 -136 553 -65 b 286 -226 356 -65 286 -136 b 454 -387 286 -318 356 -387 z "},"Ɦ":{"ha":1181,"x_min":0,"x_max":0,"o":"m 818 969 l 818 622 l 638 622 l 638 969 l 301 969 b -3 725 126 969 -3 883 b 63 542 -3 657 28 596 l 251 621 b 232 701 242 647 232 674 b 285 749 232 732 250 749 l 317 749 l 317 0 l 638 0 l 638 376 l 818 376 l 818 0 l 1139 0 l 1139 969 z "},"Ɥ":{"ha":868,"x_min":0,"x_max":0,"o":"m 506 969 l 506 515 b 415 488 483 496 457 488 b 318 633 342 488 318 531 l 318 969 l 4 969 l 4 635 b 319 264 4 406 114 264 b 506 326 394 264 457 286 l 506 0 l 826 0 l 826 969 z "},"Ƕ":{"ha":1296,"x_min":0,"x_max":0,"o":"m 1231 744 l 931 744 b 968 358 950 622 968 483 b 904 189 968 236 944 189 b 864 269 881 189 864 203 l 864 969 l 543 969 l 543 622 l 363 622 l 363 969 l 42 969 l 42 0 l 363 0 l 363 376 l 543 376 l 543 274 b 879 -31 543 51 693 -31 b 1276 336 1076 -31 1276 71 b 1231 744 1276 499 1251 639 z "},"I":{"ha":404,"x_min":0,"x_max":0,"o":"m 363 969 l 42 969 l 42 0 l 363 0 z "},"Ĳ":{"ha":861,"x_min":0,"x_max":0,"o":"m 363 969 l 42 969 l 42 0 l 363 0 z m 822 969 l 501 969 l 501 169 b 368 -54 501 67 492 -7 l 454 -279 b 822 158 625 -222 822 -126 z "},"Í":{"ha":404,"x_min":0,"x_max":0,"o":"m 318 1390 l -18 1192 l 60 1039 l 424 1168 z m 363 969 l 42 969 l 42 0 l 363 0 z "},"Ĭ":{"ha":404,"x_min":0,"x_max":0,"o":"m 204 1032 b 471 1311 383 1032 460 1176 l 315 1335 b 204 1239 300 1285 265 1239 b 93 1335 142 1239 107 1285 l -64 1311 b 204 1032 -53 1176 25 1032 z m 363 969 l 42 969 l 42 0 l 363 0 z "},"Ǐ":{"ha":404,"x_min":0,"x_max":0,"o":"m 396 1358 l 203 1238 l 8 1358 l -93 1240 l 111 1035 l 293 1035 l 497 1240 z m 363 969 l 42 969 l 42 0 l 363 0 z "},"Î":{"ha":404,"x_min":0,"x_max":0,"o":"m 10 1042 l 204 1164 l 397 1042 l 499 1160 l 294 1365 l 113 1365 l -92 1160 z m 363 969 l 42 969 l 42 0 l 363 0 z "},"Ȉ":{"ha":404,"x_min":0,"x_max":0,"o":"m 10 1407 l -175 1317 l 15 1032 l 160 1103 z m 286 1407 l 97 1325 l 276 1038 l 425 1096 z m 363 969 l 42 969 l 42 0 l 363 0 z "},"Ï":{"ha":404,"x_min":0,"x_max":0,"o":"m 22 1326 b -121 1188 -56 1326 -121 1265 b 22 1047 -121 1110 -56 1047 b 167 1188 104 1047 167 1110 b 22 1326 167 1265 104 1326 z m 375 1326 b 231 1188 296 1326 231 1265 b 375 1047 231 1110 296 1047 b 518 1188 456 1047 518 1110 b 375 1326 518 1265 456 1326 z m 363 969 l 42 969 l 42 0 l 363 0 z "},"Ḯ":{"ha":404,"x_min":0,"x_max":0,"o":"m 286 1632 l 85 1361 l 197 1261 l 446 1475 z m 8 1321 b -135 1182 -72 1321 -135 1258 b 8 1042 -135 1103 -72 1042 b 153 1182 88 1042 153 1103 b 8 1321 153 1258 88 1321 z m 394 1321 b 250 1182 313 1321 250 1258 b 394 1042 250 1103 313 1042 b 538 1182 472 1042 538 1103 b 394 1321 538 1258 472 1321 z m 363 969 l 42 969 l 42 0 l 363 0 z "},"İ":{"ha":404,"x_min":0,"x_max":0,"o":"m 204 1342 b 35 1181 106 1342 35 1272 b 204 1019 35 1090 106 1019 b 372 1181 303 1019 372 1090 b 204 1342 372 1272 303 1342 z m 363 969 l 42 969 l 42 0 l 363 0 z "},"Ị":{"ha":404,"x_min":0,"x_max":0,"o":"m 363 969 l 42 969 l 42 0 l 363 0 z m 203 -387 b 372 -226 301 -387 372 -318 b 203 -65 372 -136 301 -65 b 35 -226 104 -65 35 -136 b 203 -387 35 -318 104 -387 z "},"Ì":{"ha":404,"x_min":0,"x_max":0,"o":"m 93 1390 l -15 1168 l 350 1039 l 426 1192 z m 363 969 l 42 969 l 42 0 l 363 0 z "},"Ỉ":{"ha":404,"x_min":0,"x_max":0,"o":"m 119 1061 l 283 1061 l 283 1113 b 404 1253 364 1129 404 1179 b 210 1408 404 1342 339 1408 b 39 1368 136 1408 82 1394 l 82 1258 b 169 1276 111 1269 133 1276 b 218 1239 199 1276 218 1263 b 119 1193 218 1208 192 1193 z m 363 969 l 42 969 l 42 0 l 363 0 z "},"Ȋ":{"ha":404,"x_min":0,"x_max":0,"o":"m 204 1361 b -64 1069 25 1361 -53 1217 l 93 1044 b 204 1154 107 1108 142 1154 b 315 1044 265 1154 300 1108 l 471 1069 b 204 1361 460 1217 383 1361 z m 363 969 l 42 969 l 42 0 l 363 0 z "},"Ī":{"ha":404,"x_min":0,"x_max":0,"o":"m 436 1069 l 436 1275 l -32 1275 l -32 1069 z m 363 969 l 42 969 l 42 0 l 363 0 z "},"Į":{"ha":404,"x_min":0,"x_max":0,"o":"m 42 969 l 42 15 b -75 -176 -29 -29 -75 -90 b 158 -360 -75 -294 29 -360 b 264 -349 196 -360 233 -356 l 282 -175 b 197 -186 253 -182 224 -186 b 128 -126 156 -186 128 -168 b 285 0 128 -96 154 -40 l 363 0 l 363 969 z "},"Ɩ":{"ha":576,"x_min":0,"x_max":0,"o":"m 508 219 b 415 192 474 203 453 192 b 350 260 375 192 350 215 l 350 290 l 349 290 l 349 969 l 28 969 l 28 279 b 374 -31 28 72 168 -31 b 606 33 481 -31 553 -4 z "},"Ɨ":{"ha":481,"x_min":0,"x_max":0,"o":"m 485 617 l 400 617 l 400 969 l 79 969 l 79 617 l -6 617 l -6 385 l 79 385 l 79 0 l 400 0 l 400 385 l 485 385 z "},"Ĩ":{"ha":404,"x_min":0,"x_max":0,"o":"m 283 1028 b 492 1233 385 1028 456 1126 l 351 1300 b 279 1242 329 1263 314 1242 b 118 1300 239 1242 210 1300 b -87 1096 22 1300 -50 1204 l 53 1028 b 126 1086 75 1065 92 1086 b 283 1028 168 1086 196 1028 z m 363 969 l 42 969 l 42 0 l 363 0 z "},"J":{"ha":457,"x_min":0,"x_max":0,"o":"m 418 969 l 97 969 l 97 169 b -36 -54 97 67 88 -7 l 50 -279 b 418 158 221 -222 418 -126 z "},"Ĵ":{"ha":457,"x_min":0,"x_max":0,"o":"m 64 1042 l 258 1164 l 451 1042 l 553 1160 l 349 1365 l 167 1365 l -37 1160 z m 418 969 l 97 969 l 97 169 b -36 -54 97 67 88 -7 l 50 -279 b 418 158 221 -222 418 -126 z "},"Ʝ":{"ha":525,"x_min":0,"x_max":0,"o":"m 631 -54 b 479 10 585 -28 540 -8 b 483 100 482 38 483 68 l 483 969 l 163 969 l 163 50 l 124 50 b -126 -143 -36 50 -126 -17 b 108 -319 -126 -251 -43 -319 b 450 -119 290 -319 400 -253 b 581 -168 485 -128 551 -153 z m 89 -181 b 39 -133 54 -181 39 -161 b 122 -79 39 -97 61 -79 b 161 -81 140 -79 153 -79 b 89 -181 157 -156 133 -181 z "},"Ɉ":{"ha":500,"x_min":0,"x_max":0,"o":"m 503 592 l 418 592 l 418 969 l 97 969 l 97 592 l 13 592 l 13 361 l 97 361 l 97 169 b -36 -54 97 67 88 -7 l 50 -279 b 418 158 221 -222 418 -126 l 418 361 l 503 361 z "},"K":{"ha":938,"x_min":0,"x_max":0,"o":"m 363 969 l 42 969 l 42 0 l 363 0 z m 947 969 l 619 969 l 371 517 l 610 0 l 971 0 l 693 542 z "},"Ǩ":{"ha":938,"x_min":0,"x_max":0,"o":"m 651 1358 l 458 1238 l 264 1358 l 163 1240 l 367 1035 l 549 1035 l 753 1240 z m 363 969 l 42 969 l 42 0 l 363 0 z m 947 969 l 619 969 l 371 517 l 610 0 l 971 0 l 693 542 z "},"Ķ":{"ha":938,"x_min":0,"x_max":0,"o":"m 363 969 l 42 969 l 42 0 l 363 0 z m 947 969 l 619 969 l 371 517 l 610 0 l 971 0 l 693 542 z m 463 -82 b 324 -219 381 -82 324 -146 b 381 -332 324 -271 347 -307 l 347 -489 l 490 -489 l 563 -344 b 600 -219 585 -299 600 -267 b 463 -82 600 -140 544 -82 z "},"Ƙ":{"ha":956,"x_min":0,"x_max":0,"o":"m 610 0 l 971 0 l 693 542 l 794 718 b 871 782 824 771 840 782 b 917 771 893 782 907 774 l 990 943 b 817 999 953 972 894 999 b 522 796 675 999 606 944 l 371 517 z m 363 969 l 42 969 l 42 0 l 363 0 z "},"L":{"ha":732,"x_min":0,"x_max":0,"o":"m 363 969 l 42 969 l 42 0 l 689 0 l 722 243 l 363 243 z "},"Ǉ":{"ha":1153,"x_min":0,"x_max":0,"o":"m 363 969 l 42 969 l 42 0 l 689 0 l 722 243 l 363 243 z m 1114 969 l 793 969 l 793 169 b 660 -54 793 67 783 -7 l 746 -279 b 1114 158 917 -222 1114 -126 z "},"Ĺ":{"ha":732,"x_min":0,"x_max":0,"o":"m 318 1390 l -18 1192 l 60 1039 l 424 1168 z m 363 969 l 42 969 l 42 0 l 689 0 l 722 243 l 363 243 z "},"Ƚ":{"ha":772,"x_min":0,"x_max":0,"o":"m 401 243 l 401 389 l 485 389 l 485 619 l 401 619 l 401 969 l 81 969 l 81 619 l -6 619 l -6 389 l 81 389 l 81 0 l 728 0 l 761 243 z "},"Ɬ":{"ha":933,"x_min":0,"x_max":0,"o":"m 564 243 l 564 347 b 749 369 631 351 688 358 l 731 522 b 564 506 664 513 619 508 l 564 969 l 243 969 l 243 715 b 185 721 226 718 207 721 b -11 543 68 721 -11 660 b 243 342 -11 431 63 347 l 243 0 l 890 0 l 924 243 z m 174 546 b 208 579 174 565 186 579 b 243 575 218 579 231 578 l 243 499 b 174 546 199 499 174 513 z "},"Ľ":{"ha":732,"x_min":0,"x_max":0,"o":"m 571 626 l 404 651 l 440 1000 l 654 967 z m 363 969 l 42 969 l 42 0 l 689 0 l 722 243 l 363 243 z "},"Ḽ":{"ha":732,"x_min":0,"x_max":0,"o":"m 363 969 l 42 969 l 42 0 l 689 0 l 722 243 l 363 243 z m 171 -419 l 365 -282 l 558 -419 l 660 -303 l 456 -81 l 274 -81 l 69 -303 z "},"Ļ":{"ha":732,"x_min":0,"x_max":0,"o":"m 363 969 l 42 969 l 42 0 l 689 0 l 722 243 l 363 243 z m 365 -82 b 226 -219 283 -82 226 -146 b 283 -332 226 -271 250 -307 l 250 -489 l 393 -489 l 465 -344 b 503 -219 488 -299 503 -267 b 365 -82 503 -140 447 -82 z "},"Ŀ":{"ha":732,"x_min":0,"x_max":0,"o":"m 363 969 l 42 969 l 42 0 l 689 0 l 722 243 l 363 243 z m 568 732 b 399 571 469 732 399 663 b 568 410 399 481 469 410 b 736 571 667 410 736 481 b 568 732 736 663 667 732 z "},"Ḷ":{"ha":732,"x_min":0,"x_max":0,"o":"m 363 969 l 42 969 l 42 0 l 689 0 l 722 243 l 363 243 z m 365 -387 b 535 -226 464 -387 535 -318 b 365 -65 535 -136 464 -65 b 197 -226 267 -65 197 -136 b 365 -387 197 -318 267 -387 z "},"ǈ":{"ha":1103,"x_min":0,"x_max":0,"o":"m 908 1167 b 739 1006 810 1167 739 1097 b 908 844 739 915 810 844 b 1076 1006 1007 844 1076 915 b 908 1167 1076 1097 1007 1167 z m 363 969 l 42 969 l 42 0 l 689 0 l 722 243 l 363 243 z m 1061 744 l 753 744 l 753 103 b 594 -96 753 -10 688 -53 l 701 -319 b 1061 121 892 -262 1061 -153 z "},"Ł":{"ha":819,"x_min":0,"x_max":0,"o":"m 450 243 l 450 467 l 681 610 l 583 765 l 450 683 l 450 969 l 129 969 l 129 485 l -7 400 l 89 243 l 129 268 l 129 0 l 776 0 l 810 243 z "},"M":{"ha":1103,"x_min":0,"x_max":0,"o":"m 1029 969 l 636 969 l 557 358 l 465 969 l 74 969 l 6 0 l 324 0 l 325 326 b 299 718 326 456 317 547 l 399 94 l 703 94 l 796 718 b 779 324 781 560 778 442 l 779 0 l 1097 0 z "},"Ḿ":{"ha":1103,"x_min":0,"x_max":0,"o":"m 665 1390 l 329 1192 l 407 1039 l 771 1168 z m 1029 969 l 636 969 l 557 358 l 465 969 l 74 969 l 6 0 l 324 0 l 325 326 b 299 718 326 456 317 547 l 399 94 l 703 94 l 796 718 b 779 324 781 560 778 442 l 779 0 l 1097 0 z "},"Ṁ":{"ha":1103,"x_min":0,"x_max":0,"o":"m 551 1342 b 382 1181 453 1342 382 1272 b 551 1019 382 1090 453 1019 b 719 1181 650 1019 719 1090 b 551 1342 719 1272 650 1342 z m 1029 969 l 636 969 l 557 358 l 465 969 l 74 969 l 6 0 l 324 0 l 325 326 b 299 718 326 456 317 547 l 399 94 l 703 94 l 796 718 b 779 324 781 560 778 442 l 779 0 l 1097 0 z "},"Ɯ":{"ha":1246,"x_min":0,"x_max":0,"o":"m 883 969 l 883 260 b 814 199 858 219 838 199 b 776 249 790 199 776 218 l 776 969 l 456 969 l 456 253 l 454 260 b 388 199 431 236 408 199 b 349 249 363 199 349 218 l 349 969 l 28 969 l 28 231 b 260 -31 28 76 115 -31 b 488 88 351 -31 413 6 b 688 -31 525 14 594 -31 b 901 69 774 -31 832 0 l 922 0 l 1204 0 l 1204 969 z "},"N":{"ha":894,"x_min":0,"x_max":0,"o":"m 853 969 l 571 969 l 571 707 b 614 285 571 519 593 418 l 433 969 l 42 969 l 42 0 l 324 0 l 324 268 b 282 682 324 449 297 585 l 453 0 l 853 0 z "},"Ǌ":{"ha":1351,"x_min":0,"x_max":0,"o":"m 853 969 l 571 969 l 571 707 b 614 285 571 519 593 418 l 433 969 l 42 969 l 42 0 l 324 0 l 324 268 b 282 682 324 449 297 585 l 453 0 l 853 0 z m 1313 969 l 992 969 l 992 169 b 858 -54 992 67 982 -7 l 944 -279 b 1313 158 1115 -222 1313 -126 z "},"Ń":{"ha":894,"x_min":0,"x_max":0,"o":"m 560 1390 l 224 1192 l 301 1039 l 665 1168 z m 853 969 l 571 969 l 571 707 b 614 285 571 519 593 418 l 433 969 l 42 969 l 42 0 l 324 0 l 324 268 b 282 682 324 449 297 585 l 453 0 l 853 0 z "},"Ň":{"ha":894,"x_min":0,"x_max":0,"o":"m 638 1358 l 444 1238 l 250 1358 l 149 1240 l 353 1035 l 535 1035 l 739 1240 z m 853 969 l 571 969 l 571 707 b 614 285 571 519 593 418 l 433 969 l 42 969 l 42 0 l 324 0 l 324 268 b 282 682 324 449 297 585 l 453 0 l 853 0 z "},"Ṋ":{"ha":894,"x_min":0,"x_max":0,"o":"m 853 969 l 571 969 l 571 707 b 614 285 571 519 593 418 l 433 969 l 42 969 l 42 0 l 324 0 l 324 268 b 282 682 324 449 297 585 l 453 0 l 853 0 z m 253 -419 l 447 -282 l 640 -419 l 742 -303 l 538 -81 l 356 -81 l 151 -303 z "},"Ņ":{"ha":894,"x_min":0,"x_max":0,"o":"m 853 969 l 571 969 l 571 707 b 614 285 571 519 593 418 l 433 969 l 42 969 l 42 0 l 324 0 l 324 268 b 282 682 324 449 297 585 l 453 0 l 853 0 z m 447 -82 b 308 -219 365 -82 308 -146 b 365 -332 308 -271 332 -307 l 332 -489 l 475 -489 l 547 -344 b 585 -219 569 -299 585 -267 b 447 -82 585 -140 529 -82 z "},"Ṅ":{"ha":894,"x_min":0,"x_max":0,"o":"m 446 1342 b 276 1181 347 1342 276 1272 b 446 1019 276 1090 347 1019 b 614 1181 544 1019 614 1090 b 446 1342 614 1272 544 1342 z m 853 969 l 571 969 l 571 707 b 614 285 571 519 593 418 l 433 969 l 42 969 l 42 0 l 324 0 l 324 268 b 282 682 324 449 297 585 l 453 0 l 853 0 z "},"Ṇ":{"ha":894,"x_min":0,"x_max":0,"o":"m 853 969 l 571 969 l 571 707 b 614 285 571 519 593 418 l 433 969 l 42 969 l 42 0 l 324 0 l 324 268 b 282 682 324 449 297 585 l 453 0 l 853 0 z m 447 -387 b 617 -226 546 -387 617 -318 b 447 -65 617 -136 546 -65 b 279 -226 349 -65 279 -136 b 447 -387 279 -318 349 -387 z "},"Ǹ":{"ha":894,"x_min":0,"x_max":0,"o":"m 335 1390 l 226 1168 l 592 1039 l 668 1192 z m 853 969 l 571 969 l 571 707 b 614 285 571 519 593 418 l 433 969 l 42 969 l 42 0 l 324 0 l 324 268 b 282 682 324 449 297 585 l 453 0 l 853 0 z "},"Ŋ":{"ha":894,"x_min":0,"x_max":0,"o":"m 571 969 l 571 707 b 614 285 571 519 593 418 l 433 969 l 42 969 l 42 0 l 324 0 l 324 268 b 282 682 324 449 297 585 l 453 0 l 531 0 l 531 -29 b 465 -97 531 -74 506 -97 b 372 -69 428 -97 407 -86 l 275 -256 b 507 -319 328 -293 400 -319 b 853 -10 713 -319 853 -217 l 853 969 z "},"Ɲ":{"ha":894,"x_min":0,"x_max":0,"o":"m 571 969 l 571 707 b 614 285 571 519 593 418 l 433 969 l 42 969 l 42 -37 b -26 -104 42 -81 17 -104 b -119 -78 -64 -104 -86 -93 l -217 -256 b 14 -319 -164 -293 -92 -319 b 324 -8 197 -319 324 -217 l 324 268 b 282 682 324 449 297 585 l 453 0 l 853 0 l 853 969 z "},"ǋ":{"ha":1286,"x_min":0,"x_max":0,"o":"m 1092 1167 b 922 1006 993 1167 922 1097 b 1092 844 922 915 993 844 b 1260 1006 1190 844 1260 915 b 1092 1167 1260 1097 1190 1167 z m 853 969 l 571 969 l 571 707 b 614 285 571 519 593 418 l 433 969 l 42 969 l 42 0 l 324 0 l 324 268 b 282 682 324 449 297 585 l 453 0 l 853 0 z m 1244 744 l 936 744 l 936 103 b 778 -96 936 -10 871 -53 l 885 -319 b 1244 121 1075 -262 1244 -153 z "},"Ƞ":{"ha":883,"x_min":0,"x_max":0,"o":"m 606 999 b 346 897 493 999 428 971 l 325 969 l 42 969 l 42 0 l 363 0 l 363 708 b 476 769 401 753 435 769 b 528 707 514 769 528 750 l 528 -303 l 849 -303 l 849 754 b 606 999 849 893 768 999 z "},"Ñ":{"ha":894,"x_min":0,"x_max":0,"o":"m 525 1028 b 733 1233 626 1028 697 1126 l 593 1300 b 521 1242 571 1263 556 1242 b 360 1300 481 1242 451 1300 b 154 1096 264 1300 192 1204 l 294 1028 b 368 1086 317 1065 333 1086 b 525 1028 410 1086 438 1028 z m 853 969 l 571 969 l 571 707 b 614 285 571 519 593 418 l 433 969 l 42 969 l 42 0 l 324 0 l 324 268 b 282 682 324 449 297 585 l 453 0 l 853 0 z "},"O":{"ha":958,"x_min":0,"x_max":0,"o":"m 479 999 b 17 486 176 999 17 800 b 479 -31 17 165 176 -31 b 940 486 781 -31 940 174 b 479 999 940 807 781 999 z m 479 775 b 608 486 575 775 608 699 b 479 194 608 275 579 194 b 350 486 381 194 350 275 b 479 775 350 699 382 775 z "},"Ȣ":{"ha":903,"x_min":0,"x_max":0,"o":"m 711 568 b 833 772 790 611 833 681 l 833 969 l 513 969 l 513 747 b 451 661 513 689 504 661 b 389 747 396 661 389 690 l 389 969 l 67 969 l 67 772 b 188 565 67 674 111 606 b 17 314 78 518 17 435 b 451 -31 17 118 183 -31 b 885 314 718 -31 885 125 b 711 568 885 440 822 522 z m 451 194 b 350 319 388 194 350 247 b 451 451 350 394 389 451 b 553 319 513 451 553 394 b 451 194 553 247 517 194 z "},"Ó":{"ha":958,"x_min":0,"x_max":0,"o":"m 594 1390 l 258 1192 l 336 1039 l 700 1168 z m 479 999 b 17 486 176 999 17 800 b 479 -31 17 165 176 -31 b 940 486 781 -31 940 174 b 479 999 940 807 781 999 z m 479 775 b 608 486 575 775 608 699 b 479 194 608 275 579 194 b 350 486 381 194 350 275 b 479 775 350 699 382 775 z "},"Ŏ":{"ha":958,"x_min":0,"x_max":0,"o":"m 481 1032 b 747 1311 660 1032 736 1176 l 592 1335 b 481 1239 576 1285 542 1239 b 369 1335 418 1239 383 1285 l 213 1311 b 481 1032 224 1176 301 1032 z m 479 999 b 17 486 176 999 17 800 b 479 -31 17 165 176 -31 b 940 486 781 -31 940 174 b 479 999 940 807 781 999 z m 479 775 b 608 486 575 775 608 699 b 479 194 608 275 579 194 b 350 486 381 194 350 275 b 479 775 350 699 382 775 z "},"Ǒ":{"ha":958,"x_min":0,"x_max":0,"o":"m 672 1358 l 479 1238 l 285 1358 l 183 1240 l 388 1035 l 569 1035 l 774 1240 z m 479 999 b 17 486 176 999 17 800 b 479 -31 17 165 176 -31 b 940 486 781 -31 940 174 b 479 999 940 807 781 999 z m 479 775 b 608 486 575 775 608 699 b 479 194 608 275 579 194 b 350 486 381 194 350 275 b 479 775 350 699 382 775 z "},"Ɵ":{"ha":958,"x_min":0,"x_max":0,"o":"m 479 999 b 17 486 176 999 17 800 b 479 -31 17 165 176 -31 b 940 486 781 -31 940 174 b 479 999 940 807 781 999 z m 479 775 b 613 567 561 775 603 718 l 344 567 b 479 775 354 718 396 775 z m 479 194 b 344 408 393 194 353 256 l 614 408 b 479 194 604 256 565 194 z "},"Ô":{"ha":958,"x_min":0,"x_max":0,"o":"m 286 1042 l 481 1164 l 674 1042 l 775 1160 l 571 1365 l 389 1365 l 185 1160 z m 479 999 b 17 486 176 999 17 800 b 479 -31 17 165 176 -31 b 940 486 781 -31 940 174 b 479 999 940 807 781 999 z m 479 775 b 608 486 575 775 608 699 b 479 194 608 275 579 194 b 350 486 381 194 350 275 b 479 775 350 699 382 775 z "},"Ố":{"ha":958,"x_min":0,"x_max":0,"o":"m 839 1617 l 638 1346 l 750 1246 l 999 1460 z m 286 1007 l 481 1129 l 674 1007 l 775 1125 l 571 1331 l 389 1331 l 185 1125 z m 479 999 b 17 486 176 999 17 800 b 479 -31 17 165 176 -31 b 940 486 781 -31 940 174 b 479 999 940 807 781 999 z m 479 775 b 608 486 575 775 608 699 b 479 194 608 275 579 194 b 350 486 381 194 350 275 b 479 775 350 699 382 775 z "},"Ộ":{"ha":958,"x_min":0,"x_max":0,"o":"m 286 1042 l 481 1164 l 674 1042 l 775 1160 l 571 1365 l 389 1365 l 185 1160 z m 479 999 b 17 486 176 999 17 800 b 479 -31 17 165 176 -31 b 940 486 781 -31 940 174 b 479 999 940 807 781 999 z m 479 775 b 608 486 575 775 608 699 b 479 194 608 275 579 194 b 350 486 381 194 350 275 b 479 775 350 699 382 775 z m 479 -387 b 649 -226 578 -387 649 -318 b 479 -65 649 -136 578 -65 b 311 -226 381 -65 311 -136 b 479 -387 311 -318 381 -387 z "},"Ồ":{"ha":958,"x_min":0,"x_max":0,"o":"m 124 1617 l -36 1460 l 213 1246 l 325 1346 z m 285 1007 l 479 1129 l 672 1007 l 774 1125 l 569 1331 l 388 1331 l 183 1125 z m 479 999 b 17 486 176 999 17 800 b 479 -31 17 165 176 -31 b 940 486 781 -31 940 174 b 479 999 940 807 781 999 z m 479 775 b 608 486 575 775 608 699 b 479 194 608 275 579 194 b 350 486 381 194 350 275 b 479 775 350 699 382 775 z "},"Ổ":{"ha":958,"x_min":0,"x_max":0,"o":"m 668 1240 l 832 1240 l 832 1292 b 953 1432 913 1308 953 1358 b 758 1588 953 1521 888 1588 b 588 1547 685 1588 631 1574 l 631 1438 b 718 1456 660 1449 682 1456 b 767 1418 747 1456 767 1442 b 668 1372 767 1388 740 1372 z m 285 1007 l 479 1129 l 672 1007 l 774 1125 l 569 1331 l 388 1331 l 183 1125 z m 479 999 b 17 486 176 999 17 800 b 479 -31 17 165 176 -31 b 940 486 781 -31 940 174 b 479 999 940 807 781 999 z m 479 775 b 608 486 575 775 608 699 b 479 194 608 275 579 194 b 350 486 381 194 350 275 b 479 775 350 699 382 775 z "},"Ỗ":{"ha":958,"x_min":0,"x_max":0,"o":"m 558 1367 b 767 1547 660 1367 731 1453 l 626 1606 b 554 1554 604 1572 589 1554 b 393 1606 514 1554 485 1606 b 188 1426 297 1606 225 1521 l 328 1367 b 401 1418 350 1399 367 1418 b 558 1367 443 1418 471 1367 z m 283 1007 l 478 1129 l 671 1007 l 772 1125 l 568 1331 l 386 1331 l 182 1125 z m 479 999 b 17 486 176 999 17 800 b 479 -31 17 165 176 -31 b 940 486 781 -31 940 174 b 479 999 940 807 781 999 z m 479 775 b 608 486 575 775 608 699 b 479 194 608 275 579 194 b 350 486 381 194 350 275 b 479 775 350 699 382 775 z "},"Ȍ":{"ha":958,"x_min":0,"x_max":0,"o":"m 286 1407 l 101 1317 l 292 1032 l 436 1103 z m 563 1407 l 374 1325 l 553 1038 l 701 1096 z m 479 999 b 17 486 176 999 17 800 b 479 -31 17 165 176 -31 b 940 486 781 -31 940 174 b 479 999 940 807 781 999 z m 479 775 b 608 486 575 775 608 699 b 479 194 608 275 579 194 b 350 486 381 194 350 275 b 479 775 350 699 382 775 z "},"Ö":{"ha":958,"x_min":0,"x_max":0,"o":"m 299 1326 b 156 1188 221 1326 156 1265 b 299 1047 156 1110 221 1047 b 443 1188 381 1047 443 1110 b 299 1326 443 1265 381 1326 z m 651 1326 b 507 1188 572 1326 507 1265 b 651 1047 507 1110 572 1047 b 794 1188 732 1047 794 1110 b 651 1326 794 1265 732 1326 z m 479 999 b 17 486 176 999 17 800 b 479 -31 17 165 176 -31 b 940 486 781 -31 940 174 b 479 999 940 807 781 999 z m 479 775 b 608 486 575 775 608 699 b 479 194 608 275 579 194 b 350 486 381 194 350 275 b 479 775 350 699 382 775 z "},"Ȫ":{"ha":958,"x_min":0,"x_max":0,"o":"m 719 1357 l 719 1563 l 251 1563 l 251 1357 z m 303 1314 b 160 1175 225 1314 160 1253 b 303 1035 160 1097 225 1035 b 447 1175 385 1035 447 1097 b 303 1314 447 1253 385 1314 z m 656 1314 b 511 1175 576 1314 511 1253 b 656 1035 511 1097 576 1035 b 799 1175 736 1035 799 1097 b 656 1314 799 1253 736 1314 z m 479 999 b 17 486 176 999 17 800 b 479 -31 17 165 176 -31 b 940 486 781 -31 940 174 b 479 999 940 807 781 999 z m 479 775 b 608 486 575 775 608 699 b 479 194 608 275 579 194 b 350 486 381 194 350 275 b 479 775 350 699 382 775 z "},"Ȯ":{"ha":958,"x_min":0,"x_max":0,"o":"m 481 1342 b 311 1181 382 1342 311 1272 b 481 1019 311 1090 382 1019 b 649 1181 579 1019 649 1090 b 481 1342 649 1272 579 1342 z m 479 999 b 17 486 176 999 17 800 b 479 -31 17 165 176 -31 b 940 486 781 -31 940 174 b 479 999 940 807 781 999 z m 479 775 b 608 486 575 775 608 699 b 479 194 608 275 579 194 b 350 486 381 194 350 275 b 479 775 350 699 382 775 z "},"Ȱ":{"ha":958,"x_min":0,"x_max":0,"o":"m 708 1357 l 708 1563 l 240 1563 l 240 1357 z m 472 1338 b 303 1176 374 1338 303 1268 b 472 1015 303 1086 374 1015 b 640 1176 571 1015 640 1086 b 472 1338 640 1268 571 1338 z m 479 999 b 17 486 176 999 17 800 b 479 -31 17 165 176 -31 b 940 486 781 -31 940 174 b 479 999 940 807 781 999 z m 479 775 b 608 486 575 775 608 699 b 479 194 608 275 579 194 b 350 486 381 194 350 275 b 479 775 350 699 382 775 z "},"Ọ":{"ha":958,"x_min":0,"x_max":0,"o":"m 479 999 b 17 486 176 999 17 800 b 479 -31 17 165 176 -31 b 940 486 781 -31 940 174 b 479 999 940 807 781 999 z m 479 775 b 608 486 575 775 608 699 b 479 194 608 275 579 194 b 350 486 381 194 350 275 b 479 775 350 699 382 775 z m 479 -387 b 649 -226 578 -387 649 -318 b 479 -65 649 -136 578 -65 b 311 -226 381 -65 311 -136 b 479 -387 311 -318 381 -387 z "},"Ò":{"ha":958,"x_min":0,"x_max":0,"o":"m 369 1390 l 261 1168 l 626 1039 l 703 1192 z m 479 999 b 17 486 176 999 17 800 b 479 -31 17 165 176 -31 b 940 486 781 -31 940 174 b 479 999 940 807 781 999 z m 479 775 b 608 486 575 775 608 699 b 479 194 608 275 579 194 b 350 486 381 194 350 275 b 479 775 350 699 382 775 z "},"Ỏ":{"ha":958,"x_min":0,"x_max":0,"o":"m 396 1061 l 560 1061 l 560 1113 b 681 1253 640 1129 681 1179 b 486 1408 681 1342 615 1408 b 315 1368 413 1408 358 1394 l 358 1258 b 446 1276 388 1269 410 1276 b 494 1239 475 1276 494 1263 b 396 1193 494 1208 468 1193 z m 479 999 b 17 486 176 999 17 800 b 479 -31 17 165 176 -31 b 940 486 781 -31 940 174 b 479 999 940 807 781 999 z m 479 775 b 608 486 575 775 608 699 b 479 194 608 275 579 194 b 350 486 381 194 350 275 b 479 775 350 699 382 775 z "},"Ơ":{"ha":1011,"x_min":0,"x_max":0,"o":"m 1057 943 b 1031 1074 1057 1010 1043 1047 l 849 1053 b 865 965 858 1025 865 1000 b 807 879 865 908 851 883 b 479 999 729 957 619 999 b 17 486 176 999 17 800 b 479 -31 17 165 176 -31 b 940 486 781 -31 940 174 b 893 749 940 586 925 675 b 1057 943 994 768 1057 832 z m 479 194 b 350 486 381 194 350 275 b 479 775 350 699 382 775 b 608 486 575 775 608 699 b 479 194 608 275 579 194 z "},"Ớ":{"ha":1011,"x_min":0,"x_max":0,"o":"m 700 1168 l 594 1390 l 258 1192 l 336 1039 z m 1057 943 b 1031 1074 1057 1010 1043 1047 l 849 1053 b 865 965 858 1025 865 1000 b 807 879 865 908 851 883 b 479 999 729 957 619 999 b 17 486 176 999 17 800 b 479 -31 17 165 176 -31 b 940 486 781 -31 940 174 b 893 749 940 586 925 675 b 1057 943 994 768 1057 832 z m 479 194 b 350 486 381 194 350 275 b 479 775 350 699 382 775 b 608 486 575 775 608 699 b 479 194 608 275 579 194 z "},"Ợ":{"ha":1011,"x_min":0,"x_max":0,"o":"m 1057 943 b 1031 1074 1057 1010 1043 1047 l 849 1053 b 865 965 858 1025 865 1000 b 807 879 865 908 851 883 b 479 999 729 957 619 999 b 17 486 176 999 17 800 b 479 -31 17 165 176 -31 b 940 486 781 -31 940 174 b 893 749 940 586 925 675 b 1057 943 994 768 1057 832 z m 479 194 b 350 486 381 194 350 275 b 479 775 350 699 382 775 b 608 486 575 775 608 699 b 479 194 608 275 579 194 z m 479 -65 b 311 -226 381 -65 311 -136 b 479 -387 311 -318 381 -387 b 649 -226 578 -387 649 -318 b 479 -65 649 -136 578 -65 z "},"Ờ":{"ha":1011,"x_min":0,"x_max":0,"o":"m 703 1192 l 369 1390 l 261 1168 l 626 1039 z m 1057 943 b 1031 1074 1057 1010 1043 1047 l 849 1053 b 865 965 858 1025 865 1000 b 807 879 865 908 851 883 b 479 999 729 957 619 999 b 17 486 176 999 17 800 b 479 -31 17 165 176 -31 b 940 486 781 -31 940 174 b 893 749 940 586 925 675 b 1057 943 994 768 1057 832 z m 479 194 b 350 486 381 194 350 275 b 479 775 350 699 382 775 b 608 486 575 775 608 699 b 479 194 608 275 579 194 z "},"Ở":{"ha":1011,"x_min":0,"x_max":0,"o":"m 446 1276 b 494 1239 475 1276 494 1263 b 396 1193 494 1208 468 1193 l 396 1061 l 560 1061 l 560 1113 b 681 1253 640 1129 681 1179 b 486 1408 681 1342 615 1408 b 315 1368 413 1408 358 1394 l 358 1258 b 446 1276 388 1269 410 1276 z m 1057 943 b 1031 1074 1057 1010 1043 1047 l 849 1053 b 865 965 858 1025 865 1000 b 807 879 865 908 851 883 b 479 999 729 957 619 999 b 17 486 176 999 17 800 b 479 -31 17 165 176 -31 b 940 486 781 -31 940 174 b 893 749 940 586 925 675 b 1057 943 994 768 1057 832 z m 479 194 b 350 486 381 194 350 275 b 479 775 350 699 382 775 b 608 486 575 775 608 699 b 479 194 608 275 579 194 z "},"Ỡ":{"ha":1011,"x_min":0,"x_max":0,"o":"m 403 1086 b 560 1028 444 1086 472 1028 b 768 1233 661 1028 732 1126 l 628 1300 b 556 1242 606 1263 590 1242 b 394 1300 515 1242 486 1300 b 189 1096 299 1300 226 1204 l 329 1028 b 403 1086 351 1065 368 1086 z m 1057 943 b 1031 1074 1057 1010 1043 1047 l 849 1053 b 865 965 858 1025 865 1000 b 807 879 865 908 851 883 b 479 999 729 957 619 999 b 17 486 176 999 17 800 b 479 -31 17 165 176 -31 b 940 486 781 -31 940 174 b 893 749 940 586 925 675 b 1057 943 994 768 1057 832 z m 479 194 b 350 486 381 194 350 275 b 479 775 350 699 382 775 b 608 486 575 775 608 699 b 479 194 608 275 579 194 z "},"Ő":{"ha":958,"x_min":0,"x_max":0,"o":"m 408 1407 l 268 1096 l 417 1038 l 596 1325 z m 683 1407 l 533 1103 l 679 1032 l 868 1317 z m 479 999 b 17 486 176 999 17 800 b 479 -31 17 165 176 -31 b 940 486 781 -31 940 174 b 479 999 940 807 781 999 z m 479 775 b 608 486 575 775 608 699 b 479 194 608 275 579 194 b 350 486 381 194 350 275 b 479 775 350 699 382 775 z "},"Ƣ":{"ha":1379,"x_min":0,"x_max":0,"o":"m 1001 999 b 747 922 900 999 817 969 b 479 999 674 972 583 999 b 17 486 176 999 17 800 b 479 -31 17 165 176 -31 b 940 486 781 -31 940 174 b 881 767 940 596 919 690 b 956 783 903 776 924 783 b 1017 703 994 783 1017 761 l 1017 -303 l 1338 -303 l 1338 689 b 1001 999 1338 897 1197 999 z m 479 194 b 350 486 381 194 350 275 b 479 775 350 699 382 775 b 608 486 575 775 608 699 b 479 194 608 275 579 194 z "},"Ȏ":{"ha":958,"x_min":0,"x_max":0,"o":"m 481 1361 b 213 1069 301 1361 224 1217 l 369 1044 b 481 1154 383 1108 418 1154 b 592 1044 542 1154 576 1108 l 747 1069 b 481 1361 736 1217 660 1361 z m 479 999 b 17 486 176 999 17 800 b 479 -31 17 165 176 -31 b 940 486 781 -31 940 174 b 479 999 940 807 781 999 z m 479 775 b 608 486 575 775 608 699 b 479 194 608 275 579 194 b 350 486 381 194 350 275 b 479 775 350 699 382 775 z "},"Ō":{"ha":958,"x_min":0,"x_max":0,"o":"m 713 1069 l 713 1275 l 244 1275 l 244 1069 z m 479 999 b 17 486 176 999 17 800 b 479 -31 17 165 176 -31 b 940 486 781 -31 940 174 b 479 999 940 807 781 999 z m 479 775 b 608 486 575 775 608 699 b 479 194 608 275 579 194 b 350 486 381 194 350 275 b 479 775 350 699 382 775 z "},"Ṓ":{"ha":958,"x_min":0,"x_max":0,"o":"m 593 1639 l 257 1440 l 335 1288 l 699 1417 z m 713 1060 l 713 1265 l 244 1265 l 244 1060 z m 479 999 b 17 486 176 999 17 800 b 479 -31 17 165 176 -31 b 940 486 781 -31 940 174 b 479 999 940 807 781 999 z m 479 775 b 608 486 575 775 608 699 b 479 194 608 275 579 194 b 350 486 381 194 350 275 b 479 775 350 699 382 775 z "},"Ṑ":{"ha":958,"x_min":0,"x_max":0,"o":"m 368 1632 l 260 1410 l 625 1281 l 701 1433 z m 713 1060 l 713 1265 l 244 1265 l 244 1060 z m 479 999 b 17 486 176 999 17 800 b 479 -31 17 165 176 -31 b 940 486 781 -31 940 174 b 479 999 940 807 781 999 z m 479 775 b 608 486 575 775 608 699 b 479 194 608 275 579 194 b 350 486 381 194 350 275 b 479 775 350 699 382 775 z "},"Ꞷ":{"ha":1297,"x_min":0,"x_max":0,"o":"m 1136 969 l 828 969 b 926 444 874 824 926 681 b 863 194 926 269 917 194 b 813 283 822 194 813 215 l 813 554 l 496 554 l 496 283 b 442 194 496 214 471 194 b 371 443 390 194 371 264 b 453 969 371 683 418 824 l 160 969 b 49 424 97 825 49 682 b 404 -31 49 121 153 -31 b 651 153 508 -31 617 18 b 914 -31 692 19 788 -31 b 1247 424 1138 -31 1247 118 b 1136 969 1247 682 1199 825 z "},"Ǫ":{"ha":958,"x_min":0,"x_max":0,"o":"m 635 -10 b 940 486 835 50 940 233 b 479 999 940 807 781 999 b 17 486 176 999 17 800 b 371 -21 17 206 139 21 b 303 -176 329 -61 303 -112 b 536 -360 303 -294 407 -360 b 642 -349 574 -360 611 -356 l 660 -175 b 575 -186 631 -182 601 -186 b 506 -126 533 -186 506 -168 b 635 -10 506 -99 528 -49 z m 479 775 b 608 486 575 775 608 699 b 479 194 608 275 579 194 b 350 486 381 194 350 275 b 479 775 350 699 382 775 z "},"Ǭ":{"ha":958,"x_min":0,"x_max":0,"o":"m 713 1275 l 244 1275 l 244 1069 l 713 1069 z m 635 -10 b 940 486 835 50 940 233 b 479 999 940 807 781 999 b 17 486 176 999 17 800 b 371 -21 17 206 139 21 b 303 -176 329 -61 303 -112 b 536 -360 303 -294 407 -360 b 642 -349 574 -360 611 -356 l 660 -175 b 575 -186 631 -182 601 -186 b 506 -126 533 -186 506 -168 b 635 -10 506 -99 528 -49 z m 479 775 b 608 486 575 775 608 699 b 479 194 608 275 579 194 b 350 486 381 194 350 275 b 479 775 350 699 382 775 z "},"Ɔ":{"ha":818,"x_min":0,"x_max":0,"o":"m 340 999 b 4 881 193 999 90 954 l 157 704 b 322 772 207 744 254 772 b 469 488 419 772 469 690 b 313 208 469 283 411 208 b 131 285 242 208 189 240 l -7 111 b 331 -31 69 36 186 -31 b 801 488 617 -31 801 150 b 340 999 801 810 611 999 z "},"Ø":{"ha":958,"x_min":0,"x_max":0,"o":"m 751 925 l 807 1100 l 576 1161 l 524 997 b 479 999 510 999 494 999 b 17 486 176 999 17 800 b 207 44 17 282 82 129 l 151 -135 l 382 -197 l 433 -29 b 479 -31 449 -31 464 -31 b 940 486 781 -31 940 174 b 751 925 940 690 876 842 z m 479 775 l 493 775 l 493 774 l 357 322 b 350 486 353 363 350 417 b 479 775 350 699 382 775 z m 479 194 l 467 194 l 601 646 b 608 486 606 606 608 554 b 479 194 608 275 579 194 z "},"Ǿ":{"ha":958,"x_min":0,"x_max":0,"o":"m 701 1239 l 596 1461 l 260 1263 l 338 1110 z m 751 925 l 807 1100 l 576 1161 l 524 997 b 479 999 510 999 494 999 b 17 486 176 999 17 800 b 207 44 17 282 82 129 l 151 -135 l 382 -197 l 433 -29 b 479 -31 449 -31 464 -31 b 940 486 781 -31 940 174 b 751 925 940 690 876 842 z m 479 775 l 493 775 l 493 774 l 357 322 b 350 486 353 363 350 417 b 479 775 350 699 382 775 z m 479 194 l 467 194 l 601 646 b 608 486 606 606 608 554 b 479 194 608 275 579 194 z "},"Õ":{"ha":958,"x_min":0,"x_max":0,"o":"m 560 1028 b 768 1233 661 1028 732 1126 l 628 1300 b 556 1242 606 1263 590 1242 b 394 1300 515 1242 486 1300 b 189 1096 299 1300 226 1204 l 329 1028 b 403 1086 351 1065 368 1086 b 560 1028 444 1086 472 1028 z m 479 999 b 17 486 176 999 17 800 b 479 -31 17 165 176 -31 b 940 486 781 -31 940 174 b 479 999 940 807 781 999 z m 479 775 b 608 486 575 775 608 699 b 479 194 608 275 579 194 b 350 486 381 194 350 275 b 479 775 350 699 382 775 z "},"Ṍ":{"ha":958,"x_min":0,"x_max":0,"o":"m 594 1679 l 258 1481 l 336 1328 l 700 1457 z m 560 1046 b 768 1251 661 1046 732 1144 l 628 1318 b 556 1260 606 1281 590 1260 b 394 1318 515 1260 486 1318 b 189 1114 299 1318 226 1222 l 329 1046 b 403 1104 351 1083 368 1104 b 560 1046 444 1104 472 1046 z m 479 999 b 17 486 176 999 17 800 b 479 -31 17 165 176 -31 b 940 486 781 -31 940 174 b 479 999 940 807 781 999 z m 479 775 b 608 486 575 775 608 699 b 479 194 608 275 579 194 b 350 486 381 194 350 275 b 479 775 350 699 382 775 z "},"Ȭ":{"ha":958,"x_min":0,"x_max":0,"o":"m 713 1353 l 713 1558 l 244 1558 l 244 1353 z m 560 1046 b 768 1251 661 1046 732 1144 l 628 1318 b 556 1260 606 1281 590 1260 b 394 1318 515 1260 486 1318 b 189 1114 299 1318 226 1222 l 329 1046 b 403 1104 351 1083 368 1104 b 560 1046 444 1104 472 1046 z m 479 999 b 17 486 176 999 17 800 b 479 -31 17 165 176 -31 b 940 486 781 -31 940 174 b 479 999 940 807 781 999 z m 479 775 b 608 486 575 775 608 699 b 479 194 608 275 579 194 b 350 486 381 194 350 275 b 479 775 350 699 382 775 z "},"Œ":{"ha":1268,"x_min":0,"x_max":0,"o":"m 906 396 l 906 386 l 1185 386 l 1185 599 l 906 599 l 906 576 b 844 749 896 638 876 696 l 1221 749 l 1253 969 l 614 969 b 453 999 569 989 514 999 b 17 486 176 999 17 800 b 453 -31 17 165 176 -31 b 613 0 513 -31 567 -21 l 1243 0 l 1243 221 l 843 221 b 906 396 876 274 896 333 z m 465 194 b 350 486 381 194 350 275 b 465 775 350 699 382 775 b 581 486 547 775 581 699 b 465 194 581 275 551 194 z "},"P":{"ha":858,"x_min":0,"x_max":0,"o":"m 413 969 l 42 969 l 42 0 l 363 0 l 363 290 l 451 290 b 843 638 685 290 843 410 b 413 969 843 857 679 969 z m 418 514 l 363 514 l 363 749 l 407 749 b 517 638 492 749 517 703 b 418 514 517 558 485 514 z "},"Ṕ":{"ha":858,"x_min":0,"x_max":0,"o":"m 650 1168 l 544 1390 l 208 1192 l 286 1039 z m 413 969 l 42 969 l 42 0 l 363 0 l 363 290 l 451 290 b 843 638 685 290 843 410 b 413 969 843 857 679 969 z m 418 514 l 363 514 l 363 749 l 407 749 b 517 638 492 749 517 703 b 418 514 517 558 485 514 z "},"Ṗ":{"ha":858,"x_min":0,"x_max":0,"o":"m 431 1019 b 599 1181 529 1019 599 1090 b 431 1342 599 1272 529 1342 b 261 1181 332 1342 261 1272 b 431 1019 261 1090 332 1019 z m 413 969 l 42 969 l 42 0 l 363 0 l 363 290 l 451 290 b 843 638 685 290 843 410 b 413 969 843 857 679 969 z m 418 514 l 363 514 l 363 749 l 407 749 b 517 638 492 749 517 703 b 418 514 517 558 485 514 z "},"Ƥ":{"ha":1133,"x_min":0,"x_max":0,"o":"m 688 969 l 301 969 b -3 725 126 969 -3 883 b 63 542 -3 657 28 596 l 251 621 b 232 701 242 647 232 674 b 285 749 232 732 250 749 l 317 749 l 317 0 l 638 0 l 638 290 l 726 290 b 1118 638 960 290 1118 410 b 688 969 1118 857 954 969 z m 693 514 l 638 514 l 638 749 l 682 749 b 792 638 767 749 792 703 b 693 514 792 558 760 514 z "},"Þ":{"ha":858,"x_min":0,"x_max":0,"o":"m 413 831 l 363 831 l 363 969 l 42 969 l 42 0 l 363 0 l 363 140 l 451 140 b 843 499 685 140 843 260 b 413 831 843 719 679 831 z m 418 364 l 363 364 l 363 610 l 407 610 b 517 499 492 610 517 564 b 418 364 517 410 485 364 z "},"Q":{"ha":958,"x_min":0,"x_max":0,"o":"m 708 69 b 940 486 810 132 940 256 b 479 999 940 807 781 999 b 17 486 176 999 17 800 b 454 -24 17 165 176 -24 b 831 -262 639 -24 760 -160 l 1017 -18 b 708 69 932 46 849 69 z m 350 486 b 479 775 350 699 382 775 b 608 486 575 775 608 699 b 479 194 608 275 579 194 b 350 486 381 194 350 275 z "},"Ɋ":{"ha":939,"x_min":0,"x_max":0,"o":"m 1057 -69 b 964 -97 1022 -86 1001 -97 b 899 -29 924 -97 899 -74 l 899 1 l 897 1 l 897 969 l 611 969 l 604 919 b 403 999 556 964 493 999 b 17 474 178 999 17 801 b 400 -31 17 169 158 -31 b 576 28 479 -31 535 -8 l 576 -10 b 922 -319 576 -217 717 -319 b 1154 -256 1029 -319 1101 -293 z m 479 185 b 350 474 390 185 350 253 b 478 775 350 700 388 775 b 578 738 519 775 554 758 l 576 732 l 576 217 b 479 185 546 194 511 185 z "},"R":{"ha":872,"x_min":0,"x_max":0,"o":"m 561 0 l 914 0 l 683 389 b 846 654 797 464 846 535 b 419 969 846 874 704 969 l 42 969 l 42 0 l 363 0 l 363 331 l 394 331 z m 363 751 l 411 751 b 521 654 479 751 521 721 b 425 543 521 579 490 543 l 363 543 z "},"Ŕ":{"ha":872,"x_min":0,"x_max":0,"o":"m 642 1168 l 536 1390 l 200 1192 l 278 1039 z m 561 0 l 914 0 l 683 389 b 846 654 797 464 846 535 b 419 969 846 874 704 969 l 42 969 l 42 0 l 363 0 l 363 331 l 394 331 z m 363 751 l 411 751 b 521 654 479 751 521 721 b 425 543 521 579 490 543 l 363 543 z "},"Ř":{"ha":872,"x_min":0,"x_max":0,"o":"m 511 1035 l 715 1240 l 614 1358 l 421 1238 l 226 1358 l 125 1240 l 329 1035 z m 561 0 l 914 0 l 683 389 b 846 654 797 464 846 535 b 419 969 846 874 704 969 l 42 969 l 42 0 l 363 0 l 363 331 l 394 331 z m 363 751 l 411 751 b 521 654 479 751 521 721 b 425 543 521 579 490 543 l 363 543 z "},"Ŗ":{"ha":872,"x_min":0,"x_max":0,"o":"m 363 331 l 394 331 l 561 0 l 914 0 l 683 389 b 846 654 797 464 846 535 b 419 969 846 874 704 969 l 42 969 l 42 0 l 363 0 z m 411 751 b 521 654 479 751 521 721 b 425 543 521 579 490 543 l 363 543 l 363 751 z m 435 -82 b 296 -219 353 -82 296 -146 b 353 -332 296 -271 319 -307 l 319 -489 l 463 -489 l 535 -344 b 572 -219 557 -299 572 -267 b 435 -82 572 -140 517 -82 z "},"Ȑ":{"ha":872,"x_min":0,"x_max":0,"o":"m 378 1103 l 228 1407 l 43 1317 l 233 1032 z m 643 1096 l 504 1407 l 315 1325 l 494 1038 z m 561 0 l 914 0 l 683 389 b 846 654 797 464 846 535 b 419 969 846 874 704 969 l 42 969 l 42 0 l 363 0 l 363 331 l 394 331 z m 363 751 l 411 751 b 521 654 479 751 521 721 b 425 543 521 579 490 543 l 363 543 z "},"Ṛ":{"ha":872,"x_min":0,"x_max":0,"o":"m 363 331 l 394 331 l 561 0 l 914 0 l 683 389 b 846 654 797 464 846 535 b 419 969 846 874 704 969 l 42 969 l 42 0 l 363 0 z m 411 751 b 521 654 479 751 521 721 b 425 543 521 579 490 543 l 363 543 l 363 751 z m 435 -65 b 267 -226 336 -65 267 -136 b 435 -387 267 -318 336 -387 b 604 -226 533 -387 604 -318 b 435 -65 604 -136 533 -65 z "},"Ȓ":{"ha":872,"x_min":0,"x_max":0,"o":"m 422 1154 b 533 1044 483 1154 518 1108 l 689 1069 b 422 1361 678 1217 601 1361 b 154 1069 243 1361 165 1217 l 311 1044 b 422 1154 325 1108 360 1154 z m 561 0 l 914 0 l 683 389 b 846 654 797 464 846 535 b 419 969 846 874 704 969 l 42 969 l 42 0 l 363 0 l 363 331 l 394 331 z m 363 751 l 411 751 b 521 654 479 751 521 721 b 425 543 521 579 490 543 l 363 543 z "},"Ɍ":{"ha":896,"x_min":0,"x_max":0,"o":"m 585 0 l 938 0 l 707 389 b 869 654 821 464 869 535 b 443 969 869 874 728 969 l 65 969 l 65 543 l 11 543 l 11 331 l 65 331 l 65 0 l 386 0 l 386 331 l 418 331 z m 435 751 b 544 654 503 751 544 721 b 449 543 544 579 514 543 l 386 543 l 386 751 z "},"Ɽ":{"ha":872,"x_min":0,"x_max":0,"o":"m 429 -97 b 364 -29 389 -97 364 -74 l 364 1 l 363 1 l 363 331 l 394 331 l 561 0 l 914 0 l 683 389 b 846 654 797 464 846 535 b 419 969 846 874 704 969 l 42 969 l 42 -10 b 388 -319 42 -217 182 -319 b 619 -256 494 -319 567 -293 l 522 -69 b 429 -97 488 -86 467 -97 z m 411 751 b 521 654 479 751 521 721 b 425 543 521 579 490 543 l 363 543 l 363 751 z "},"S":{"ha":831,"x_min":0,"x_max":0,"o":"m 425 999 b 33 693 201 999 33 885 b 339 372 33 554 94 450 b 483 265 457 336 483 315 b 382 197 483 231 458 197 b 147 292 294 197 217 232 l -8 121 b 396 -31 71 44 200 -31 b 817 294 658 -31 817 103 b 529 625 817 465 738 557 b 364 721 399 668 364 678 b 453 775 364 753 389 775 b 657 699 528 775 594 749 l 796 863 b 425 999 706 950 585 999 z "},"Ś":{"ha":831,"x_min":0,"x_max":0,"o":"m 551 1390 l 215 1192 l 293 1039 l 657 1168 z m 425 999 b 33 693 201 999 33 885 b 339 372 33 554 94 450 b 483 265 457 336 483 315 b 382 197 483 231 458 197 b 147 292 294 197 217 232 l -8 121 b 396 -31 71 44 200 -31 b 817 294 658 -31 817 103 b 529 625 817 465 738 557 b 364 721 399 668 364 678 b 453 775 364 753 389 775 b 657 699 528 775 594 749 l 796 863 b 425 999 706 950 585 999 z "},"Ꞌ":{"ha":381,"x_min":0,"x_max":0,"o":"m 82 446 l 299 446 l 332 969 l 49 969 z "},"Š":{"ha":831,"x_min":0,"x_max":0,"o":"m 629 1358 l 436 1238 l 242 1358 l 140 1240 l 344 1035 l 526 1035 l 731 1240 z m 425 999 b 33 693 201 999 33 885 b 339 372 33 554 94 450 b 483 265 457 336 483 315 b 382 197 483 231 458 197 b 147 292 294 197 217 232 l -8 121 b 396 -31 71 44 200 -31 b 817 294 658 -31 817 103 b 529 625 817 465 738 557 b 364 721 399 668 364 678 b 453 775 364 753 389 775 b 657 699 528 775 594 749 l 796 863 b 425 999 706 950 585 999 z "},"Ş":{"ha":831,"x_min":0,"x_max":0,"o":"m 817 294 b 529 625 817 465 738 557 b 364 721 399 668 364 678 b 453 775 364 753 389 775 b 657 699 528 775 594 749 l 796 863 b 425 999 706 950 585 999 b 33 693 201 999 33 885 b 339 372 33 554 94 450 b 483 265 457 336 483 315 b 382 197 483 231 458 197 b 147 292 294 197 217 232 l -8 121 b 324 -26 61 54 168 -11 l 306 -174 b 438 -210 396 -174 438 -181 b 376 -237 438 -231 415 -237 b 288 -212 344 -237 315 -228 l 222 -342 b 407 -393 264 -368 331 -393 b 647 -212 564 -393 647 -310 b 489 -56 647 -121 592 -69 l 489 -25 b 817 294 696 4 817 126 z "},"Ŝ":{"ha":831,"x_min":0,"x_max":0,"o":"m 243 1042 l 438 1164 l 631 1042 l 732 1160 l 528 1365 l 346 1365 l 142 1160 z m 425 999 b 33 693 201 999 33 885 b 339 372 33 554 94 450 b 483 265 457 336 483 315 b 382 197 483 231 458 197 b 147 292 294 197 217 232 l -8 121 b 396 -31 71 44 200 -31 b 817 294 658 -31 817 103 b 529 625 817 465 738 557 b 364 721 399 668 364 678 b 453 775 364 753 389 775 b 657 699 528 775 594 749 l 796 863 b 425 999 706 950 585 999 z "},"Ș":{"ha":831,"x_min":0,"x_max":0,"o":"m 425 999 b 33 693 201 999 33 885 b 339 372 33 554 94 450 b 483 265 457 336 483 315 b 382 197 483 231 458 197 b 147 292 294 197 217 232 l -8 121 b 396 -31 71 44 200 -31 b 817 294 658 -31 817 103 b 529 625 817 465 738 557 b 364 721 399 668 364 678 b 453 775 364 753 389 775 b 657 699 528 775 594 749 l 796 863 b 425 999 706 950 585 999 z m 415 -82 b 276 -219 333 -82 276 -146 b 333 -332 276 -271 300 -307 l 300 -489 l 443 -489 l 515 -344 b 553 -219 538 -299 553 -267 b 415 -82 553 -140 497 -82 z "},"Ṡ":{"ha":831,"x_min":0,"x_max":0,"o":"m 438 1342 b 268 1181 339 1342 268 1272 b 438 1019 268 1090 339 1019 b 606 1181 536 1019 606 1090 b 438 1342 606 1272 536 1342 z m 425 999 b 33 693 201 999 33 885 b 339 372 33 554 94 450 b 483 265 457 336 483 315 b 382 197 483 231 458 197 b 147 292 294 197 217 232 l -8 121 b 396 -31 71 44 200 -31 b 817 294 658 -31 817 103 b 529 625 817 465 738 557 b 364 721 399 668 364 678 b 453 775 364 753 389 775 b 657 699 528 775 594 749 l 796 863 b 425 999 706 950 585 999 z "},"Ṣ":{"ha":831,"x_min":0,"x_max":0,"o":"m 425 999 b 33 693 201 999 33 885 b 339 372 33 554 94 450 b 483 265 457 336 483 315 b 382 197 483 231 458 197 b 147 292 294 197 217 232 l -8 121 b 396 -31 71 44 200 -31 b 817 294 658 -31 817 103 b 529 625 817 465 738 557 b 364 721 399 668 364 678 b 453 775 364 753 389 775 b 657 699 528 775 594 749 l 796 863 b 425 999 706 950 585 999 z m 415 -387 b 585 -226 514 -387 585 -318 b 415 -65 585 -136 514 -65 b 247 -226 317 -65 247 -136 b 415 -387 247 -318 317 -387 z "},"ẞ":{"ha":947,"x_min":0,"x_max":0,"o":"m 421 999 b 42 667 168 999 42 871 l 42 0 l 363 0 l 363 679 b 446 775 363 750 385 775 b 574 758 493 775 535 769 l 433 557 l 433 422 b 603 283 568 399 603 351 b 533 203 603 218 557 203 b 469 215 511 203 492 206 l 381 13 b 581 -31 431 -12 500 -31 b 935 276 757 -31 935 64 b 700 553 935 461 819 522 l 872 779 l 872 900 b 421 999 740 953 624 999 z "},"Ə":{"ha":876,"x_min":0,"x_max":0,"o":"m 421 999 b 57 871 268 999 156 956 l 193 707 b 386 775 243 742 294 775 b 538 588 481 775 533 714 l 14 588 b 3 474 8 557 3 518 b 426 -31 3 182 119 -31 b 860 485 701 -31 860 153 b 421 999 860 819 703 999 z m 428 194 b 308 381 354 194 308 240 l 538 381 b 428 194 538 239 500 194 z "},"T":{"ha":781,"x_min":0,"x_max":0,"o":"m 793 969 l 4 969 l 4 732 l 231 732 l 231 0 l 551 0 l 551 732 l 760 732 z "},"Ŧ":{"ha":781,"x_min":0,"x_max":0,"o":"m 760 732 l 793 969 l 4 969 l 4 732 l 231 732 l 231 544 l 82 544 l 82 386 l 231 386 l 231 0 l 551 0 l 551 386 l 697 386 l 697 544 l 551 544 l 551 732 z "},"Ť":{"ha":781,"x_min":0,"x_max":0,"o":"m 583 1358 l 390 1238 l 196 1358 l 94 1240 l 299 1035 l 481 1035 l 685 1240 z m 793 969 l 4 969 l 4 732 l 231 732 l 231 0 l 551 0 l 551 732 l 760 732 z "},"Ţ":{"ha":781,"x_min":0,"x_max":0,"o":"m 551 -56 l 551 732 l 760 732 l 793 969 l 4 969 l 4 732 l 231 732 l 231 0 l 389 0 l 367 -174 b 499 -208 457 -174 499 -181 b 436 -237 499 -231 478 -237 b 349 -212 406 -237 376 -228 l 283 -342 b 469 -393 324 -367 392 -393 b 708 -212 626 -393 708 -310 b 551 -56 708 -121 654 -69 z "},"Ṱ":{"ha":781,"x_min":0,"x_max":0,"o":"m 793 969 l 4 969 l 4 732 l 231 732 l 231 0 l 551 0 l 551 732 l 760 732 z m 196 -419 l 390 -282 l 583 -419 l 685 -303 l 481 -81 l 299 -81 l 94 -303 z "},"Ț":{"ha":781,"x_min":0,"x_max":0,"o":"m 793 969 l 4 969 l 4 732 l 231 732 l 231 0 l 551 0 l 551 732 l 760 732 z m 390 -82 b 251 -219 308 -82 251 -146 b 308 -332 251 -271 275 -307 l 275 -489 l 418 -489 l 490 -344 b 528 -219 513 -299 528 -267 b 390 -82 528 -140 472 -82 z "},"Ⱦ":{"ha":781,"x_min":0,"x_max":0,"o":"m 793 1013 l 717 1056 l 669 969 l 4 969 l 4 749 l 256 749 l 256 203 l 110 -67 l 186 -110 l 256 18 l 256 0 l 526 0 l 526 519 l 650 749 l 760 749 l 793 969 l 769 969 z m 526 704 l 526 749 l 550 749 z "},"Ṫ":{"ha":781,"x_min":0,"x_max":0,"o":"m 392 1342 b 222 1181 293 1342 222 1272 b 392 1019 222 1090 293 1019 b 560 1181 490 1019 560 1090 b 392 1342 560 1272 490 1342 z m 793 969 l 4 969 l 4 732 l 231 732 l 231 0 l 551 0 l 551 732 l 760 732 z "},"Ṭ":{"ha":781,"x_min":0,"x_max":0,"o":"m 793 969 l 4 969 l 4 732 l 231 732 l 231 0 l 551 0 l 551 732 l 760 732 z m 390 -387 b 560 -226 489 -387 560 -318 b 390 -65 560 -136 489 -65 b 222 -226 292 -65 222 -136 b 390 -387 222 -318 292 -387 z "},"Ƭ":{"ha":879,"x_min":0,"x_max":0,"o":"m 308 969 b -3 725 121 967 -3 881 b 49 543 -3 658 19 593 l 247 619 b 231 685 239 642 231 660 b 285 732 231 715 251 732 l 329 732 l 329 0 l 650 0 l 650 732 l 858 732 l 892 969 z "},"Ṯ":{"ha":781,"x_min":0,"x_max":0,"o":"m 793 969 l 4 969 l 4 732 l 231 732 l 231 0 l 551 0 l 551 732 l 760 732 z m 624 -289 l 624 -83 l 156 -83 l 156 -289 z "},"Ƽ":{"ha":797,"x_min":0,"x_max":0,"o":"m 711 969 l 63 969 l 63 421 l 258 421 b 356 454 300 446 331 454 b 454 325 415 454 454 421 b 336 194 454 236 411 194 b 168 288 267 194 206 232 l 0 136 b 350 -31 69 43 188 -31 b 768 329 608 -31 768 111 b 490 656 768 542 642 656 b 358 628 453 656 404 647 l 358 757 l 681 757 z "},"Ƅ":{"ha":911,"x_min":0,"x_max":0,"o":"m 503 661 l 422 661 l 422 969 l 160 969 b -10 721 115 876 60 792 l 101 639 l 101 0 l 518 0 b 903 342 740 0 903 117 b 503 661 903 557 760 661 z m 469 224 l 422 224 l 422 450 l 464 450 b 569 339 547 450 569 400 b 469 224 569 276 544 224 z "},"Ƨ":{"ha":815,"x_min":0,"x_max":0,"o":"m 421 999 b 43 863 268 999 140 950 l 182 699 b 393 775 244 749 311 775 b 476 719 449 775 476 751 b 301 611 476 676 432 654 b 13 296 93 543 13 457 b 413 -31 13 103 167 -31 b 824 121 604 -31 739 44 l 668 292 b 440 203 599 236 519 203 b 346 271 371 203 346 228 b 492 386 346 314 374 350 b 806 694 726 458 806 553 b 421 999 806 879 653 999 z "},"Ʈ":{"ha":786,"x_min":0,"x_max":0,"o":"m 710 -69 b 617 -97 675 -86 654 -97 b 551 -29 576 -97 551 -74 l 551 732 l 760 732 l 793 969 l 4 969 l 4 732 l 231 732 l 231 1 l 229 1 l 229 -10 b 575 -319 229 -217 369 -319 b 807 -256 682 -319 754 -293 z "},"U":{"ha":889,"x_min":0,"x_max":0,"o":"m 861 969 l 540 969 l 540 340 b 444 197 540 243 515 197 b 349 340 374 197 349 243 l 349 969 l 28 969 l 28 332 b 444 -31 28 117 160 -31 b 861 332 729 -31 861 133 z "},"Ú":{"ha":889,"x_min":0,"x_max":0,"o":"m 560 1390 l 224 1192 l 301 1039 l 665 1168 z m 861 969 l 540 969 l 540 340 b 444 197 540 243 515 197 b 349 340 374 197 349 243 l 349 969 l 28 969 l 28 332 b 444 -31 28 117 160 -31 b 861 332 729 -31 861 133 z "},"Ʉ":{"ha":935,"x_min":0,"x_max":0,"o":"m 946 842 l 883 842 l 883 969 l 563 969 l 563 842 l 371 842 l 371 969 l 50 969 l 50 842 l -11 842 l -11 683 l 50 683 l 50 332 b 467 -31 50 117 182 -31 b 883 332 751 -31 883 133 l 883 683 l 946 683 z m 563 340 b 467 197 563 243 538 197 b 371 340 396 197 371 243 l 371 683 l 563 683 z "},"Ŭ":{"ha":889,"x_min":0,"x_max":0,"o":"m 446 1032 b 713 1311 625 1032 701 1176 l 557 1335 b 446 1239 542 1285 507 1239 b 335 1335 383 1239 349 1285 l 178 1311 b 446 1032 189 1176 267 1032 z m 861 969 l 540 969 l 540 340 b 444 197 540 243 515 197 b 349 340 374 197 349 243 l 349 969 l 28 969 l 28 332 b 444 -31 28 117 160 -31 b 861 332 729 -31 861 133 z "},"Ǔ":{"ha":889,"x_min":0,"x_max":0,"o":"m 638 1358 l 444 1238 l 250 1358 l 149 1240 l 353 1035 l 535 1035 l 739 1240 z m 861 969 l 540 969 l 540 340 b 444 197 540 243 515 197 b 349 340 374 197 349 243 l 349 969 l 28 969 l 28 332 b 444 -31 28 117 160 -31 b 861 332 729 -31 861 133 z "},"Û":{"ha":889,"x_min":0,"x_max":0,"o":"m 251 1042 l 446 1164 l 639 1042 l 740 1160 l 536 1365 l 354 1365 l 150 1160 z m 861 969 l 540 969 l 540 340 b 444 197 540 243 515 197 b 349 340 374 197 349 243 l 349 969 l 28 969 l 28 332 b 444 -31 28 117 160 -31 b 861 332 729 -31 861 133 z "},"Ȕ":{"ha":889,"x_min":0,"x_max":0,"o":"m 251 1407 l 67 1317 l 257 1032 l 401 1103 z m 528 1407 l 339 1325 l 518 1038 l 667 1096 z m 861 969 l 540 969 l 540 340 b 444 197 540 243 515 197 b 349 340 374 197 349 243 l 349 969 l 28 969 l 28 332 b 444 -31 28 117 160 -31 b 861 332 729 -31 861 133 z "},"Ü":{"ha":889,"x_min":0,"x_max":0,"o":"m 264 1326 b 121 1188 186 1326 121 1265 b 264 1047 121 1110 186 1047 b 408 1188 346 1047 408 1110 b 264 1326 408 1265 346 1326 z m 617 1326 b 472 1188 538 1326 472 1265 b 617 1047 472 1110 538 1047 b 760 1188 697 1047 760 1110 b 617 1326 760 1265 697 1326 z m 861 969 l 540 969 l 540 340 b 444 197 540 243 515 197 b 349 340 374 197 349 243 l 349 969 l 28 969 l 28 332 b 444 -31 28 117 160 -31 b 861 332 729 -31 861 133 z "},"Ǘ":{"ha":889,"x_min":0,"x_max":0,"o":"m 528 1632 l 326 1361 l 439 1261 l 688 1475 z m 250 1321 b 107 1182 169 1321 107 1258 b 250 1042 107 1103 169 1042 b 394 1182 329 1042 394 1103 b 250 1321 394 1258 329 1321 z m 636 1321 b 492 1182 554 1321 492 1258 b 636 1042 492 1103 554 1042 b 779 1182 714 1042 779 1103 b 636 1321 779 1258 714 1321 z m 861 969 l 540 969 l 540 340 b 444 197 540 243 515 197 b 349 340 374 197 349 243 l 349 969 l 28 969 l 28 332 b 444 -31 28 117 160 -31 b 861 332 729 -31 861 133 z "},"Ǚ":{"ha":889,"x_min":0,"x_max":0,"o":"m 636 1633 l 443 1513 l 249 1633 l 147 1515 l 351 1310 l 533 1310 l 738 1515 z m 251 1321 b 108 1182 169 1321 108 1258 b 251 1042 108 1103 169 1042 b 396 1182 331 1042 396 1103 b 251 1321 396 1258 331 1321 z m 638 1321 b 493 1182 556 1321 493 1258 b 638 1042 493 1103 556 1042 b 781 1182 715 1042 781 1103 b 638 1321 781 1258 715 1321 z m 861 969 l 540 969 l 540 340 b 444 197 540 243 515 197 b 349 340 374 197 349 243 l 349 969 l 28 969 l 28 332 b 444 -31 28 117 160 -31 b 861 332 729 -31 861 133 z "},"Ǜ":{"ha":889,"x_min":0,"x_max":0,"o":"m 361 1632 l 201 1475 l 450 1261 l 563 1361 z m 250 1321 b 107 1182 172 1321 107 1258 b 250 1042 107 1103 172 1042 b 394 1182 332 1042 394 1103 b 250 1321 394 1258 332 1321 z m 636 1321 b 492 1182 558 1321 492 1258 b 636 1042 492 1103 558 1042 b 779 1182 718 1042 779 1103 b 636 1321 779 1258 718 1321 z m 861 969 l 540 969 l 540 340 b 444 197 540 243 515 197 b 349 340 374 197 349 243 l 349 969 l 28 969 l 28 332 b 444 -31 28 117 160 -31 b 861 332 729 -31 861 133 z "},"Ǖ":{"ha":889,"x_min":0,"x_max":0,"o":"m 685 1357 l 685 1563 l 217 1563 l 217 1357 z m 268 1314 b 125 1175 190 1314 125 1253 b 268 1035 125 1097 190 1035 b 413 1175 350 1035 413 1097 b 268 1314 413 1253 350 1314 z m 621 1314 b 476 1175 542 1314 476 1253 b 621 1035 476 1097 542 1035 b 764 1175 701 1035 764 1097 b 621 1314 764 1253 701 1314 z m 861 969 l 540 969 l 540 340 b 444 197 540 243 515 197 b 349 340 374 197 349 243 l 349 969 l 28 969 l 28 332 b 444 -31 28 117 160 -31 b 861 332 729 -31 861 133 z "},"Ụ":{"ha":889,"x_min":0,"x_max":0,"o":"m 861 969 l 540 969 l 540 340 b 444 197 540 243 515 197 b 349 340 374 197 349 243 l 349 969 l 28 969 l 28 332 b 444 -31 28 117 160 -31 b 861 332 729 -31 861 133 z m 444 -387 b 614 -226 543 -387 614 -318 b 444 -65 614 -136 543 -65 b 276 -226 346 -65 276 -136 b 444 -387 276 -318 346 -387 z "},"Ù":{"ha":889,"x_min":0,"x_max":0,"o":"m 335 1390 l 226 1168 l 592 1039 l 668 1192 z m 861 969 l 540 969 l 540 340 b 444 197 540 243 515 197 b 349 340 374 197 349 243 l 349 969 l 28 969 l 28 332 b 444 -31 28 117 160 -31 b 861 332 729 -31 861 133 z "},"Ủ":{"ha":889,"x_min":0,"x_max":0,"o":"m 361 1061 l 525 1061 l 525 1113 b 646 1253 606 1129 646 1179 b 451 1408 646 1342 581 1408 b 281 1368 378 1408 324 1394 l 324 1258 b 411 1276 353 1269 375 1276 b 460 1239 440 1276 460 1263 b 361 1193 460 1208 433 1193 z m 861 969 l 540 969 l 540 340 b 444 197 540 243 515 197 b 349 340 374 197 349 243 l 349 969 l 28 969 l 28 332 b 444 -31 28 117 160 -31 b 861 332 729 -31 861 133 z "},"Ư":{"ha":1074,"x_min":0,"x_max":0,"o":"m 1075 1074 l 893 1053 b 910 965 903 1025 910 1000 b 861 881 910 913 897 888 l 861 969 l 540 969 l 540 340 b 444 197 540 243 515 197 b 349 340 374 197 349 243 l 349 969 l 28 969 l 28 332 b 444 -31 28 117 160 -31 b 861 332 729 -31 861 133 l 861 742 b 1101 943 1007 740 1101 806 b 1075 1074 1101 1010 1088 1047 z "},"Ứ":{"ha":1074,"x_min":0,"x_max":0,"o":"m 665 1168 l 560 1390 l 224 1192 l 301 1039 z m 1075 1074 l 893 1053 b 910 965 903 1025 910 1000 b 861 881 910 913 897 888 l 861 969 l 540 969 l 540 340 b 444 197 540 243 515 197 b 349 340 374 197 349 243 l 349 969 l 28 969 l 28 332 b 444 -31 28 117 160 -31 b 861 332 729 -31 861 133 l 861 742 b 1101 943 1007 740 1101 806 b 1075 1074 1101 1010 1088 1047 z "},"Ự":{"ha":1074,"x_min":0,"x_max":0,"o":"m 1075 1074 l 893 1053 b 910 965 903 1025 910 1000 b 861 881 910 913 897 888 l 861 969 l 540 969 l 540 340 b 444 197 540 243 515 197 b 349 340 374 197 349 243 l 349 969 l 28 969 l 28 332 b 444 -31 28 117 160 -31 b 861 332 729 -31 861 133 l 861 742 b 1101 943 1007 740 1101 806 b 1075 1074 1101 1010 1088 1047 z m 444 -65 b 276 -226 346 -65 276 -136 b 444 -387 276 -318 346 -387 b 614 -226 543 -387 614 -318 b 444 -65 614 -136 543 -65 z "},"Ừ":{"ha":1074,"x_min":0,"x_max":0,"o":"m 668 1192 l 335 1390 l 226 1168 l 592 1039 z m 1075 1074 l 893 1053 b 910 965 903 1025 910 1000 b 861 881 910 913 897 888 l 861 969 l 540 969 l 540 340 b 444 197 540 243 515 197 b 349 340 374 197 349 243 l 349 969 l 28 969 l 28 332 b 444 -31 28 117 160 -31 b 861 332 729 -31 861 133 l 861 742 b 1101 943 1007 740 1101 806 b 1075 1074 1101 1010 1088 1047 z "},"Ử":{"ha":1074,"x_min":0,"x_max":0,"o":"m 411 1276 b 460 1239 440 1276 460 1263 b 361 1193 460 1208 433 1193 l 361 1061 l 525 1061 l 525 1113 b 646 1253 606 1129 646 1179 b 451 1408 646 1342 581 1408 b 281 1368 378 1408 324 1394 l 324 1258 b 411 1276 353 1269 375 1276 z m 1075 1074 l 893 1053 b 910 965 903 1025 910 1000 b 861 881 910 913 897 888 l 861 969 l 540 969 l 540 340 b 444 197 540 243 515 197 b 349 340 374 197 349 243 l 349 969 l 28 969 l 28 332 b 444 -31 28 117 160 -31 b 861 332 729 -31 861 133 l 861 742 b 1101 943 1007 740 1101 806 b 1075 1074 1101 1010 1088 1047 z "},"Ữ":{"ha":1074,"x_min":0,"x_max":0,"o":"m 368 1086 b 525 1028 410 1086 438 1028 b 733 1233 626 1028 697 1126 l 593 1300 b 521 1242 571 1263 556 1242 b 360 1300 481 1242 451 1300 b 154 1096 264 1300 192 1204 l 294 1028 b 368 1086 317 1065 333 1086 z m 1075 1074 l 893 1053 b 910 965 903 1025 910 1000 b 861 881 910 913 897 888 l 861 969 l 540 969 l 540 340 b 444 197 540 243 515 197 b 349 340 374 197 349 243 l 349 969 l 28 969 l 28 332 b 444 -31 28 117 160 -31 b 861 332 729 -31 861 133 l 861 742 b 1101 943 1007 740 1101 806 b 1075 1074 1101 1010 1088 1047 z "},"Ű":{"ha":889,"x_min":0,"x_max":0,"o":"m 374 1407 l 233 1096 l 382 1038 l 561 1325 z m 649 1407 l 499 1103 l 644 1032 l 833 1317 z m 861 969 l 540 969 l 540 340 b 444 197 540 243 515 197 b 349 340 374 197 349 243 l 349 969 l 28 969 l 28 332 b 444 -31 28 117 160 -31 b 861 332 729 -31 861 133 z "},"Ȗ":{"ha":889,"x_min":0,"x_max":0,"o":"m 446 1361 b 178 1069 267 1361 189 1217 l 335 1044 b 446 1154 349 1108 383 1154 b 557 1044 507 1154 542 1108 l 713 1069 b 446 1361 701 1217 625 1361 z m 861 969 l 540 969 l 540 340 b 444 197 540 243 515 197 b 349 340 374 197 349 243 l 349 969 l 28 969 l 28 332 b 444 -31 28 117 160 -31 b 861 332 729 -31 861 133 z "},"Ū":{"ha":889,"x_min":0,"x_max":0,"o":"m 678 1069 l 678 1275 l 210 1275 l 210 1069 z m 861 969 l 540 969 l 540 340 b 444 197 540 243 515 197 b 349 340 374 197 349 243 l 349 969 l 28 969 l 28 332 b 444 -31 28 117 160 -31 b 861 332 729 -31 861 133 z "},"Ų":{"ha":889,"x_min":0,"x_max":0,"o":"m 540 969 l 540 340 b 444 197 540 243 515 197 b 349 340 374 197 349 243 l 349 969 l 28 969 l 28 332 b 371 -26 28 136 138 -3 b 275 -176 314 -60 275 -108 b 508 -360 275 -294 379 -360 b 614 -349 546 -360 583 -356 l 632 -175 b 547 -186 601 -182 572 -186 b 478 -126 506 -186 478 -168 b 608 -8 478 -99 500 -49 b 861 332 781 42 861 176 l 861 969 z "},"Ʊ":{"ha":958,"x_min":0,"x_max":0,"o":"m 479 -31 b 940 401 781 -31 940 174 b 754 751 940 563 875 679 l 911 751 l 911 969 l 539 969 l 539 768 b 608 401 586 683 608 603 b 479 194 608 271 575 194 b 350 401 383 194 350 271 b 418 768 350 603 374 683 l 418 969 l 46 969 l 46 751 l 203 751 b 17 401 85 682 17 564 b 479 -31 17 175 179 -31 z "},"Ů":{"ha":889,"x_min":0,"x_max":0,"o":"m 444 1421 b 218 1206 300 1421 218 1321 b 444 989 218 1092 300 989 b 671 1206 589 989 671 1092 b 444 1421 671 1321 589 1421 z m 444 1267 b 496 1206 474 1267 496 1250 b 444 1146 496 1163 474 1146 b 393 1206 415 1146 393 1163 b 444 1267 393 1250 415 1267 z m 861 969 l 540 969 l 540 340 b 444 197 540 243 515 197 b 349 340 374 197 349 243 l 349 969 l 28 969 l 28 332 b 444 -31 28 117 160 -31 b 861 332 729 -31 861 133 z "},"Ũ":{"ha":889,"x_min":0,"x_max":0,"o":"m 525 1028 b 733 1233 626 1028 697 1126 l 593 1300 b 521 1242 571 1263 556 1242 b 360 1300 481 1242 451 1300 b 154 1096 264 1300 192 1204 l 294 1028 b 368 1086 317 1065 333 1086 b 525 1028 410 1086 438 1028 z m 861 969 l 540 969 l 540 340 b 444 197 540 243 515 197 b 349 340 374 197 349 243 l 349 969 l 28 969 l 28 332 b 444 -31 28 117 160 -31 b 861 332 729 -31 861 133 z "},"Ṹ":{"ha":889,"x_min":0,"x_max":0,"o":"m 560 1679 l 224 1481 l 301 1328 l 665 1457 z m 525 1046 b 733 1251 626 1046 697 1144 l 593 1318 b 521 1260 571 1281 556 1260 b 360 1318 481 1260 451 1318 b 154 1114 264 1318 192 1222 l 294 1046 b 368 1104 317 1083 333 1104 b 525 1046 410 1104 438 1046 z m 861 969 l 540 969 l 540 340 b 444 197 540 243 515 197 b 349 340 374 197 349 243 l 349 969 l 28 969 l 28 332 b 444 -31 28 117 160 -31 b 861 332 729 -31 861 133 z "},"V":{"ha":811,"x_min":0,"x_max":0,"o":"m 856 969 l 526 969 l 419 211 l 293 969 l -44 969 l 204 0 l 625 0 z "},"Ʋ":{"ha":889,"x_min":0,"x_max":0,"o":"m 604 999 b 446 976 536 999 490 992 l 483 774 b 508 776 493 775 501 776 b 540 738 528 776 540 765 l 540 378 b 425 197 540 233 483 197 b 349 297 374 197 349 236 l 349 969 l 28 969 l 28 301 b 413 -31 28 108 171 -31 b 861 393 681 -31 861 118 l 861 715 b 604 999 861 914 765 999 z "},"Ʌ":{"ha":843,"x_min":0,"x_max":0,"o":"m 613 969 l 232 969 l -44 0 l 292 0 l 419 749 l 549 0 l 888 0 z "},"W":{"ha":1203,"x_min":0,"x_max":0,"o":"m 1211 969 l 901 969 l 835 228 l 772 969 l 438 969 l 354 228 l 314 969 l -8 969 l 114 0 l 522 0 l 600 671 l 665 0 l 1083 0 z "},"Ẃ":{"ha":1203,"x_min":0,"x_max":0,"o":"m 721 1390 l 385 1192 l 463 1039 l 826 1168 z m 1211 969 l 901 969 l 835 228 l 772 969 l 438 969 l 354 228 l 314 969 l -8 969 l 114 0 l 522 0 l 600 671 l 665 0 l 1083 0 z "},"Ŵ":{"ha":1203,"x_min":0,"x_max":0,"o":"m 413 1042 l 607 1164 l 800 1042 l 901 1160 l 697 1365 l 515 1365 l 311 1160 z m 1211 969 l 901 969 l 835 228 l 772 969 l 438 969 l 354 228 l 314 969 l -8 969 l 114 0 l 522 0 l 600 671 l 665 0 l 1083 0 z "},"Ẅ":{"ha":1203,"x_min":0,"x_max":0,"o":"m 425 1326 b 282 1188 347 1326 282 1265 b 425 1047 282 1110 347 1047 b 569 1188 507 1047 569 1110 b 425 1326 569 1265 507 1326 z m 778 1326 b 633 1188 699 1326 633 1265 b 778 1047 633 1110 699 1047 b 921 1188 858 1047 921 1110 b 778 1326 921 1265 858 1326 z m 1211 969 l 901 969 l 835 228 l 772 969 l 438 969 l 354 228 l 314 969 l -8 969 l 114 0 l 522 0 l 600 671 l 665 0 l 1083 0 z "},"Ẁ":{"ha":1203,"x_min":0,"x_max":0,"o":"m 496 1390 l 388 1168 l 753 1039 l 829 1192 z m 1211 969 l 901 969 l 835 228 l 772 969 l 438 969 l 354 228 l 314 969 l -8 969 l 114 0 l 522 0 l 600 671 l 665 0 l 1083 0 z "},"Ⱳ":{"ha":1321,"x_min":0,"x_max":0,"o":"m -8 969 l 314 969 l 354 228 l 438 969 l 772 969 l 835 228 l 871 700 b 1157 999 890 924 997 999 b 1354 949 1249 999 1304 979 l 1276 767 b 1213 781 1257 775 1246 781 b 1150 714 1175 781 1154 760 l 1071 0 l 665 0 l 600 671 l 522 0 l 114 0 z "},"Ƿ":{"ha":858,"x_min":0,"x_max":0,"o":"m 581 999 b 363 921 493 999 415 971 l 363 969 l 42 969 l 42 0 l 363 0 l 363 282 l 451 313 b 843 726 672 390 843 482 b 581 999 843 888 726 999 z m 364 493 l 363 492 l 363 751 b 446 781 385 768 413 781 b 517 701 488 781 517 753 b 364 493 517 624 492 554 z "},"X":{"ha":863,"x_min":0,"x_max":0,"o":"m 617 522 l 864 969 l 526 969 l 426 710 l 340 969 l -3 969 l 233 513 l -18 0 l 321 0 l 424 311 l 538 0 l 881 0 z "},"Y":{"ha":883,"x_min":0,"x_max":0,"o":"m 910 969 l 569 969 l 446 592 l 324 969 l -28 969 l 281 353 l 281 0 l 601 0 l 601 354 z "},"Ý":{"ha":883,"x_min":0,"x_max":0,"o":"m 557 1390 l 221 1192 l 299 1039 l 663 1168 z m 910 969 l 569 969 l 446 592 l 324 969 l -28 969 l 281 353 l 281 0 l 601 0 l 601 354 z "},"Ŷ":{"ha":883,"x_min":0,"x_max":0,"o":"m 249 1042 l 443 1164 l 636 1042 l 738 1160 l 533 1365 l 351 1365 l 147 1160 z m 910 969 l 569 969 l 446 592 l 324 969 l -28 969 l 281 353 l 281 0 l 601 0 l 601 354 z "},"Ÿ":{"ha":883,"x_min":0,"x_max":0,"o":"m 261 1326 b 118 1188 183 1326 118 1265 b 261 1047 118 1110 183 1047 b 406 1188 343 1047 406 1110 b 261 1326 406 1265 343 1326 z m 614 1326 b 469 1188 535 1326 469 1265 b 614 1047 469 1110 535 1047 b 757 1188 694 1047 757 1110 b 614 1326 757 1265 694 1326 z m 910 969 l 569 969 l 446 592 l 324 969 l -28 969 l 281 353 l 281 0 l 601 0 l 601 354 z "},"Ỵ":{"ha":883,"x_min":0,"x_max":0,"o":"m 910 969 l 569 969 l 446 592 l 324 969 l -28 969 l 281 353 l 281 0 l 601 0 l 601 354 z m 442 -387 b 611 -226 540 -387 611 -318 b 442 -65 611 -136 540 -65 b 274 -226 343 -65 274 -136 b 442 -387 274 -318 343 -387 z "},"Ỳ":{"ha":883,"x_min":0,"x_max":0,"o":"m 332 1390 l 224 1168 l 589 1039 l 665 1192 z m 910 969 l 569 969 l 446 592 l 324 969 l -28 969 l 281 353 l 281 0 l 601 0 l 601 354 z "},"Ƴ":{"ha":942,"x_min":0,"x_max":0,"o":"m 281 0 l 601 0 l 601 354 l 757 721 b 836 781 775 764 794 781 b 900 767 863 781 883 772 l 975 953 b 788 999 926 979 868 999 b 489 757 625 999 543 933 l 446 592 l 324 969 l -28 969 l 281 353 z "},"Ỷ":{"ha":883,"x_min":0,"x_max":0,"o":"m 358 1061 l 522 1061 l 522 1113 b 643 1253 603 1129 643 1179 b 449 1408 643 1342 578 1408 b 278 1368 375 1408 321 1394 l 321 1258 b 408 1276 350 1269 372 1276 b 457 1239 438 1276 457 1263 b 358 1193 457 1208 431 1193 z m 910 969 l 569 969 l 446 592 l 324 969 l -28 969 l 281 353 l 281 0 l 601 0 l 601 354 z "},"Ȳ":{"ha":883,"x_min":0,"x_max":0,"o":"m 675 1069 l 675 1275 l 207 1275 l 207 1069 z m 910 969 l 569 969 l 446 592 l 324 969 l -28 969 l 281 353 l 281 0 l 601 0 l 601 354 z "},"Ʀ":{"ha":872,"x_min":0,"x_max":0,"o":"m 561 -149 l 914 -149 l 685 240 b 846 504 797 315 846 386 b 419 819 846 725 704 819 l 363 819 l 363 969 l 42 969 l 42 0 l 363 0 l 363 182 l 394 182 z m 363 603 l 411 603 b 521 504 479 603 521 571 b 425 393 521 431 490 393 l 363 393 z "},"Ɏ":{"ha":885,"x_min":0,"x_max":0,"o":"m 861 868 l 913 969 l 589 969 l 554 868 l 343 868 l 308 969 l -25 969 l 26 868 l -29 868 l -29 708 l 106 708 l 283 353 l 283 0 l 604 0 l 604 354 l 782 708 l 913 708 l 913 868 z m 447 558 l 397 708 l 499 708 z "},"Ỹ":{"ha":883,"x_min":0,"x_max":0,"o":"m 522 1028 b 731 1233 624 1028 694 1126 l 590 1300 b 518 1242 568 1263 553 1242 b 357 1300 478 1242 449 1300 b 151 1096 261 1300 189 1204 l 292 1028 b 365 1086 314 1065 331 1086 b 522 1028 407 1086 435 1028 z m 910 969 l 569 969 l 446 592 l 324 969 l -28 969 l 281 353 l 281 0 l 601 0 l 601 354 z "},"Z":{"ha":785,"x_min":0,"x_max":0,"o":"m 758 969 l 44 969 l 44 728 l 386 728 l 7 233 l 7 0 l 743 0 l 774 249 l 393 249 l 758 732 z "},"Ź":{"ha":785,"x_min":0,"x_max":0,"o":"m 506 1390 l 169 1192 l 247 1039 l 611 1168 z m 758 969 l 44 969 l 44 728 l 386 728 l 7 233 l 7 0 l 743 0 l 774 249 l 393 249 l 758 732 z "},"Ž":{"ha":785,"x_min":0,"x_max":0,"o":"m 583 1358 l 390 1238 l 196 1358 l 94 1240 l 299 1035 l 481 1035 l 685 1240 z m 758 969 l 44 969 l 44 728 l 386 728 l 7 233 l 7 0 l 743 0 l 774 249 l 393 249 l 758 732 z "},"Ż":{"ha":785,"x_min":0,"x_max":0,"o":"m 392 1342 b 222 1181 293 1342 222 1272 b 392 1019 222 1090 293 1019 b 560 1181 490 1019 560 1090 b 392 1342 560 1272 490 1342 z m 758 969 l 44 969 l 44 728 l 386 728 l 7 233 l 7 0 l 743 0 l 774 249 l 393 249 l 758 732 z "},"Ẓ":{"ha":785,"x_min":0,"x_max":0,"o":"m 758 969 l 44 969 l 44 728 l 386 728 l 7 233 l 7 0 l 743 0 l 774 249 l 393 249 l 758 732 z m 375 -387 b 544 -226 474 -387 544 -318 b 375 -65 544 -136 474 -65 b 207 -226 276 -65 207 -136 b 375 -387 207 -318 276 -387 z "},"Ȥ":{"ha":769,"x_min":0,"x_max":0,"o":"m 393 249 l 758 732 l 758 969 l 44 969 l 44 728 l 386 728 l 7 233 l 7 0 l 454 0 l 454 -29 b 381 -97 454 -74 429 -97 b 281 -69 336 -97 314 -86 l 182 -256 b 414 -319 236 -293 308 -319 b 760 -10 619 -319 760 -217 l 760 249 z "},"Ƶ":{"ha":785,"x_min":0,"x_max":0,"o":"m 361 249 l 476 394 l 696 394 l 696 571 l 617 571 l 758 750 l 758 969 l 44 969 l 44 728 l 419 728 l 293 571 l 47 571 l 47 394 l 150 394 l 7 217 l 7 0 l 743 0 l 774 249 z "},"ʙ":{"ha":763,"x_min":0,"x_max":0,"o":"m 561 413 b 722 572 669 432 722 490 b 382 774 722 710 594 774 b 42 738 276 774 176 761 l 42 0 l 401 0 b 751 224 610 0 751 71 b 561 413 751 326 696 394 z m 374 594 b 424 528 407 594 424 567 b 369 463 424 489 404 463 l 350 463 l 350 594 z m 388 188 l 350 188 l 350 326 l 386 326 b 439 257 419 326 439 299 b 388 188 439 217 429 188 z "},"ɢ":{"ha":778,"x_min":0,"x_max":0,"o":"m 429 774 b 11 376 183 774 11 621 b 414 -28 11 106 133 -28 b 764 75 553 -28 675 19 l 764 451 l 394 451 l 422 263 l 481 263 l 481 190 b 419 182 461 185 442 182 b 326 375 361 182 326 214 b 453 568 326 489 354 568 b 611 513 511 568 560 547 l 750 661 b 429 774 678 724 579 774 z "},"ʛ":{"ha":778,"x_min":0,"x_max":0,"o":"m 754 1065 b 493 810 568 1065 493 964 l 493 761 b 390 774 463 769 431 774 b 11 376 183 774 11 621 b 419 -28 11 113 133 -28 b 764 75 561 -28 681 13 l 764 451 l 394 451 l 422 263 l 481 263 l 481 190 b 419 182 461 185 442 182 b 326 375 361 182 326 214 b 457 568 326 489 356 568 b 626 528 526 568 567 554 l 750 661 l 750 778 b 806 847 750 825 764 847 b 890 825 832 847 858 839 l 967 1014 b 754 1065 917 1043 847 1065 z "},"ʜ":{"ha":806,"x_min":0,"x_max":0,"o":"m 456 0 l 764 0 l 764 744 l 456 744 l 456 485 l 350 485 l 350 744 l 42 744 l 42 0 l 350 0 l 350 267 l 456 267 z "},"ɪ":{"ha":475,"x_min":0,"x_max":0,"o":"m 465 532 l 465 744 l 10 744 l 10 532 l 83 532 l 83 215 l 10 215 l 10 0 l 465 0 l 465 215 l 392 215 l 392 532 z "},"ʟ":{"ha":644,"x_min":0,"x_max":0,"o":"m 350 744 l 42 744 l 42 0 l 610 0 l 640 228 l 350 228 z "},"ɴ":{"ha":806,"x_min":0,"x_max":0,"o":"m 764 744 l 496 744 l 496 651 b 546 254 496 481 518 399 l 396 744 l 42 744 l 42 0 l 310 0 l 310 131 b 260 492 310 278 282 396 l 404 0 l 764 0 z "},"ɶ":{"ha":1086,"x_min":0,"x_max":0,"o":"m 774 288 l 774 278 l 1011 278 l 1011 474 l 774 474 l 774 461 b 739 542 765 490 753 517 l 1042 542 l 1072 744 l 565 744 b 406 774 515 761 461 774 b 11 374 163 774 11 619 b 406 -31 11 110 167 -31 b 565 0 461 -31 517 -19 l 1058 0 l 1058 204 l 736 204 b 774 288 751 229 765 257 z m 406 189 b 325 374 347 189 325 236 b 406 556 325 503 347 556 b 482 374 463 556 482 508 b 406 189 482 242 468 189 z "},"ʀ":{"ha":740,"x_min":0,"x_max":0,"o":"m 463 0 l 776 0 l 614 274 b 714 481 685 318 714 394 b 371 744 714 667 589 744 l 42 744 l 42 0 l 333 0 l 333 229 l 354 229 z m 333 561 l 364 561 b 422 483 401 561 422 551 b 354 396 422 414 403 396 l 333 396 z "},"ʁ":{"ha":740,"x_min":0,"x_max":0,"o":"m 614 469 l 776 744 l 463 744 l 353 514 l 333 514 l 333 744 l 42 744 l 42 0 l 371 0 b 714 267 589 0 714 78 b 614 469 714 349 685 424 z m 364 182 l 333 182 l 333 347 l 354 347 b 422 265 403 347 422 331 b 364 182 422 192 401 182 z "},"ʏ":{"ha":744,"x_min":0,"x_max":0,"o":"m 779 744 l 460 744 l 376 447 l 294 744 l -35 744 l 218 258 l 218 0 l 526 0 l 526 260 z "},"a":{"ha":768,"x_min":0,"x_max":0,"o":"m 717 256 l 717 493 b 367 774 717 683 617 774 b 64 714 281 774 158 753 l 131 521 b 321 560 204 546 281 560 b 417 476 399 560 417 544 l 417 467 l 378 467 b 11 210 138 467 11 375 b 258 -31 11 71 110 -31 b 483 78 342 -31 428 -6 b 696 -24 529 7 597 -17 l 758 172 b 717 256 725 185 717 206 z m 356 185 b 310 240 329 185 310 208 b 403 310 310 289 339 310 l 417 310 l 417 215 b 356 185 403 199 381 185 z "},"á":{"ha":768,"x_min":0,"x_max":0,"o":"m 593 985 l 481 1206 l 151 997 l 233 843 z m 717 256 l 717 493 b 367 774 717 683 617 774 b 64 714 281 774 158 753 l 131 521 b 321 560 204 546 281 560 b 417 476 399 560 417 544 l 417 467 l 378 467 b 11 210 138 467 11 375 b 258 -31 11 71 110 -31 b 483 78 342 -31 428 -6 b 696 -24 529 7 597 -17 l 758 172 b 717 256 725 185 717 206 z m 356 185 b 310 240 329 185 310 208 b 403 310 310 289 339 310 l 417 310 l 417 215 b 356 185 403 199 381 185 z "},"ă":{"ha":768,"x_min":0,"x_max":0,"o":"m 392 864 b 658 1156 571 864 647 1008 l 503 1181 b 392 1071 488 1117 453 1071 b 281 1181 329 1071 294 1117 l 124 1156 b 392 864 135 1008 213 864 z m 717 256 l 717 493 b 367 774 717 683 617 774 b 64 714 281 774 158 753 l 131 521 b 321 560 204 546 281 560 b 417 476 399 560 417 544 l 417 467 l 378 467 b 11 210 138 467 11 375 b 258 -31 11 71 110 -31 b 483 78 342 -31 428 -6 b 696 -24 529 7 597 -17 l 758 172 b 717 256 725 185 717 206 z m 356 185 b 310 240 329 185 310 208 b 403 310 310 289 339 310 l 417 310 l 417 215 b 356 185 403 199 381 185 z "},"ắ":{"ha":768,"x_min":0,"x_max":0,"o":"m 646 1321 l 486 1478 l 285 1207 l 397 1107 z m 393 839 b 660 1118 572 839 649 983 l 504 1142 b 393 1046 489 1092 454 1046 b 282 1142 331 1046 296 1092 l 125 1118 b 393 839 136 983 214 839 z m 717 256 l 717 493 b 367 774 717 683 617 774 b 64 714 281 774 158 753 l 131 521 b 321 560 204 546 281 560 b 417 476 399 560 417 544 l 417 467 l 378 467 b 11 210 138 467 11 375 b 258 -31 11 71 110 -31 b 483 78 342 -31 428 -6 b 696 -24 529 7 597 -17 l 758 172 b 717 256 725 185 717 206 z m 356 185 b 310 240 329 185 310 208 b 403 310 310 289 339 310 l 417 310 l 417 215 b 356 185 403 199 381 185 z "},"ặ":{"ha":768,"x_min":0,"x_max":0,"o":"m 392 864 b 658 1156 571 864 647 1008 l 503 1181 b 392 1071 488 1117 453 1071 b 281 1181 329 1071 294 1117 l 124 1156 b 392 864 135 1008 213 864 z m 717 256 l 717 493 b 367 774 717 683 617 774 b 64 714 281 774 158 753 l 131 521 b 321 560 204 546 281 560 b 417 476 399 560 417 544 l 417 467 l 378 467 b 11 210 138 467 11 375 b 258 -31 11 71 110 -31 b 483 78 342 -31 428 -6 b 696 -24 529 7 597 -17 l 758 172 b 717 256 725 185 717 206 z m 356 185 b 310 240 329 185 310 208 b 403 310 310 289 339 310 l 417 310 l 417 215 b 356 185 403 199 381 185 z m 390 -65 b 222 -226 292 -65 222 -136 b 390 -387 222 -318 292 -387 b 560 -226 489 -387 560 -318 b 390 -65 560 -136 489 -65 z "},"ằ":{"ha":768,"x_min":0,"x_max":0,"o":"m 490 1207 l 289 1478 l 129 1321 l 378 1107 z m 393 839 b 660 1118 572 839 649 983 l 504 1142 b 393 1046 489 1092 454 1046 b 282 1142 331 1046 296 1092 l 125 1118 b 393 839 136 983 214 839 z m 717 256 l 717 493 b 367 774 717 683 617 774 b 64 714 281 774 158 753 l 131 521 b 321 560 204 546 281 560 b 417 476 399 560 417 544 l 417 467 l 378 467 b 11 210 138 467 11 375 b 258 -31 11 71 110 -31 b 483 78 342 -31 428 -6 b 696 -24 529 7 597 -17 l 758 172 b 717 256 725 185 717 206 z m 356 185 b 310 240 329 185 310 208 b 403 310 310 289 339 310 l 417 310 l 417 215 b 356 185 403 199 381 185 z "},"ẳ":{"ha":768,"x_min":0,"x_max":0,"o":"m 361 1353 b 410 1317 390 1353 410 1339 b 311 1271 410 1286 383 1271 l 311 1125 l 475 1125 l 475 1190 b 596 1329 556 1206 596 1256 b 401 1485 596 1418 531 1485 b 231 1444 328 1485 274 1471 l 274 1335 b 361 1353 303 1346 325 1353 z m 393 839 b 660 1118 572 839 649 983 l 504 1142 b 393 1046 489 1092 454 1046 b 282 1142 331 1046 296 1092 l 125 1118 b 393 839 136 983 214 839 z m 717 256 l 717 493 b 367 774 717 683 617 774 b 64 714 281 774 158 753 l 131 521 b 321 560 204 546 281 560 b 417 476 399 560 417 544 l 417 467 l 378 467 b 11 210 138 467 11 375 b 258 -31 11 71 110 -31 b 483 78 342 -31 428 -6 b 696 -24 529 7 597 -17 l 758 172 b 717 256 725 185 717 206 z m 356 185 b 310 240 329 185 310 208 b 403 310 310 289 339 310 l 417 310 l 417 215 b 356 185 403 199 381 185 z "},"ẵ":{"ha":768,"x_min":0,"x_max":0,"o":"m 314 1229 b 471 1178 356 1229 383 1178 b 679 1358 572 1178 643 1264 l 539 1417 b 467 1365 517 1383 501 1365 b 306 1417 426 1365 397 1417 b 100 1238 210 1417 138 1332 l 240 1178 b 314 1229 263 1210 279 1229 z m 389 1046 b 278 1142 326 1046 292 1092 l 121 1118 b 389 839 132 983 210 839 b 656 1118 568 839 644 983 l 500 1142 b 389 1046 485 1092 450 1046 z m 717 256 l 717 493 b 367 774 717 683 617 774 b 64 714 281 774 158 753 l 131 521 b 321 560 204 546 281 560 b 417 476 399 560 417 544 l 417 467 l 378 467 b 11 210 138 467 11 375 b 258 -31 11 71 110 -31 b 483 78 342 -31 428 -6 b 696 -24 529 7 597 -17 l 758 172 b 717 256 725 185 717 206 z m 356 185 b 310 240 329 185 310 208 b 403 310 310 289 339 310 l 417 310 l 417 215 b 356 185 403 199 381 185 z "},"ǎ":{"ha":768,"x_min":0,"x_max":0,"o":"m 481 828 l 685 1050 l 583 1167 l 390 1029 l 196 1167 l 94 1050 l 299 828 z m 717 256 l 717 493 b 367 774 717 683 617 774 b 64 714 281 774 158 753 l 131 521 b 321 560 204 546 281 560 b 417 476 399 560 417 544 l 417 467 l 378 467 b 11 210 138 467 11 375 b 258 -31 11 71 110 -31 b 483 78 342 -31 428 -6 b 696 -24 529 7 597 -17 l 758 172 b 717 256 725 185 717 206 z m 356 185 b 310 240 329 185 310 208 b 403 310 310 289 339 310 l 417 310 l 417 215 b 356 185 403 199 381 185 z "},"â":{"ha":768,"x_min":0,"x_max":0,"o":"m 390 981 l 583 843 l 685 960 l 481 1182 l 299 1182 l 94 960 l 196 843 z m 717 256 l 717 493 b 367 774 717 683 617 774 b 64 714 281 774 158 753 l 131 521 b 321 560 204 546 281 560 b 417 476 399 560 417 544 l 417 467 l 378 467 b 11 210 138 467 11 375 b 258 -31 11 71 110 -31 b 483 78 342 -31 428 -6 b 696 -24 529 7 597 -17 l 758 172 b 717 256 725 185 717 206 z m 356 185 b 310 240 329 185 310 208 b 403 310 310 289 339 310 l 417 310 l 417 215 b 356 185 403 199 381 185 z "},"ấ":{"ha":768,"x_min":0,"x_max":0,"o":"m 911 1258 l 751 1415 l 550 1144 l 663 1044 z m 393 928 l 586 806 l 688 924 l 483 1129 l 301 1129 l 97 924 l 199 806 z m 717 256 l 717 493 b 367 774 717 683 617 774 b 64 714 281 774 158 753 l 131 521 b 321 560 204 546 281 560 b 417 476 399 560 417 544 l 417 467 l 378 467 b 11 210 138 467 11 375 b 258 -31 11 71 110 -31 b 483 78 342 -31 428 -6 b 696 -24 529 7 597 -17 l 758 172 b 717 256 725 185 717 206 z m 356 185 b 310 240 329 185 310 208 b 403 310 310 289 339 310 l 417 310 l 417 215 b 356 185 403 199 381 185 z "},"ậ":{"ha":768,"x_min":0,"x_max":0,"o":"m 390 981 l 583 843 l 685 960 l 481 1182 l 299 1182 l 94 960 l 196 843 z m 717 256 l 717 493 b 367 774 717 683 617 774 b 64 714 281 774 158 753 l 131 521 b 321 560 204 546 281 560 b 417 476 399 560 417 544 l 417 467 l 378 467 b 11 210 138 467 11 375 b 258 -31 11 71 110 -31 b 483 78 342 -31 428 -6 b 696 -24 529 7 597 -17 l 758 172 b 717 256 725 185 717 206 z m 356 185 b 310 240 329 185 310 208 b 403 310 310 289 339 310 l 417 310 l 417 215 b 356 185 403 199 381 185 z m 390 -65 b 222 -226 292 -65 222 -136 b 390 -387 222 -318 292 -387 b 560 -226 489 -387 560 -318 b 390 -65 560 -136 489 -65 z "},"ầ":{"ha":768,"x_min":0,"x_max":0,"o":"m 239 1144 l 38 1415 l -122 1258 l 126 1044 z m 199 806 l 393 928 l 586 806 l 688 924 l 483 1129 l 301 1129 l 97 924 z m 717 256 l 717 493 b 367 774 717 683 617 774 b 64 714 281 774 158 753 l 131 521 b 321 560 204 546 281 560 b 417 476 399 560 417 544 l 417 467 l 378 467 b 11 210 138 467 11 375 b 258 -31 11 71 110 -31 b 483 78 342 -31 428 -6 b 696 -24 529 7 597 -17 l 758 172 b 717 256 725 185 717 206 z m 356 185 b 310 240 329 185 310 208 b 403 310 310 289 339 310 l 417 310 l 417 215 b 356 185 403 199 381 185 z "},"ẩ":{"ha":768,"x_min":0,"x_max":0,"o":"m 618 1457 b 447 1417 544 1457 490 1443 l 490 1307 b 578 1325 519 1318 542 1325 b 626 1289 607 1325 626 1311 b 528 1243 626 1258 600 1243 l 528 1097 l 692 1097 l 692 1163 b 813 1301 772 1178 813 1228 b 618 1457 813 1390 747 1457 z m 393 928 l 586 806 l 688 924 l 483 1129 l 301 1129 l 97 924 l 199 806 z m 717 256 l 717 493 b 367 774 717 683 617 774 b 64 714 281 774 158 753 l 131 521 b 321 560 204 546 281 560 b 417 476 399 560 417 544 l 417 467 l 378 467 b 11 210 138 467 11 375 b 258 -31 11 71 110 -31 b 483 78 342 -31 428 -6 b 696 -24 529 7 597 -17 l 758 172 b 717 256 725 185 717 206 z m 356 185 b 310 240 329 185 310 208 b 403 310 310 289 339 310 l 417 310 l 417 215 b 356 185 403 199 381 185 z "},"ẫ":{"ha":768,"x_min":0,"x_max":0,"o":"m 314 1219 b 471 1168 356 1219 383 1168 b 679 1349 572 1168 643 1254 l 539 1407 b 467 1356 517 1374 501 1356 b 306 1407 426 1356 397 1407 b 100 1228 210 1407 138 1322 l 240 1168 b 314 1219 263 1200 279 1219 z m 393 931 l 586 808 l 688 926 l 483 1132 l 301 1132 l 97 926 l 199 808 z m 717 256 l 717 493 b 367 774 717 683 617 774 b 64 714 281 774 158 753 l 131 521 b 321 560 204 546 281 560 b 417 476 399 560 417 544 l 417 467 l 378 467 b 11 210 138 467 11 375 b 258 -31 11 71 110 -31 b 483 78 342 -31 428 -6 b 696 -24 529 7 597 -17 l 758 172 b 717 256 725 185 717 206 z m 356 185 b 310 240 329 185 310 208 b 403 310 310 289 339 310 l 417 310 l 417 215 b 356 185 403 199 381 185 z "},"ȁ":{"ha":768,"x_min":0,"x_max":0,"o":"m 368 928 l 218 1232 l 33 1142 l 224 857 z m 633 921 l 494 1232 l 306 1150 l 485 863 z m 717 256 l 717 493 b 367 774 717 683 617 774 b 64 714 281 774 158 753 l 131 521 b 321 560 204 546 281 560 b 417 476 399 560 417 544 l 417 467 l 378 467 b 11 210 138 467 11 375 b 258 -31 11 71 110 -31 b 483 78 342 -31 428 -6 b 696 -24 529 7 597 -17 l 758 172 b 717 256 725 185 717 206 z m 356 185 b 310 240 329 185 310 208 b 403 310 310 289 339 310 l 417 310 l 417 215 b 356 185 403 199 381 185 z "},"ä":{"ha":768,"x_min":0,"x_max":0,"o":"m 214 872 b 358 1013 296 872 358 935 b 214 1151 358 1090 296 1151 b 71 1013 136 1151 71 1090 b 214 872 71 935 136 872 z m 567 872 b 710 1013 647 872 710 935 b 567 1151 710 1090 647 1151 b 422 1013 488 1151 422 1090 b 567 872 422 935 488 872 z m 717 256 l 717 493 b 367 774 717 683 617 774 b 64 714 281 774 158 753 l 131 521 b 321 560 204 546 281 560 b 417 476 399 560 417 544 l 417 467 l 378 467 b 11 210 138 467 11 375 b 258 -31 11 71 110 -31 b 483 78 342 -31 428 -6 b 696 -24 529 7 597 -17 l 758 172 b 717 256 725 185 717 206 z m 356 185 b 310 240 329 185 310 208 b 403 310 310 289 339 310 l 417 310 l 417 215 b 356 185 403 199 381 185 z "},"ǟ":{"ha":768,"x_min":0,"x_max":0,"o":"m 622 1332 l 154 1332 l 154 1126 l 622 1126 z m 211 806 b 356 946 293 806 356 868 b 211 1085 356 1024 293 1085 b 68 946 133 1085 68 1024 b 211 806 68 868 133 806 z m 419 946 b 564 806 419 868 485 806 b 707 946 644 806 707 868 b 564 1085 707 1024 644 1085 b 419 946 485 1085 419 1024 z m 717 256 l 717 493 b 367 774 717 683 617 774 b 64 714 281 774 158 753 l 131 521 b 321 560 204 546 281 560 b 417 476 399 560 417 544 l 417 467 l 378 467 b 11 210 138 467 11 375 b 258 -31 11 71 110 -31 b 483 78 342 -31 428 -6 b 696 -24 529 7 597 -17 l 758 172 b 717 256 725 185 717 206 z m 356 185 b 310 240 329 185 310 208 b 403 310 310 289 339 310 l 417 310 l 417 215 b 356 185 403 199 381 185 z "},"ȧ":{"ha":768,"x_min":0,"x_max":0,"o":"m 392 844 b 560 1006 490 844 560 915 b 392 1167 560 1097 490 1167 b 222 1006 293 1167 222 1097 b 392 844 222 915 293 844 z m 717 256 l 717 493 b 367 774 717 683 617 774 b 64 714 281 774 158 753 l 131 521 b 321 560 204 546 281 560 b 417 476 399 560 417 544 l 417 467 l 378 467 b 11 210 138 467 11 375 b 258 -31 11 71 110 -31 b 483 78 342 -31 428 -6 b 696 -24 529 7 597 -17 l 758 172 b 717 256 725 185 717 206 z m 356 185 b 310 240 329 185 310 208 b 403 310 310 289 339 310 l 417 310 l 417 215 b 356 185 403 199 381 185 z "},"ạ":{"ha":768,"x_min":0,"x_max":0,"o":"m 717 256 l 717 493 b 367 774 717 683 617 774 b 64 714 281 774 158 753 l 131 521 b 321 560 204 546 281 560 b 417 476 399 560 417 544 l 417 467 l 378 467 b 11 210 138 467 11 375 b 258 -31 11 71 110 -31 b 483 78 342 -31 428 -6 b 696 -24 529 7 597 -17 l 758 172 b 717 256 725 185 717 206 z m 356 185 b 310 240 329 185 310 208 b 403 310 310 289 339 310 l 417 310 l 417 215 b 356 185 403 199 381 185 z m 390 -65 b 222 -226 292 -65 222 -136 b 390 -387 222 -318 292 -387 b 560 -226 489 -387 560 -318 b 390 -65 560 -136 489 -65 z "},"ǡ":{"ha":768,"x_min":0,"x_max":0,"o":"m 624 1369 l 156 1369 l 156 1164 l 624 1164 z m 222 971 b 392 810 222 881 293 810 b 560 971 490 810 560 881 b 392 1132 560 1063 490 1132 b 222 971 293 1132 222 1063 z m 717 256 l 717 493 b 367 774 717 683 617 774 b 64 714 281 774 158 753 l 131 521 b 321 560 204 546 281 560 b 417 476 399 560 417 544 l 417 467 l 378 467 b 11 210 138 467 11 375 b 258 -31 11 71 110 -31 b 483 78 342 -31 428 -6 b 696 -24 529 7 597 -17 l 758 172 b 717 256 725 185 717 206 z m 356 185 b 310 240 329 185 310 208 b 403 310 310 289 339 310 l 417 310 l 417 215 b 356 185 403 199 381 185 z "},"à":{"ha":768,"x_min":0,"x_max":0,"o":"m 625 997 l 296 1206 l 183 985 l 544 843 z m 717 256 l 717 493 b 367 774 717 683 617 774 b 64 714 281 774 158 753 l 131 521 b 321 560 204 546 281 560 b 417 476 399 560 417 544 l 417 467 l 378 467 b 11 210 138 467 11 375 b 258 -31 11 71 110 -31 b 483 78 342 -31 428 -6 b 696 -24 529 7 597 -17 l 758 172 b 717 256 725 185 717 206 z m 356 185 b 310 240 329 185 310 208 b 403 310 310 289 339 310 l 417 310 l 417 215 b 356 185 403 199 381 185 z "},"ả":{"ha":768,"x_min":0,"x_max":0,"o":"m 357 1060 b 406 1024 386 1060 406 1046 b 307 978 406 993 379 978 l 307 832 l 471 832 l 471 897 b 592 1036 551 913 592 963 b 397 1192 592 1125 526 1192 b 226 1151 324 1192 269 1178 l 269 1042 b 357 1060 299 1053 321 1060 z m 717 256 l 717 493 b 367 774 717 683 617 774 b 64 714 281 774 158 753 l 131 521 b 321 560 204 546 281 560 b 417 476 399 560 417 544 l 417 467 l 378 467 b 11 210 138 467 11 375 b 258 -31 11 71 110 -31 b 483 78 342 -31 428 -6 b 696 -24 529 7 597 -17 l 758 172 b 717 256 725 185 717 206 z m 356 185 b 310 240 329 185 310 208 b 403 310 310 289 339 310 l 417 310 l 417 215 b 356 185 403 199 381 185 z "},"ȃ":{"ha":768,"x_min":0,"x_max":0,"o":"m 392 929 b 503 819 453 929 488 883 l 658 844 b 392 1136 647 992 571 1136 b 124 844 213 1136 135 992 l 281 819 b 392 929 294 883 329 929 z m 717 256 l 717 493 b 367 774 717 683 617 774 b 64 714 281 774 158 753 l 131 521 b 321 560 204 546 281 560 b 417 476 399 560 417 544 l 417 467 l 378 467 b 11 210 138 467 11 375 b 258 -31 11 71 110 -31 b 483 78 342 -31 428 -6 b 696 -24 529 7 597 -17 l 758 172 b 717 256 725 185 717 206 z m 356 185 b 310 240 329 185 310 208 b 403 310 310 289 339 310 l 417 310 l 417 215 b 356 185 403 199 381 185 z "},"ɑ":{"ha":826,"x_min":0,"x_max":0,"o":"m 781 300 l 781 744 l 510 744 l 497 700 b 329 774 449 754 386 774 b 11 378 132 774 11 610 b 297 -31 11 129 103 -31 b 519 82 394 -31 467 21 b 750 -31 564 18 636 -17 l 836 188 b 781 300 793 211 781 240 z m 397 189 b 325 374 365 189 325 200 b 407 557 325 515 361 557 b 472 525 433 557 451 546 l 472 243 b 397 189 450 204 422 189 z "},"ɒ":{"ha":826,"x_min":0,"x_max":0,"o":"m 529 775 b 307 663 432 775 360 724 b 76 775 263 726 190 761 l -10 557 b 46 444 33 533 46 504 l 46 0 l 317 0 l 329 44 b 497 -29 378 -10 440 -29 b 815 367 694 -29 815 135 b 529 775 815 615 724 775 z m 419 188 b 354 219 393 188 375 199 l 354 501 b 429 556 376 540 404 556 b 501 371 461 556 501 544 b 419 188 501 229 465 188 z "},"ā":{"ha":768,"x_min":0,"x_max":0,"o":"m 624 1100 l 156 1100 l 156 894 l 624 894 z m 717 256 l 717 493 b 367 774 717 683 617 774 b 64 714 281 774 158 753 l 131 521 b 321 560 204 546 281 560 b 417 476 399 560 417 544 l 417 467 l 378 467 b 11 210 138 467 11 375 b 258 -31 11 71 110 -31 b 483 78 342 -31 428 -6 b 696 -24 529 7 597 -17 l 758 172 b 717 256 725 185 717 206 z m 356 185 b 310 240 329 185 310 208 b 403 310 310 289 339 310 l 417 310 l 417 215 b 356 185 403 199 381 185 z "},"ą":{"ha":768,"x_min":0,"x_max":0,"o":"m 696 -24 l 758 172 b 717 256 725 185 717 206 l 717 493 b 367 774 717 683 617 774 b 64 714 281 774 158 753 l 131 521 b 321 560 204 546 281 560 b 417 476 399 560 417 544 l 417 467 l 378 467 b 11 210 138 467 11 375 b 258 -31 11 71 110 -31 b 483 78 342 -31 428 -6 b 526 29 496 58 510 43 b 336 -200 417 -17 336 -86 b 569 -383 336 -318 440 -383 b 675 -372 607 -383 644 -379 l 693 -199 b 608 -210 664 -206 635 -210 b 539 -150 567 -210 539 -192 b 696 -24 539 -119 565 -64 z m 356 185 b 310 240 329 185 310 208 b 403 310 310 289 339 310 l 417 310 l 417 215 b 356 185 403 199 381 185 z "},"å":{"ha":768,"x_min":0,"x_max":0,"o":"m 390 814 b 617 1031 535 814 617 917 b 390 1246 617 1146 535 1246 b 164 1031 246 1246 164 1146 b 390 814 164 917 246 814 z m 390 1092 b 442 1031 419 1092 442 1075 b 390 971 442 988 419 971 b 339 1031 361 971 339 988 b 390 1092 339 1075 361 1092 z m 717 256 l 717 493 b 367 774 717 683 617 774 b 64 714 281 774 158 753 l 131 521 b 321 560 204 546 281 560 b 417 476 399 560 417 544 l 417 467 l 378 467 b 11 210 138 467 11 375 b 258 -31 11 71 110 -31 b 483 78 342 -31 428 -6 b 696 -24 529 7 597 -17 l 758 172 b 717 256 725 185 717 206 z m 356 185 b 310 240 329 185 310 208 b 403 310 310 289 339 310 l 417 310 l 417 215 b 356 185 403 199 381 185 z "},"ǻ":{"ha":768,"x_min":0,"x_max":0,"o":"m 611 1358 l 506 1581 l 169 1382 l 247 1229 z m 388 793 b 614 1010 532 793 614 896 b 388 1225 614 1125 532 1225 b 161 1010 243 1225 161 1125 b 388 793 161 896 243 793 z m 388 1071 b 439 1010 417 1071 439 1054 b 388 950 439 967 417 950 b 336 1010 358 950 336 967 b 388 1071 336 1054 358 1071 z m 717 256 l 717 493 b 367 774 717 683 617 774 b 64 714 281 774 158 753 l 131 521 b 321 560 204 546 281 560 b 417 476 399 560 417 544 l 417 467 l 378 467 b 11 210 138 467 11 375 b 258 -31 11 71 110 -31 b 483 78 342 -31 428 -6 b 696 -24 529 7 597 -17 l 758 172 b 717 256 725 185 717 206 z m 356 185 b 310 240 329 185 310 208 b 403 310 310 289 339 310 l 417 310 l 417 215 b 356 185 403 199 381 185 z "},"ⱥ":{"ha":768,"x_min":0,"x_max":0,"o":"m 717 256 l 717 493 b 511 760 717 642 656 729 l 525 824 l 440 842 l 425 772 b 367 774 406 774 388 774 b 64 714 281 774 158 753 l 131 546 b 372 585 204 571 314 585 l 382 585 l 351 449 b 11 210 128 442 11 353 b 244 -31 11 75 103 -24 l 231 -90 l 318 -110 l 338 -22 b 483 78 393 -8 446 21 b 696 -24 529 7 597 -17 l 758 172 b 717 256 725 185 717 206 z m 468 501 l 468 449 l 442 449 l 464 544 b 468 501 467 533 468 519 z m 381 174 l 411 310 l 468 310 l 468 208 b 381 174 440 194 411 181 z m 275 232 b 318 301 275 269 288 290 l 292 183 b 275 232 281 194 275 211 z "},"ã":{"ha":768,"x_min":0,"x_max":0,"o":"m 314 911 b 471 853 356 911 383 853 b 679 1058 572 853 643 951 l 539 1125 b 467 1067 517 1088 501 1067 b 306 1125 426 1067 397 1125 b 100 921 210 1125 138 1029 l 240 853 b 314 911 263 890 279 911 z m 717 256 l 717 493 b 367 774 717 683 617 774 b 64 714 281 774 158 753 l 131 521 b 321 560 204 546 281 560 b 417 476 399 560 417 544 l 417 467 l 378 467 b 11 210 138 467 11 375 b 258 -31 11 71 110 -31 b 483 78 342 -31 428 -6 b 696 -24 529 7 597 -17 l 758 172 b 717 256 725 185 717 206 z m 356 185 b 310 240 329 185 310 208 b 403 310 310 289 339 310 l 417 310 l 417 215 b 356 185 403 199 381 185 z "},"ɐ":{"ha":768,"x_min":0,"x_max":0,"o":"m 447 185 b 351 268 369 185 351 200 l 351 278 l 390 278 b 757 535 631 278 757 369 b 510 775 757 674 658 775 b 285 667 426 775 340 750 b 72 768 239 738 171 761 l 10 572 b 51 489 43 560 51 539 l 51 251 b 401 -29 51 61 151 -29 b 704 31 488 -29 610 -8 l 638 224 b 447 185 564 199 488 185 z m 413 560 b 458 504 439 560 458 536 b 365 435 458 456 429 435 l 351 435 l 351 529 b 413 560 365 546 388 560 z "},"æ":{"ha":1196,"x_min":0,"x_max":0,"o":"m 1192 379 b 840 774 1192 633 1038 774 b 611 693 743 774 668 743 b 379 774 561 743 489 774 b 76 714 293 774 171 753 l 143 517 b 333 556 217 542 293 556 b 429 472 411 556 429 540 l 429 467 l 390 467 b 11 210 138 467 11 375 b 264 -31 11 71 107 -31 b 526 89 360 -31 463 -3 b 847 -31 594 18 701 -31 b 1164 83 982 -31 1090 24 l 1040 250 b 878 185 976 206 925 185 b 740 286 804 185 756 196 l 1186 286 b 1192 379 1189 315 1192 356 z m 889 456 l 738 456 b 821 585 746 557 769 585 b 889 465 881 585 888 525 z m 374 185 b 331 233 346 185 331 207 b 419 301 331 286 360 301 l 436 301 l 436 294 b 446 235 438 275 440 254 b 374 185 425 210 406 185 z "},"ǽ":{"ha":1196,"x_min":0,"x_max":0,"o":"m 801 985 l 689 1206 l 360 997 l 442 843 z m 1192 379 b 840 774 1192 633 1038 774 b 611 693 743 774 668 743 b 379 774 561 743 489 774 b 76 714 293 774 171 753 l 143 517 b 333 556 217 542 293 556 b 429 472 411 556 429 540 l 429 467 l 390 467 b 11 210 138 467 11 375 b 264 -31 11 71 107 -31 b 526 89 360 -31 463 -3 b 847 -31 594 18 701 -31 b 1164 83 982 -31 1090 24 l 1040 250 b 878 185 976 206 925 185 b 740 286 804 185 756 196 l 1186 286 b 1192 379 1189 315 1192 356 z m 889 456 l 738 456 b 821 585 746 557 769 585 b 889 465 881 585 888 525 z m 374 185 b 331 233 346 185 331 207 b 419 301 331 286 360 301 l 436 301 l 436 294 b 446 235 438 275 440 254 b 374 185 425 210 406 185 z "},"ǣ":{"ha":1196,"x_min":0,"x_max":0,"o":"m 832 1100 l 364 1100 l 364 894 l 832 894 z m 1192 379 b 840 774 1192 633 1038 774 b 611 693 743 774 668 743 b 379 774 561 743 489 774 b 76 714 293 774 171 753 l 143 517 b 333 556 217 542 293 556 b 429 472 411 556 429 540 l 429 467 l 390 467 b 11 210 138 467 11 375 b 264 -31 11 71 107 -31 b 526 89 360 -31 463 -3 b 847 -31 594 18 701 -31 b 1164 83 982 -31 1090 24 l 1040 250 b 878 185 976 206 925 185 b 740 286 804 185 756 196 l 1186 286 b 1192 379 1189 315 1192 356 z m 889 456 l 738 456 b 821 585 746 557 769 585 b 889 465 881 585 888 525 z m 374 185 b 331 233 346 185 331 207 b 419 301 331 286 360 301 l 436 301 l 436 294 b 446 235 438 275 440 254 b 374 185 425 210 406 185 z "},"b":{"ha":833,"x_min":0,"x_max":0,"o":"m 542 774 b 350 685 467 774 389 738 l 350 1065 l 42 1035 l 42 0 l 317 0 l 325 61 b 517 -31 367 4 433 -31 b 815 369 706 -31 815 144 b 542 774 815 619 728 774 z m 421 188 b 349 232 392 188 368 200 l 350 238 l 350 497 b 431 556 376 543 408 556 b 501 369 468 556 501 536 b 421 188 501 225 468 188 z "},"ḃ":{"ha":833,"x_min":0,"x_max":0,"o":"m 451 1085 b 619 1246 550 1085 619 1156 b 451 1407 619 1338 550 1407 b 282 1246 353 1407 282 1338 b 451 1085 282 1156 353 1085 z m 542 774 b 350 685 467 774 389 738 l 350 1065 l 42 1035 l 42 0 l 317 0 l 325 61 b 517 -31 367 4 433 -31 b 815 369 706 -31 815 144 b 542 774 815 619 728 774 z m 421 188 b 349 232 392 188 368 200 l 350 238 l 350 497 b 431 556 376 543 408 556 b 501 369 468 556 501 536 b 421 188 501 225 468 188 z "},"ḅ":{"ha":833,"x_min":0,"x_max":0,"o":"m 542 774 b 350 685 467 774 389 738 l 350 1065 l 42 1035 l 42 0 l 317 0 l 325 61 b 517 -31 367 4 433 -31 b 815 369 706 -31 815 144 b 542 774 815 619 728 774 z m 421 188 b 349 232 392 188 368 200 l 350 238 l 350 497 b 431 556 376 543 408 556 b 501 369 468 556 501 536 b 421 188 501 225 468 188 z m 428 -65 b 260 -226 329 -65 260 -136 b 428 -387 260 -318 329 -387 b 597 -226 526 -387 597 -318 b 428 -65 597 -136 526 -65 z "},"ꞵ":{"ha":850,"x_min":0,"x_max":0,"o":"m 581 564 b 758 796 711 601 758 689 b 406 1065 758 944 639 1065 b 42 765 203 1065 42 958 l 42 -319 l 335 -278 l 335 19 b 521 -31 385 -11 443 -31 b 840 294 714 -31 840 106 b 581 564 840 507 685 554 z m 419 200 b 335 213 383 200 357 204 l 335 768 b 399 858 335 829 361 858 b 458 764 439 858 458 829 b 390 651 458 693 439 651 l 376 453 l 415 453 b 531 328 464 453 531 442 b 419 200 531 233 485 200 z "},"ɓ":{"ha":833,"x_min":0,"x_max":0,"o":"m 533 774 b 350 685 468 774 389 738 l 350 757 b 419 847 350 826 372 847 b 524 822 449 847 486 840 l 603 1011 b 375 1065 553 1039 458 1065 b 42 774 147 1065 42 933 l 42 743 l 69 743 l 42 740 l 42 0 l 317 0 l 325 61 b 517 -31 367 4 433 -31 b 815 369 706 -31 815 144 b 533 774 815 619 731 774 z m 424 188 b 349 232 392 188 368 200 l 350 238 l 350 497 b 432 556 376 543 406 556 b 501 369 468 556 501 536 b 424 188 501 225 468 188 z "},"ʭ":{"ha":540,"x_min":0,"x_max":0,"o":"m 42 557 l 214 557 l 214 664 l 326 664 l 326 557 l 499 557 l 499 806 l 42 806 z m 42 1 l 214 1 l 214 108 l 326 108 l 326 1 l 499 1 l 499 250 l 42 250 z "},"ʘ":{"ha":1115,"x_min":0,"x_max":0,"o":"m 558 999 b 17 486 231 999 17 776 b 558 -31 17 182 231 -31 b 1099 486 886 -31 1099 197 b 558 999 1099 792 886 999 z m 558 797 b 796 486 696 797 796 707 b 558 171 796 267 717 171 b 319 486 403 171 319 267 b 558 797 319 707 404 797 z m 556 604 b 428 482 481 604 428 551 b 556 361 428 414 481 361 b 682 482 629 361 682 414 b 556 604 682 551 629 604 z "},"ʬ":{"ha":654,"x_min":0,"x_max":0,"o":"m 613 931 l 504 931 l 456 632 l 413 931 l 260 931 l 217 633 l 156 931 l 43 931 l 132 556 l 292 556 l 335 825 l 369 556 l 536 556 z m 613 375 l 504 375 l 456 76 l 413 375 l 260 375 l 217 78 l 156 375 l 43 375 l 132 0 l 292 0 l 335 269 l 369 0 l 536 0 z "},"ƀ":{"ha":849,"x_min":0,"x_max":0,"o":"m 557 774 b 365 685 482 774 404 738 l 365 814 l 526 814 l 526 974 l 365 974 l 365 1065 l 57 1035 l 57 974 l -7 974 l -7 814 l 57 814 l 57 0 l 332 0 l 340 61 b 532 -31 382 4 449 -31 b 831 369 721 -31 831 144 b 557 774 831 619 743 774 z m 436 188 b 364 232 407 188 383 200 l 365 238 l 365 497 b 446 556 392 543 424 556 b 517 369 483 556 517 536 b 436 188 517 225 483 188 z "},"ƃ":{"ha":833,"x_min":0,"x_max":0,"o":"m 533 740 b 350 651 468 740 389 703 l 350 821 l 614 821 l 644 1035 l 42 1035 l 42 0 l 317 0 l 325 61 b 517 -31 367 4 433 -31 b 815 353 706 -31 815 144 b 533 740 815 586 731 740 z m 424 188 b 349 232 392 188 368 200 l 350 238 l 350 464 b 432 521 376 508 406 521 b 501 353 468 521 501 501 b 424 188 501 225 468 188 z "},"c":{"ha":665,"x_min":0,"x_max":0,"o":"m 413 774 b 11 367 169 774 11 601 b 421 -31 11 136 165 -31 b 692 64 538 -31 624 8 l 561 251 b 439 206 510 219 481 206 b 331 365 378 206 331 226 b 442 544 331 507 369 544 b 567 493 482 544 524 529 l 692 671 b 413 774 621 735 532 774 z "},"ć":{"ha":665,"x_min":0,"x_max":0,"o":"m 497 1206 l 168 997 l 250 843 l 610 985 z m 413 774 b 11 367 169 774 11 601 b 421 -31 11 136 165 -31 b 692 64 538 -31 624 8 l 561 251 b 439 206 510 219 481 206 b 331 365 378 206 331 226 b 442 544 331 507 369 544 b 567 493 482 544 524 529 l 692 671 b 413 774 621 735 532 774 z "},"č":{"ha":665,"x_min":0,"x_max":0,"o":"m 600 1167 l 407 1029 l 213 1167 l 111 1050 l 315 828 l 497 828 l 701 1050 z m 413 774 b 11 367 169 774 11 601 b 421 -31 11 136 165 -31 b 692 64 538 -31 624 8 l 561 251 b 439 206 510 219 481 206 b 331 365 378 206 331 226 b 442 544 331 507 369 544 b 567 493 482 544 524 529 l 692 671 b 413 774 621 735 532 774 z "},"ç":{"ha":665,"x_min":0,"x_max":0,"o":"m 692 64 l 561 251 b 439 206 510 219 481 206 b 331 365 378 206 331 226 b 442 544 331 507 369 544 b 567 493 482 544 524 529 l 692 671 b 413 774 621 735 532 774 b 11 367 169 774 11 601 b 306 -18 11 174 119 25 l 286 -174 b 418 -210 376 -174 418 -181 b 357 -237 418 -231 396 -237 b 268 -212 325 -237 296 -228 l 203 -342 b 388 -393 244 -368 311 -393 b 628 -212 544 -393 628 -310 b 469 -56 628 -121 572 -69 l 469 -28 b 692 64 563 -19 633 17 z "},"ĉ":{"ha":665,"x_min":0,"x_max":0,"o":"m 213 843 l 407 981 l 600 843 l 701 960 l 497 1182 l 315 1182 l 111 960 z m 413 774 b 11 367 169 774 11 601 b 421 -31 11 136 165 -31 b 692 64 538 -31 624 8 l 561 251 b 439 206 510 219 481 206 b 331 365 378 206 331 226 b 442 544 331 507 369 544 b 567 493 482 544 524 529 l 692 671 b 413 774 621 735 532 774 z "},"ɕ":{"ha":714,"x_min":0,"x_max":0,"o":"m 540 381 b 340 271 456 381 385 354 b 331 365 335 294 331 325 b 442 544 331 507 369 544 b 567 494 482 544 524 529 l 692 671 b 413 774 621 735 532 774 b 11 367 169 774 11 601 b 217 19 11 207 83 79 l 169 -79 l 301 -129 l 350 -24 b 446 -31 376 -28 407 -31 b 731 199 597 -31 731 36 b 540 381 731 319 643 381 z m 486 175 b 436 181 469 175 453 176 b 508 239 456 218 482 239 b 538 211 528 239 538 228 b 486 175 538 186 518 175 z "},"ċ":{"ha":665,"x_min":0,"x_max":0,"o":"m 408 1167 b 239 1006 310 1167 239 1097 b 408 844 239 915 310 844 b 576 1006 507 844 576 915 b 408 1167 576 1097 507 1167 z m 413 774 b 11 367 169 774 11 601 b 421 -31 11 136 165 -31 b 692 64 538 -31 624 8 l 561 251 b 439 206 510 219 481 206 b 331 365 378 206 331 226 b 442 544 331 507 369 544 b 567 493 482 544 524 529 l 692 671 b 413 774 621 735 532 774 z "},"ƈ":{"ha":665,"x_min":0,"x_max":0,"o":"m 696 1065 b 435 810 510 1065 435 964 l 435 765 b 361 774 413 771 388 774 b 11 367 172 774 11 601 b 421 -31 11 136 165 -31 b 692 64 538 -31 624 8 l 561 251 b 439 206 510 219 481 206 b 331 365 378 206 331 226 b 449 544 331 507 369 544 b 583 517 497 544 542 535 l 692 671 l 692 778 b 747 847 692 825 707 847 b 832 825 774 847 800 839 l 910 1014 b 696 1065 858 1043 790 1065 z "},"ʗ":{"ha":669,"x_min":0,"x_max":0,"o":"m 438 774 b 14 222 172 774 14 557 b 438 -321 14 -110 160 -321 b 696 -226 542 -321 626 -282 l 564 -40 b 447 -85 519 -69 490 -85 b 333 222 381 -85 333 -18 b 461 544 333 463 378 544 b 574 501 499 544 535 529 l 696 671 b 438 774 632 735 543 774 z "},"ȼ":{"ha":665,"x_min":0,"x_max":0,"o":"m 439 206 l 435 206 l 518 525 b 567 493 535 518 550 507 l 692 671 b 575 744 657 701 619 726 l 594 819 l 501 842 l 482 769 b 413 774 460 772 438 774 b 11 367 169 774 11 601 b 278 -11 11 183 110 40 l 258 -87 l 353 -110 l 374 -29 b 421 -31 389 -31 404 -31 b 692 64 538 -31 624 8 l 561 251 b 439 206 510 219 481 206 z m 331 365 b 424 543 331 494 363 538 l 349 256 b 331 365 338 279 331 314 z "},"d":{"ha":836,"x_min":0,"x_max":0,"o":"m 486 1065 l 486 724 b 333 774 446 757 392 774 b 18 378 147 774 18 610 b 301 -31 18 129 104 -31 b 510 72 413 -31 474 25 l 519 0 l 794 0 l 794 1035 z m 408 189 b 332 374 372 189 332 200 b 424 557 332 515 375 557 b 486 525 449 557 465 546 l 486 243 b 408 189 464 204 436 189 z "},"ð":{"ha":815,"x_min":0,"x_max":0,"o":"m 517 940 l 583 1007 l 435 1138 l 325 1024 b 131 1064 242 1047 189 1057 l 72 875 b 165 858 94 872 128 867 l 113 803 l 300 718 l 356 775 b 472 632 417 729 447 688 b 308 672 424 658 375 672 b 11 324 163 672 11 538 b 400 -31 11 101 178 -31 b 797 400 668 -31 797 178 b 517 940 797 618 726 797 z m 407 188 b 324 325 354 188 324 215 b 407 467 324 425 354 467 b 483 450 435 467 461 460 l 483 342 b 407 188 483 233 475 188 z "},"ȸ":{"ha":1222,"x_min":0,"x_max":0,"o":"m 951 774 b 767 683 876 774 807 738 l 767 1065 l 458 1035 l 458 701 b 311 774 418 753 363 774 b 18 378 140 774 18 610 b 288 -31 18 129 107 -31 b 482 71 385 -31 446 24 l 492 0 l 732 0 l 742 67 b 918 -31 786 0 851 -31 b 1204 369 1093 -31 1204 144 b 951 774 1204 619 1118 774 z m 399 189 b 332 374 372 189 332 200 b 404 557 332 515 367 557 b 458 522 425 557 442 544 l 458 243 b 399 189 436 204 411 189 z m 825 188 b 767 233 810 188 785 204 l 767 507 b 832 556 789 542 813 556 b 889 369 856 556 889 536 b 825 188 889 225 857 188 z "},"ď":{"ha":1071,"x_min":0,"x_max":0,"o":"m 486 724 b 333 774 446 757 392 774 b 18 378 147 774 18 610 b 301 -31 18 129 104 -31 b 510 72 413 -31 474 25 l 519 0 l 794 0 l 794 1035 l 486 1065 z m 875 1065 l 839 717 l 1006 692 l 1089 1032 z m 408 189 b 332 374 372 189 332 200 b 424 557 332 515 375 557 b 486 525 449 557 465 546 l 486 243 b 408 189 464 204 436 189 z "},"ḓ":{"ha":836,"x_min":0,"x_max":0,"o":"m 486 1065 l 486 724 b 333 774 446 757 392 774 b 18 378 147 774 18 610 b 301 -31 18 129 104 -31 b 510 72 413 -31 474 25 l 519 0 l 794 0 l 794 1035 z m 408 189 b 332 374 372 189 332 200 b 424 557 332 515 375 557 b 486 525 449 557 465 546 l 486 243 b 408 189 464 204 436 189 z m 336 -81 l 132 -303 l 233 -419 l 428 -282 l 621 -419 l 722 -303 l 518 -81 z "},"đ":{"ha":851,"x_min":0,"x_max":0,"o":"m 794 974 l 794 1035 l 486 1065 l 486 974 l 324 974 l 324 814 l 486 814 l 486 724 b 333 774 446 757 392 774 b 18 378 147 774 18 610 b 301 -31 18 129 104 -31 b 510 72 413 -31 474 25 l 519 0 l 794 0 l 794 814 l 858 814 l 858 974 z m 408 189 b 332 374 372 189 332 200 b 424 557 332 515 375 557 b 486 525 449 557 465 546 l 486 243 b 408 189 464 204 436 189 z "},"ȡ":{"ha":1163,"x_min":0,"x_max":0,"o":"m 974 369 b 799 261 892 369 842 340 b 794 331 796 281 794 303 l 794 1035 l 486 1065 l 486 724 b 342 774 446 757 389 774 b 18 378 140 774 18 610 b 301 -31 18 129 104 -31 b 542 113 414 -31 483 26 b 674 4 575 63 621 28 l 633 -79 l 767 -129 l 813 -29 b 863 -31 829 -31 846 -31 b 1157 196 1022 -31 1157 32 b 974 369 1157 307 1072 369 z m 413 189 b 332 374 372 189 332 200 b 425 557 332 515 375 557 b 486 526 450 557 467 546 l 486 328 b 492 253 486 301 488 276 b 413 189 468 207 439 189 z m 926 175 b 897 176 917 175 907 175 b 940 226 914 215 922 226 b 964 203 954 226 964 217 b 926 175 964 183 943 175 z "},"ḋ":{"ha":836,"x_min":0,"x_max":0,"o":"m 411 1085 b 579 1246 510 1085 579 1156 b 411 1407 579 1338 510 1407 b 242 1246 313 1407 242 1338 b 411 1085 242 1156 313 1085 z m 486 1065 l 486 724 b 333 774 446 757 392 774 b 18 378 147 774 18 610 b 301 -31 18 129 104 -31 b 510 72 413 -31 474 25 l 519 0 l 794 0 l 794 1035 z m 408 189 b 332 374 372 189 332 200 b 424 557 332 515 375 557 b 486 525 449 557 465 546 l 486 243 b 408 189 464 204 436 189 z "},"ḍ":{"ha":836,"x_min":0,"x_max":0,"o":"m 486 1065 l 486 724 b 333 774 446 757 392 774 b 18 378 147 774 18 610 b 301 -31 18 129 104 -31 b 510 72 413 -31 474 25 l 519 0 l 794 0 l 794 1035 z m 408 189 b 332 374 372 189 332 200 b 424 557 332 515 375 557 b 486 525 449 557 465 546 l 486 243 b 408 189 464 204 436 189 z m 428 -65 b 260 -226 329 -65 260 -136 b 428 -387 260 -318 329 -387 b 597 -226 526 -387 597 -318 b 428 -65 597 -136 526 -65 z "},"ƍ":{"ha":799,"x_min":0,"x_max":0,"o":"m 575 115 b 788 407 726 186 788 289 b 400 774 788 636 646 774 b 11 393 168 774 11 644 b 317 3 11 190 100 86 b 428 -78 424 -37 428 -50 b 350 -115 428 -101 406 -115 b 215 -72 297 -115 254 -96 l 82 -225 b 365 -318 139 -274 242 -318 b 715 -87 618 -318 715 -214 b 575 115 715 -14 699 42 z m 325 392 b 401 556 325 514 350 556 b 476 390 454 556 476 513 b 428 193 476 318 479 256 b 325 392 335 246 325 276 z "},"ʤ":{"ha":1506,"x_min":0,"x_max":0,"o":"m 1228 301 l 1443 542 l 1443 744 l 794 744 l 794 1035 l 486 1065 l 486 724 b 333 774 446 757 392 774 b 18 378 147 774 18 610 b 301 -31 18 129 104 -31 b 510 72 413 -31 474 25 l 519 0 l 794 0 l 794 522 l 1096 522 l 906 303 l 906 142 l 1053 142 b 1186 40 1131 142 1186 118 b 1064 -92 1186 -54 1126 -92 b 882 -8 997 -92 949 -65 l 725 -161 b 1088 -319 801 -254 917 -319 b 1499 17 1353 -319 1499 -168 b 1228 301 1499 192 1396 278 z m 408 189 b 332 374 372 189 332 200 b 424 557 332 515 375 557 b 486 525 449 557 465 546 l 486 243 b 408 189 464 204 436 189 z "},"ɗ":{"ha":836,"x_min":0,"x_max":0,"o":"m 799 1065 b 486 775 583 1065 486 931 l 486 724 b 342 774 446 757 389 774 b 18 378 140 774 18 610 b 301 -31 18 129 104 -31 b 510 72 413 -31 474 25 l 519 0 l 794 0 l 794 778 b 849 847 794 825 808 847 b 935 825 876 847 903 839 l 1013 1014 b 799 1065 961 1043 892 1065 z m 413 189 b 332 374 372 189 332 200 b 425 557 332 515 375 557 b 486 526 450 557 467 546 l 486 243 b 413 189 464 204 436 189 z "},"ḏ":{"ha":836,"x_min":0,"x_max":0,"o":"m 486 1065 l 486 724 b 333 774 446 757 392 774 b 18 378 147 774 18 610 b 301 -31 18 129 104 -31 b 510 72 413 -31 474 25 l 519 0 l 794 0 l 794 1035 z m 408 189 b 332 374 372 189 332 200 b 424 557 332 515 375 557 b 486 525 449 557 465 546 l 486 243 b 408 189 464 204 436 189 z m 193 -289 l 661 -289 l 661 -83 l 193 -83 z "},"ɖ":{"ha":836,"x_min":0,"x_max":0,"o":"m 956 -81 b 863 -104 922 -96 900 -104 b 794 -37 819 -104 794 -81 l 794 1035 l 486 1065 l 486 724 b 342 774 446 757 389 774 b 18 378 140 774 18 610 b 301 -31 18 129 104 -31 b 486 44 390 -31 449 6 l 486 -10 b 821 -319 486 -217 622 -319 b 1053 -256 928 -319 1000 -293 z m 413 189 b 332 374 372 189 332 200 b 425 557 332 515 375 557 b 486 526 450 557 467 546 l 486 243 b 413 189 464 204 436 189 z "},"ƌ":{"ha":836,"x_min":0,"x_max":0,"o":"m 794 1035 l 207 1035 l 207 821 l 486 821 l 486 689 b 342 740 446 724 389 740 b 18 361 140 740 18 576 b 301 -31 18 129 104 -31 b 510 72 413 -31 474 25 l 519 0 l 794 0 z m 413 189 b 332 357 372 189 332 200 b 425 522 332 481 375 522 b 486 492 450 522 467 511 l 486 243 b 413 189 464 204 436 189 z "},"ǳ":{"ha":1503,"x_min":0,"x_max":0,"o":"m 486 724 b 333 774 446 757 392 774 b 18 378 147 774 18 610 b 301 -31 18 129 104 -31 b 510 72 413 -31 474 25 l 519 0 l 794 0 l 794 1035 l 486 1065 z m 1197 225 l 1485 532 l 1485 744 l 864 744 l 864 524 l 1129 524 l 836 214 l 836 0 l 1469 0 l 1494 225 z m 408 189 b 332 374 372 189 332 200 b 424 557 332 515 375 557 b 486 525 449 557 465 546 l 486 243 b 408 189 464 204 436 189 z "},"ʣ":{"ha":1453,"x_min":0,"x_max":0,"o":"m 1132 225 l 1435 532 l 1435 744 l 794 744 l 794 1035 l 486 1065 l 486 724 b 333 774 446 757 392 774 b 18 378 147 774 18 610 b 301 -31 18 129 104 -31 b 510 72 413 -31 474 25 l 519 0 l 1419 0 l 1446 225 z m 408 189 b 332 374 372 189 332 200 b 424 557 332 515 375 557 b 486 525 449 557 465 546 l 486 243 b 408 189 464 204 436 189 z m 794 211 l 794 524 l 1094 524 z "},"ǆ":{"ha":1503,"x_min":0,"x_max":0,"o":"m 1268 828 l 1472 1050 l 1371 1167 l 1178 1029 l 983 1167 l 882 1050 l 1086 828 z m 486 724 b 333 774 446 757 392 774 b 18 378 147 774 18 610 b 301 -31 18 129 104 -31 b 510 72 413 -31 474 25 l 519 0 l 794 0 l 794 1035 l 486 1065 z m 1197 225 l 1485 532 l 1485 744 l 864 744 l 864 524 l 1129 524 l 836 214 l 836 0 l 1469 0 l 1494 225 z m 408 189 b 332 374 372 189 332 200 b 424 557 332 515 375 557 b 486 525 449 557 465 546 l 486 243 b 408 189 464 204 436 189 z "},"ʥ":{"ha":1665,"x_min":0,"x_max":0,"o":"m 1483 439 b 1231 226 1372 439 1283 389 l 1231 225 l 1114 225 l 1435 550 l 1435 744 l 794 744 l 794 1035 l 486 1065 l 486 724 b 333 774 446 757 392 774 b 18 378 147 774 18 610 b 301 -31 18 129 104 -31 b 510 72 413 -31 474 25 l 519 0 l 1200 0 b 1192 -186 1194 -49 1192 -119 l 1349 -186 b 1357 -3 1349 -115 1347 -43 l 1357 0 l 1360 0 b 1685 243 1592 -1 1685 96 b 1483 439 1685 368 1599 439 z m 408 189 b 332 374 372 189 332 200 b 424 557 332 515 375 557 b 486 525 449 557 465 546 l 486 243 b 408 189 464 204 436 189 z m 794 221 l 794 524 l 1096 524 z m 1440 225 l 1386 225 b 1458 294 1400 269 1424 294 b 1490 265 1481 294 1490 281 b 1440 225 1490 240 1467 225 z "},"e":{"ha":778,"x_min":0,"x_max":0,"o":"m 774 379 b 396 774 774 633 619 774 b 11 372 136 774 11 586 b 428 -31 11 143 140 -31 b 746 83 564 -31 671 24 l 621 250 b 458 185 557 206 507 185 b 322 286 385 185 338 196 l 767 286 b 774 379 771 315 774 356 z m 469 456 l 319 456 b 401 585 328 557 351 585 b 469 465 463 585 468 525 z "},"é":{"ha":778,"x_min":0,"x_max":0,"o":"m 600 985 l 488 1206 l 158 997 l 240 843 z m 774 379 b 396 774 774 633 619 774 b 11 372 136 774 11 586 b 428 -31 11 143 140 -31 b 746 83 564 -31 671 24 l 621 250 b 458 185 557 206 507 185 b 322 286 385 185 338 196 l 767 286 b 774 379 771 315 774 356 z m 469 456 l 319 456 b 401 585 328 557 351 585 b 469 465 463 585 468 525 z "},"ĕ":{"ha":778,"x_min":0,"x_max":0,"o":"m 399 864 b 665 1156 578 864 654 1008 l 510 1181 b 399 1071 494 1117 460 1071 b 288 1181 336 1071 301 1117 l 131 1156 b 399 864 142 1008 219 864 z m 774 379 b 396 774 774 633 619 774 b 11 372 136 774 11 586 b 428 -31 11 143 140 -31 b 746 83 564 -31 671 24 l 621 250 b 458 185 557 206 507 185 b 322 286 385 185 338 196 l 767 286 b 774 379 771 315 774 356 z m 469 456 l 319 456 b 401 585 328 557 351 585 b 469 465 463 585 468 525 z "},"ě":{"ha":778,"x_min":0,"x_max":0,"o":"m 488 828 l 692 1050 l 590 1167 l 397 1029 l 203 1167 l 101 1050 l 306 828 z m 774 379 b 396 774 774 633 619 774 b 11 372 136 774 11 586 b 428 -31 11 143 140 -31 b 746 83 564 -31 671 24 l 621 250 b 458 185 557 206 507 185 b 322 286 385 185 338 196 l 767 286 b 774 379 771 315 774 356 z m 469 456 l 319 456 b 401 585 328 557 351 585 b 469 465 463 585 468 525 z "},"ȩ":{"ha":778,"x_min":0,"x_max":0,"o":"m 774 379 b 396 774 774 633 619 774 b 11 372 136 774 11 586 b 332 -24 11 171 111 11 l 313 -174 b 444 -210 403 -174 444 -181 b 383 -237 444 -231 422 -237 b 294 -212 351 -237 322 -228 l 229 -342 b 414 -393 271 -368 338 -393 b 654 -212 571 -393 654 -310 b 496 -56 654 -121 599 -69 l 496 -26 b 746 83 600 -11 683 33 l 621 250 b 458 185 557 206 507 185 b 322 286 385 185 338 196 l 767 286 b 774 379 771 315 774 356 z m 469 456 l 319 456 b 401 585 328 557 351 585 b 469 465 463 585 468 525 z "},"ê":{"ha":778,"x_min":0,"x_max":0,"o":"m 397 981 l 590 843 l 692 960 l 488 1182 l 306 1182 l 101 960 l 203 843 z m 774 379 b 396 774 774 633 619 774 b 11 372 136 774 11 586 b 428 -31 11 143 140 -31 b 746 83 564 -31 671 24 l 621 250 b 458 185 557 206 507 185 b 322 286 385 185 338 196 l 767 286 b 774 379 771 315 774 356 z m 469 456 l 319 456 b 401 585 328 557 351 585 b 469 465 463 585 468 525 z "},"ế":{"ha":778,"x_min":0,"x_max":0,"o":"m 918 1258 l 758 1415 l 557 1144 l 669 1044 z m 400 928 l 593 806 l 694 924 l 490 1129 l 308 1129 l 104 924 l 206 806 z m 396 774 b 11 372 136 774 11 586 b 428 -31 11 143 140 -31 b 746 83 564 -31 671 24 l 621 250 b 458 185 557 206 507 185 b 322 286 385 185 338 196 l 767 286 b 774 379 771 315 774 356 b 396 774 774 633 619 774 z m 469 456 l 319 456 b 401 585 328 557 351 585 b 469 465 463 585 468 525 z "},"ệ":{"ha":778,"x_min":0,"x_max":0,"o":"m 397 981 l 590 843 l 692 960 l 488 1182 l 306 1182 l 101 960 l 203 843 z m 774 379 b 396 774 774 633 619 774 b 11 372 136 774 11 586 b 428 -31 11 143 140 -31 b 746 83 564 -31 671 24 l 621 250 b 458 185 557 206 507 185 b 322 286 385 185 338 196 l 767 286 b 774 379 771 315 774 356 z m 469 456 l 319 456 b 401 585 328 557 351 585 b 469 465 463 585 468 525 z m 408 -65 b 240 -226 310 -65 240 -136 b 408 -387 240 -318 310 -387 b 578 -226 507 -387 578 -318 b 408 -65 578 -136 507 -65 z "},"ề":{"ha":778,"x_min":0,"x_max":0,"o":"m 246 1144 l 44 1415 l -115 1258 l 133 1044 z m 206 806 l 400 928 l 593 806 l 694 924 l 490 1129 l 308 1129 l 104 924 z m 774 379 b 396 774 774 633 619 774 b 11 372 136 774 11 586 b 428 -31 11 143 140 -31 b 746 83 564 -31 671 24 l 621 250 b 458 185 557 206 507 185 b 322 286 385 185 338 196 l 767 286 b 774 379 771 315 774 356 z m 469 456 l 319 456 b 401 585 328 557 351 585 b 469 465 463 585 468 525 z "},"ể":{"ha":778,"x_min":0,"x_max":0,"o":"m 625 1457 b 454 1417 551 1457 497 1443 l 497 1307 b 585 1325 526 1318 549 1325 b 633 1289 614 1325 633 1311 b 535 1243 633 1258 607 1243 l 535 1097 l 699 1097 l 699 1163 b 819 1301 779 1178 819 1228 b 625 1457 819 1390 754 1457 z m 400 928 l 593 806 l 694 924 l 490 1129 l 308 1129 l 104 924 l 206 806 z m 396 774 b 11 372 136 774 11 586 b 428 -31 11 143 140 -31 b 746 83 564 -31 671 24 l 621 250 b 458 185 557 206 507 185 b 322 286 385 185 338 196 l 767 286 b 774 379 771 315 774 356 b 396 774 774 633 619 774 z m 469 456 l 319 456 b 401 585 328 557 351 585 b 469 465 463 585 468 525 z "},"ễ":{"ha":778,"x_min":0,"x_max":0,"o":"m 321 1219 b 478 1168 363 1219 390 1168 b 686 1349 579 1168 650 1254 l 546 1407 b 474 1356 524 1374 508 1356 b 313 1407 433 1356 404 1407 b 107 1228 217 1407 144 1322 l 247 1168 b 321 1219 269 1200 286 1219 z m 400 931 l 593 808 l 694 926 l 490 1132 l 308 1132 l 104 926 l 206 808 z m 774 379 b 396 774 774 633 619 774 b 11 372 136 774 11 586 b 428 -31 11 143 140 -31 b 746 83 564 -31 671 24 l 621 250 b 458 185 557 206 507 185 b 322 286 385 185 338 196 l 767 286 b 774 379 771 315 774 356 z m 469 456 l 319 456 b 401 585 328 557 351 585 b 469 465 463 585 468 525 z "},"ȅ":{"ha":778,"x_min":0,"x_max":0,"o":"m 375 928 l 225 1232 l 40 1142 l 231 857 z m 640 921 l 501 1232 l 313 1150 l 492 863 z m 774 379 b 396 774 774 633 619 774 b 11 372 136 774 11 586 b 428 -31 11 143 140 -31 b 746 83 564 -31 671 24 l 621 250 b 458 185 557 206 507 185 b 322 286 385 185 338 196 l 767 286 b 774 379 771 315 774 356 z m 469 456 l 319 456 b 401 585 328 557 351 585 b 469 465 463 585 468 525 z "},"ë":{"ha":778,"x_min":0,"x_max":0,"o":"m 221 872 b 365 1013 303 872 365 935 b 221 1151 365 1090 303 1151 b 78 1013 143 1151 78 1090 b 221 872 78 935 143 872 z m 574 872 b 717 1013 654 872 717 935 b 574 1151 717 1090 654 1151 b 429 1013 494 1151 429 1090 b 574 872 429 935 494 872 z m 774 379 b 396 774 774 633 619 774 b 11 372 136 774 11 586 b 428 -31 11 143 140 -31 b 746 83 564 -31 671 24 l 621 250 b 458 185 557 206 507 185 b 322 286 385 185 338 196 l 767 286 b 774 379 771 315 774 356 z m 469 456 l 319 456 b 401 585 328 557 351 585 b 469 465 463 585 468 525 z "},"ė":{"ha":778,"x_min":0,"x_max":0,"o":"m 399 844 b 567 1006 497 844 567 915 b 399 1167 567 1097 497 1167 b 229 1006 300 1167 229 1097 b 399 844 229 915 300 844 z m 774 379 b 396 774 774 633 619 774 b 11 372 136 774 11 586 b 428 -31 11 143 140 -31 b 746 83 564 -31 671 24 l 621 250 b 458 185 557 206 507 185 b 322 286 385 185 338 196 l 767 286 b 774 379 771 315 774 356 z m 469 456 l 319 456 b 401 585 328 557 351 585 b 469 465 463 585 468 525 z "},"ẹ":{"ha":778,"x_min":0,"x_max":0,"o":"m 774 379 b 396 774 774 633 619 774 b 11 372 136 774 11 586 b 428 -31 11 143 140 -31 b 746 83 564 -31 671 24 l 621 250 b 458 185 557 206 507 185 b 322 286 385 185 338 196 l 767 286 b 774 379 771 315 774 356 z m 469 456 l 319 456 b 401 585 328 557 351 585 b 469 465 463 585 468 525 z m 408 -65 b 240 -226 310 -65 240 -136 b 408 -387 240 -318 310 -387 b 578 -226 507 -387 578 -318 b 408 -65 578 -136 507 -65 z "},"è":{"ha":778,"x_min":0,"x_max":0,"o":"m 632 997 l 303 1206 l 190 985 l 551 843 z m 774 379 b 396 774 774 633 619 774 b 11 372 136 774 11 586 b 428 -31 11 143 140 -31 b 746 83 564 -31 671 24 l 621 250 b 458 185 557 206 507 185 b 322 286 385 185 338 196 l 767 286 b 774 379 771 315 774 356 z m 469 456 l 319 456 b 401 585 328 557 351 585 b 469 465 463 585 468 525 z "},"ẻ":{"ha":778,"x_min":0,"x_max":0,"o":"m 364 1060 b 413 1024 393 1060 413 1046 b 314 978 413 993 386 978 l 314 832 l 478 832 l 478 897 b 599 1036 558 913 599 963 b 404 1192 599 1125 533 1192 b 233 1151 331 1192 276 1178 l 276 1042 b 364 1060 306 1053 328 1060 z m 774 379 b 396 774 774 633 619 774 b 11 372 136 774 11 586 b 428 -31 11 143 140 -31 b 746 83 564 -31 671 24 l 621 250 b 458 185 557 206 507 185 b 322 286 385 185 338 196 l 767 286 b 774 379 771 315 774 356 z m 469 456 l 319 456 b 401 585 328 557 351 585 b 469 465 463 585 468 525 z "},"ȇ":{"ha":778,"x_min":0,"x_max":0,"o":"m 399 929 b 510 819 460 929 494 883 l 665 844 b 399 1136 654 992 578 1136 b 131 844 219 1136 142 992 l 288 819 b 399 929 301 883 336 929 z m 774 379 b 396 774 774 633 619 774 b 11 372 136 774 11 586 b 428 -31 11 143 140 -31 b 746 83 564 -31 671 24 l 621 250 b 458 185 557 206 507 185 b 322 286 385 185 338 196 l 767 286 b 774 379 771 315 774 356 z m 469 456 l 319 456 b 401 585 328 557 351 585 b 469 465 463 585 468 525 z "},"ē":{"ha":778,"x_min":0,"x_max":0,"o":"m 631 1100 l 163 1100 l 163 894 l 631 894 z m 774 379 b 396 774 774 633 619 774 b 11 372 136 774 11 586 b 428 -31 11 143 140 -31 b 746 83 564 -31 671 24 l 621 250 b 458 185 557 206 507 185 b 322 286 385 185 338 196 l 767 286 b 774 379 771 315 774 356 z m 469 456 l 319 456 b 401 585 328 557 351 585 b 469 465 463 585 468 525 z "},"ę":{"ha":778,"x_min":0,"x_max":0,"o":"m 774 379 b 396 774 774 633 619 774 b 11 372 136 774 11 586 b 349 -25 11 165 117 4 b 276 -160 304 -57 276 -101 b 510 -343 276 -278 381 -343 b 615 -332 547 -343 585 -339 l 633 -158 b 549 -169 603 -165 574 -169 b 479 -110 507 -169 479 -151 b 564 -11 479 -86 494 -47 b 746 83 638 10 699 46 l 621 250 b 458 185 557 206 507 185 b 322 286 385 185 338 196 l 767 286 b 774 379 771 315 774 356 z m 469 456 l 319 456 b 401 585 328 557 351 585 b 469 465 463 585 468 525 z "},"ɛ":{"ha":685,"x_min":0,"x_max":0,"o":"m 367 774 b 39 567 174 774 39 696 b 222 396 39 485 92 422 b 11 204 76 378 11 310 b 360 -31 11 47 164 -31 b 697 61 504 -31 617 3 l 575 226 b 414 178 503 190 458 178 b 325 233 349 178 325 197 b 400 286 325 260 347 286 l 485 286 l 513 468 l 413 468 b 347 525 364 468 347 492 b 413 572 347 556 378 572 b 563 526 464 572 508 556 l 679 675 b 367 774 588 746 482 774 z "},"ʚ":{"ha":803,"x_min":0,"x_max":0,"o":"m 389 -31 b 792 374 642 -31 792 110 b 388 774 792 619 643 774 b 46 564 179 774 46 693 b 222 394 46 478 108 421 b 11 210 83 378 11 321 b 389 -31 11 47 160 -31 z m 386 178 b 318 235 335 178 318 203 b 385 286 318 268 328 286 l 425 286 l 408 468 l 404 468 b 346 521 354 468 346 492 b 399 572 346 553 365 572 b 490 374 467 572 490 519 b 386 178 490 226 476 178 z "},"ɜ":{"ha":688,"x_min":0,"x_max":0,"o":"m 329 774 b 6 686 200 774 96 744 l 146 531 b 282 572 192 558 232 572 b 333 524 318 572 333 551 b 279 468 333 492 325 468 l 182 468 l 165 286 l 299 286 b 363 232 353 286 363 261 b 296 178 363 204 353 178 b 126 221 240 178 196 183 l -14 57 b 306 -31 71 -3 178 -31 b 676 210 532 -31 676 50 b 467 394 676 321 606 378 b 643 564 579 421 643 478 b 329 774 643 693 511 774 z "},"ɞ":{"ha":803,"x_min":0,"x_max":0,"o":"m 414 -31 b 792 210 643 -31 792 47 b 581 394 792 321 719 378 b 757 564 694 421 757 478 b 415 774 757 693 624 774 b 11 374 160 774 11 619 b 414 -31 11 110 161 -31 z m 417 178 b 313 374 326 178 313 226 b 404 572 313 519 336 572 b 457 521 438 572 457 553 b 399 468 457 492 449 468 l 394 468 l 378 286 l 418 286 b 485 235 475 286 485 268 b 417 178 485 203 468 178 z "},"ɝ":{"ha":1118,"x_min":0,"x_max":0,"o":"m 1054 632 b 982 619 1031 626 1011 619 b 928 675 950 619 928 638 l 928 744 l 686 744 l 588 692 b 329 774 532 744 440 774 b 6 686 200 774 96 744 l 146 531 b 282 572 192 558 232 572 b 333 524 318 572 333 551 b 279 468 333 492 325 468 l 182 468 l 165 286 l 299 286 b 363 232 353 286 363 261 b 296 178 363 204 353 178 b 126 221 240 178 196 183 l -14 57 b 306 -31 71 -3 178 -31 b 676 210 532 -31 676 50 b 467 394 676 321 606 378 b 642 539 568 418 629 467 l 703 576 l 704 572 b 944 418 733 481 806 418 b 1128 469 1024 418 1085 440 z "},"ɘ":{"ha":778,"x_min":0,"x_max":0,"o":"m 382 774 b 4 379 160 774 4 633 b 10 286 4 356 7 315 l 456 286 b 315 185 439 196 389 185 b 156 250 271 185 219 206 l 32 83 b 349 -31 106 24 214 -31 b 767 372 638 -31 767 143 b 382 774 767 601 650 774 z m 307 465 b 381 585 310 525 314 585 b 458 456 429 585 451 564 l 307 456 z "},"ʃ":{"ha":392,"x_min":0,"x_max":0,"o":"m 354 1065 b 42 775 139 1065 42 931 l 42 -37 b -26 -104 42 -81 17 -104 b -119 -81 -64 -104 -86 -96 l -217 -256 b 15 -319 -164 -293 -92 -319 b 350 -10 214 -319 350 -217 l 350 778 b 404 847 350 825 364 847 b 490 825 432 847 458 839 l 568 1014 b 354 1065 517 1043 447 1065 z "},"ʆ":{"ha":518,"x_min":0,"x_max":0,"o":"m 476 743 l 476 778 b 531 847 476 825 490 847 b 617 825 558 847 585 839 l 694 1014 b 481 1065 643 1043 574 1065 b 168 775 265 1065 168 931 l 168 50 l 131 50 b -100 -142 -8 50 -100 -17 b 131 -319 -100 -254 -21 -319 b 444 -128 299 -319 399 -258 b 550 -168 479 -140 526 -157 l 599 -54 b 471 3 560 -32 521 -14 b 475 101 474 33 475 65 z m 104 -179 b 58 -133 75 -179 58 -162 b 128 -79 58 -97 81 -79 b 167 -81 140 -79 154 -79 b 104 -179 161 -154 140 -179 z "},"ƪ":{"ha":686,"x_min":0,"x_max":0,"o":"m 806 -81 b 713 -104 772 -96 750 -104 b 644 -37 669 -104 644 -81 l 644 756 b 306 1065 644 928 529 1065 b -14 782 97 1065 -14 939 b 243 503 -14 615 89 503 b 336 519 279 503 310 510 l 336 -10 b 671 -319 336 -217 472 -319 b 903 -256 778 -319 850 -293 z m 301 706 b 236 786 260 706 236 728 b 290 864 236 840 256 864 b 336 806 324 864 336 843 l 336 710 b 301 706 325 707 314 706 z "},"ʅ":{"ha":733,"x_min":0,"x_max":0,"o":"m 661 208 b 568 185 628 193 606 185 b 500 251 525 185 500 208 l 500 483 b 188 774 500 639 403 774 b -26 722 94 774 25 751 l 51 533 b 138 556 83 547 110 556 b 192 486 178 556 192 533 l 192 279 b 526 -31 192 72 328 -31 b 758 33 633 -31 706 -4 z "},"ɇ":{"ha":778,"x_min":0,"x_max":0,"o":"m 767 294 b 774 379 771 324 774 356 b 542 750 774 574 683 701 l 560 819 l 475 842 l 456 769 b 396 774 436 772 417 774 b 11 372 136 774 11 586 b 253 -4 11 196 88 53 l 231 -87 l 318 -110 l 340 -25 b 428 -31 368 -29 397 -31 b 746 83 564 -31 671 24 l 621 250 b 458 185 557 206 507 185 b 396 188 435 185 414 185 l 424 294 z m 401 593 l 410 593 l 371 447 l 285 447 b 401 593 292 558 321 593 z m 513 457 l 513 447 l 463 447 l 492 557 b 513 457 510 531 511 493 z m 313 225 b 286 294 300 240 292 263 l 331 294 z "},"ẽ":{"ha":778,"x_min":0,"x_max":0,"o":"m 321 911 b 478 853 363 911 390 853 b 686 1058 579 853 650 951 l 546 1125 b 474 1067 524 1088 508 1067 b 313 1125 433 1067 404 1125 b 107 921 217 1125 144 1029 l 247 853 b 321 911 269 890 286 911 z m 774 379 b 396 774 774 633 619 774 b 11 372 136 774 11 586 b 428 -31 11 143 140 -31 b 746 83 564 -31 671 24 l 621 250 b 458 185 557 206 507 185 b 322 286 385 185 338 196 l 767 286 b 774 379 771 315 774 356 z m 469 456 l 319 456 b 401 585 328 557 351 585 b 469 465 463 585 468 525 z "},"ǝ":{"ha":775,"x_min":0,"x_max":0,"o":"m 374 774 b 51 674 228 774 131 733 l 175 514 b 361 568 240 551 294 568 b 478 457 433 568 471 532 l 10 457 b 4 365 7 429 4 389 b 382 -31 4 111 154 -31 b 764 374 640 -31 764 161 b 374 774 764 604 643 774 z m 382 176 b 290 279 319 176 294 219 l 290 288 l 476 288 b 382 176 467 207 436 176 z "},"ə":{"ha":775,"x_min":0,"x_max":0,"o":"m 374 774 b 51 674 228 774 131 733 l 175 514 b 361 568 240 551 294 568 b 478 457 433 568 471 532 l 10 457 b 4 365 7 429 4 389 b 382 -31 4 111 154 -31 b 764 374 640 -31 764 161 b 374 774 764 604 643 774 z m 382 176 b 290 279 319 176 294 219 l 290 288 l 476 288 b 382 176 467 207 436 176 z "},"ɚ":{"ha":1217,"x_min":0,"x_max":0,"o":"m 1153 632 b 1081 619 1129 626 1110 619 b 1026 675 1049 619 1026 638 l 1026 744 l 785 744 l 656 675 b 374 774 592 738 499 774 b 51 674 228 774 131 733 l 175 514 b 361 568 240 551 294 568 b 478 457 433 568 471 532 l 10 457 b 4 365 7 429 4 389 b 382 -31 4 111 154 -31 b 764 374 640 -31 764 161 b 739 539 764 433 756 489 l 801 576 l 803 572 b 1043 418 832 481 904 418 b 1226 469 1122 418 1183 440 z m 382 176 b 290 279 319 176 294 219 l 290 288 l 476 288 b 382 176 467 207 436 176 z "},"ʒ":{"ha":746,"x_min":0,"x_max":0,"o":"m 468 301 l 683 542 l 683 744 l 33 744 l 33 522 l 336 522 l 146 303 l 146 142 l 293 142 b 426 40 371 142 426 118 b 304 -92 426 -54 367 -92 b 122 -8 238 -92 189 -65 l -35 -161 b 328 -319 42 -254 157 -319 b 739 17 593 -319 739 -168 b 468 301 739 192 636 278 z "},"ǯ":{"ha":746,"x_min":0,"x_max":0,"o":"m 449 828 l 653 1050 l 551 1167 l 358 1029 l 164 1167 l 63 1050 l 267 828 z m 468 301 l 683 542 l 683 744 l 33 744 l 33 522 l 336 522 l 146 303 l 146 142 l 293 142 b 426 40 371 142 426 118 b 304 -92 426 -54 367 -92 b 122 -8 238 -92 189 -65 l -35 -161 b 328 -319 42 -254 157 -319 b 739 17 593 -319 739 -168 b 468 301 739 192 636 278 z "},"ʓ":{"ha":746,"x_min":0,"x_max":0,"o":"m 739 25 b 468 318 739 208 636 294 l 683 542 l 683 744 l 33 744 l 33 522 l 342 522 l 146 321 l 146 160 l 293 160 b 426 49 371 160 426 135 b 388 -61 426 -4 414 -40 l 372 -32 b 167 114 317 75 260 114 b -24 -75 64 114 -24 53 b 286 -319 -24 -236 113 -319 b 360 -317 311 -319 336 -318 l 406 -418 l 538 -368 l 499 -289 b 739 25 661 -235 739 -117 z m 169 -58 b 199 -29 169 -39 181 -29 b 263 -92 224 -29 242 -49 b 169 -58 188 -92 169 -85 z "},"ƹ":{"ha":746,"x_min":0,"x_max":0,"o":"m 628 -11 b 442 -92 558 -68 507 -92 b 321 38 378 -92 321 -54 b 454 142 321 113 376 142 l 601 142 l 601 294 l 403 522 l 714 522 l 714 744 l 63 744 l 63 542 l 279 301 b 7 15 110 278 7 188 b 418 -319 7 -168 153 -319 b 781 -161 590 -319 706 -254 z "},"ƺ":{"ha":758,"x_min":0,"x_max":0,"o":"m 296 -319 l 353 -161 b 311 -129 326 -153 311 -143 b 458 -64 311 -110 331 -93 b 732 186 601 -32 732 21 b 482 400 732 311 646 400 l 483 400 l 678 558 l 678 744 l 26 744 l 26 539 l 325 539 l 156 385 l 156 240 l 314 240 b 419 197 393 240 419 229 b 283 122 419 167 388 149 b 38 -90 119 82 38 24 b 296 -319 38 -208 149 -286 z "},"f":{"ha":524,"x_min":0,"x_max":0,"o":"m 464 847 b 568 819 493 847 531 840 l 647 1011 b 419 1065 597 1039 503 1065 b 86 774 193 1065 86 933 l 86 744 l -7 744 l -7 538 l 86 538 l 86 0 l 394 0 l 394 538 l 532 538 l 565 744 l 394 744 l 394 757 b 464 847 394 826 418 847 z "},"ḟ":{"ha":524,"x_min":0,"x_max":0,"o":"m 379 1085 b 547 1246 478 1085 547 1156 b 379 1407 547 1338 478 1407 b 210 1246 281 1407 210 1338 b 379 1085 210 1156 281 1085 z m 464 847 b 568 819 493 847 531 840 l 647 1011 b 419 1065 597 1039 503 1065 b 86 774 193 1065 86 933 l 86 744 l -7 744 l -7 538 l 86 538 l 86 0 l 394 0 l 394 538 l 532 538 l 565 744 l 394 744 l 394 757 b 464 847 394 826 418 847 z "},"ʩ":{"ha":1236,"x_min":0,"x_max":0,"o":"m 1004 774 b 778 674 915 774 851 746 l 757 744 l 394 744 l 394 757 b 464 847 394 826 418 847 b 568 819 493 847 531 840 l 647 1011 b 419 1065 597 1039 503 1065 b 86 774 193 1065 86 933 l 86 744 l -7 744 l -7 538 l 86 538 l 86 0 l 394 0 l 394 538 l 488 538 l 488 0 l 796 0 l 796 490 b 868 551 824 535 850 551 b 893 494 882 551 893 542 l 893 -37 b 825 -104 893 -81 868 -104 b 732 -81 788 -104 765 -96 l 635 -256 b 867 -319 688 -293 760 -319 b 1201 -10 1065 -319 1201 -217 l 1201 553 b 1004 774 1201 694 1125 774 z "},"g":{"ha":807,"x_min":0,"x_max":0,"o":"m 743 899 b 382 774 650 831 531 768 b 18 490 160 774 18 674 b 160 271 18 394 56 326 b 64 117 106 238 64 178 b 328 -33 64 33 135 -33 l 428 -33 b 490 -76 482 -33 490 -60 b 385 -129 490 -97 485 -129 b 258 -67 278 -129 258 -114 l -17 -67 b 374 -319 -17 -210 56 -319 b 800 -56 651 -319 800 -215 b 488 169 800 78 682 169 l 383 169 b 317 199 317 169 317 190 b 328 217 317 207 319 213 b 404 214 353 213 375 214 b 744 457 614 214 744 318 b 597 654 744 564 697 614 b 807 690 697 654 765 669 z m 393 576 b 461 501 439 576 461 557 b 392 410 461 436 438 410 b 324 496 357 410 324 432 b 393 576 324 553 356 576 z "},"ǵ":{"ha":807,"x_min":0,"x_max":0,"o":"m 494 1206 l 165 997 l 247 843 l 607 985 z m 743 899 b 382 774 650 831 531 768 b 18 490 160 774 18 674 b 160 271 18 394 56 326 b 64 117 106 238 64 178 b 328 -33 64 33 135 -33 l 428 -33 b 490 -76 482 -33 490 -60 b 385 -129 490 -97 485 -129 b 258 -67 278 -129 258 -114 l -17 -67 b 374 -319 -17 -210 56 -319 b 800 -56 651 -319 800 -215 b 488 169 800 78 682 169 l 383 169 b 317 199 317 169 317 190 b 328 217 317 207 319 213 b 404 214 353 213 375 214 b 744 457 614 214 744 318 b 597 654 744 564 697 614 b 807 690 697 654 765 669 z m 393 576 b 461 501 439 576 461 557 b 392 410 461 436 438 410 b 324 496 357 410 324 432 b 393 576 324 553 356 576 z "},"ɣ":{"ha":756,"x_min":0,"x_max":0,"o":"m 783 744 l 465 744 l 382 332 l 299 744 l -29 744 l 239 139 b 135 -121 161 22 135 -42 b 382 -319 135 -240 206 -319 b 629 -121 561 -319 629 -237 b 525 139 629 -35 594 35 z m 418 -107 b 382 -146 418 -131 406 -146 b 346 -108 360 -146 346 -132 b 382 -14 346 -86 360 -51 b 418 -107 403 -53 418 -81 z "},"ğ":{"ha":807,"x_min":0,"x_max":0,"o":"m 406 864 b 672 1156 585 864 661 1008 l 517 1181 b 406 1071 501 1117 467 1071 b 294 1181 343 1071 308 1117 l 138 1156 b 406 864 149 1008 226 864 z m 743 899 b 382 774 650 831 531 768 b 18 490 160 774 18 674 b 160 271 18 394 56 326 b 64 117 106 238 64 178 b 328 -33 64 33 135 -33 l 428 -33 b 490 -76 482 -33 490 -60 b 385 -129 490 -97 485 -129 b 258 -67 278 -129 258 -114 l -17 -67 b 374 -319 -17 -210 56 -319 b 800 -56 651 -319 800 -215 b 488 169 800 78 682 169 l 383 169 b 317 199 317 169 317 190 b 328 217 317 207 319 213 b 404 214 353 213 375 214 b 744 457 614 214 744 318 b 597 654 744 564 697 614 b 807 690 697 654 765 669 z m 393 576 b 461 501 439 576 461 557 b 392 410 461 436 438 410 b 324 496 357 410 324 432 b 393 576 324 553 356 576 z "},"ǧ":{"ha":807,"x_min":0,"x_max":0,"o":"m 597 1167 l 404 1029 l 210 1167 l 108 1050 l 313 828 l 494 828 l 699 1050 z m 743 899 b 382 774 650 831 531 768 b 18 490 160 774 18 674 b 160 271 18 394 56 326 b 64 117 106 238 64 178 b 328 -33 64 33 135 -33 l 428 -33 b 490 -76 482 -33 490 -60 b 385 -129 490 -97 485 -129 b 258 -67 278 -129 258 -114 l -17 -67 b 374 -319 -17 -210 56 -319 b 800 -56 651 -319 800 -215 b 488 169 800 78 682 169 l 383 169 b 317 199 317 169 317 190 b 328 217 317 207 319 213 b 404 214 353 213 375 214 b 744 457 614 214 744 318 b 597 654 744 564 697 614 b 807 690 697 654 765 669 z m 393 576 b 461 501 439 576 461 557 b 392 410 461 436 438 410 b 324 496 357 410 324 432 b 393 576 324 553 356 576 z "},"ĝ":{"ha":807,"x_min":0,"x_max":0,"o":"m 210 843 l 404 981 l 597 843 l 699 960 l 494 1182 l 313 1182 l 108 960 z m 743 899 b 382 774 650 831 531 768 b 18 490 160 774 18 674 b 160 271 18 394 56 326 b 64 117 106 238 64 178 b 328 -33 64 33 135 -33 l 428 -33 b 490 -76 482 -33 490 -60 b 385 -129 490 -97 485 -129 b 258 -67 278 -129 258 -114 l -17 -67 b 374 -319 -17 -210 56 -319 b 800 -56 651 -319 800 -215 b 488 169 800 78 682 169 l 383 169 b 317 199 317 169 317 190 b 328 217 317 207 319 213 b 404 214 353 213 375 214 b 744 457 614 214 744 318 b 597 654 744 564 697 614 b 807 690 697 654 765 669 z m 393 576 b 461 501 439 576 461 557 b 392 410 461 436 438 410 b 324 496 357 410 324 432 b 393 576 324 553 356 576 z "},"ģ":{"ha":807,"x_min":0,"x_max":0,"o":"m 392 793 b 531 931 474 793 531 857 b 474 1043 531 982 507 1018 l 507 1200 l 364 1200 l 292 1056 b 254 931 269 1010 254 978 b 392 793 254 851 310 793 z m 743 899 b 382 774 650 831 531 768 b 18 490 160 774 18 674 b 160 271 18 394 56 326 b 64 117 106 238 64 178 b 328 -33 64 33 135 -33 l 428 -33 b 490 -76 482 -33 490 -60 b 385 -129 490 -97 485 -129 b 258 -67 278 -129 258 -114 l -17 -67 b 374 -319 -17 -210 56 -319 b 800 -56 651 -319 800 -215 b 488 169 800 78 682 169 l 383 169 b 317 199 317 169 317 190 b 328 217 317 207 319 213 b 404 214 353 213 375 214 b 744 457 614 214 744 318 b 597 654 744 564 697 614 b 807 690 697 654 765 669 z m 393 576 b 461 501 439 576 461 557 b 392 410 461 436 438 410 b 324 496 357 410 324 432 b 393 576 324 553 356 576 z "},"ġ":{"ha":807,"x_min":0,"x_max":0,"o":"m 406 1167 b 236 1006 307 1167 236 1097 b 406 844 236 915 307 844 b 574 1006 504 844 574 915 b 406 1167 574 1097 504 1167 z m 743 899 b 382 774 650 831 531 768 b 18 490 160 774 18 674 b 160 271 18 394 56 326 b 64 117 106 238 64 178 b 328 -33 64 33 135 -33 l 428 -33 b 490 -76 482 -33 490 -60 b 385 -129 490 -97 485 -129 b 258 -67 278 -129 258 -114 l -17 -67 b 374 -319 -17 -210 56 -319 b 800 -56 651 -319 800 -215 b 488 169 800 78 682 169 l 383 169 b 317 199 317 169 317 190 b 328 217 317 207 319 213 b 404 214 353 213 375 214 b 744 457 614 214 744 318 b 597 654 744 564 697 614 b 807 690 697 654 765 669 z m 393 576 b 461 501 439 576 461 557 b 392 410 461 436 438 410 b 324 496 357 410 324 432 b 393 576 324 553 356 576 z "},"ɠ":{"ha":836,"x_min":0,"x_max":0,"o":"m 799 1065 b 486 775 583 1065 486 931 l 486 721 b 342 774 438 760 386 774 b 18 392 140 774 18 610 b 301 -3 18 157 104 -3 b 486 72 390 -3 449 33 l 486 -6 b 364 -104 486 -69 447 -104 b 175 -60 283 -104 224 -83 l 86 -243 b 392 -319 147 -281 239 -319 b 794 40 638 -319 794 -218 l 794 778 b 849 847 794 825 808 847 b 935 825 876 847 903 839 l 1013 1014 b 799 1065 961 1043 892 1065 z m 413 217 b 332 388 372 217 332 228 b 425 557 332 515 375 557 b 486 526 450 557 467 546 l 486 271 b 413 217 464 232 436 217 z "},"ƾ":{"ha":711,"x_min":0,"x_max":0,"o":"m 531 601 l 478 615 l 478 714 l 596 714 l 596 872 l 478 872 l 478 1067 l 169 1035 l 169 872 l 81 872 l 81 714 l 169 714 l 169 536 l 225 526 b 386 321 343 497 386 425 b 271 188 386 228 333 188 b 119 256 215 188 172 208 l -26 106 b 326 -31 68 17 183 -31 b 700 322 544 -31 700 97 b 531 601 700 465 654 554 z "},"ʔ":{"ha":713,"x_min":0,"x_max":0,"o":"m 178 0 l 486 0 l 486 419 l 519 435 b 696 718 642 494 696 572 b 321 1065 696 936 539 1065 b -31 929 179 1065 63 1018 l 115 779 b 267 847 167 826 211 847 b 382 714 329 847 382 807 b 214 510 382 613 332 547 l 178 499 z "},"ʖ":{"ha":711,"x_min":0,"x_max":0,"o":"m 169 1035 l 169 536 l 225 526 b 386 321 343 497 386 425 b 271 188 386 228 333 188 b 119 256 215 188 172 208 l -26 106 b 326 -31 68 17 183 -31 b 700 322 544 -31 700 97 b 531 601 700 465 654 554 l 478 615 l 478 1067 z "},"ʕ":{"ha":713,"x_min":0,"x_max":0,"o":"m 535 0 l 535 499 l 499 510 b 331 708 381 547 331 613 b 449 847 331 804 386 847 b 597 779 507 847 550 824 l 743 929 b 399 1065 649 1018 542 1065 b 18 721 183 1065 18 936 b 193 435 18 572 72 494 l 226 419 l 226 0 z "},"ɂ":{"ha":672,"x_min":0,"x_max":0,"o":"m 143 0 l 451 0 l 451 208 l 494 225 b 650 454 607 269 650 335 b 286 774 650 649 503 774 b -18 644 161 774 63 726 l 121 500 b 244 557 163 536 197 557 b 336 451 296 557 336 522 b 189 303 336 371 281 332 l 143 289 z "},"ʡ":{"ha":713,"x_min":0,"x_max":0,"o":"m 519 435 b 696 718 642 494 696 572 b 321 1065 696 936 539 1065 b -31 929 179 1065 63 1018 l 115 779 b 267 847 167 826 211 847 b 382 714 329 847 382 807 b 214 510 382 613 332 547 l 178 499 l 178 317 l 88 317 l 88 158 l 178 158 l 178 0 l 486 0 l 486 158 l 606 158 l 606 317 l 486 317 l 486 419 z "},"ʢ":{"ha":713,"x_min":0,"x_max":0,"o":"m 535 499 l 499 510 b 331 708 381 547 331 613 b 449 847 331 804 386 847 b 597 779 507 847 550 824 l 743 929 b 399 1065 649 1018 542 1065 b 18 721 183 1065 18 936 b 193 435 18 572 72 494 l 226 419 l 226 317 l 107 317 l 107 158 l 226 158 l 226 0 l 535 0 l 535 158 l 625 158 l 625 317 l 535 317 z "},"ɡ":{"ha":836,"x_min":0,"x_max":0,"o":"m 524 744 l 510 699 b 342 774 456 754 393 774 b 18 392 140 774 18 610 b 301 -3 18 157 104 -3 b 486 72 390 -3 449 33 l 486 -6 b 364 -104 486 -69 447 -104 b 175 -60 283 -104 224 -83 l 86 -243 b 392 -319 147 -281 239 -319 b 794 40 638 -319 794 -218 l 794 744 z m 413 217 b 332 388 372 217 332 228 b 425 557 332 515 375 557 b 486 526 450 557 467 546 l 486 271 b 413 217 464 232 436 217 z "},"ǥ":{"ha":807,"x_min":0,"x_max":0,"o":"m 867 -36 l 799 -36 b 488 179 789 94 672 179 l 383 179 b 317 199 317 179 317 190 b 328 217 317 207 319 213 b 404 214 353 213 375 214 b 744 457 614 214 744 318 b 597 654 744 564 697 614 b 807 690 697 654 765 669 l 743 899 b 382 774 650 831 531 768 b 18 490 160 774 18 674 b 160 271 18 394 56 326 b 64 132 106 238 64 193 b 328 -1 64 60 135 -1 l 428 -1 b 532 -36 481 -1 517 -12 l 376 -36 l 376 -108 l 528 -108 b 385 -146 508 -136 465 -146 b 258 -67 278 -146 258 -132 l -17 -67 b 374 -319 -17 -210 56 -319 b 794 -108 619 -319 764 -237 l 867 -108 z m 393 576 b 461 501 439 576 461 557 b 392 410 461 436 438 410 b 324 496 357 410 324 432 b 393 576 324 553 356 576 z "},"ȝ":{"ha":668,"x_min":0,"x_max":0,"o":"m 311 774 b -14 686 179 774 76 744 l 126 535 b 263 572 172 558 213 572 b 314 517 299 572 314 553 b 238 454 314 478 304 454 l 176 454 l 160 272 l 283 272 b 343 225 325 272 343 250 b 49 39 342 153 260 104 l 74 -156 b 657 211 454 -86 657 50 b 447 381 657 314 586 368 b 624 557 560 407 624 464 b 311 774 624 693 493 774 z "},"h":{"ha":790,"x_min":0,"x_max":0,"o":"m 558 774 b 350 686 478 774 415 750 l 350 1067 l 42 1035 l 42 0 l 350 0 l 350 490 b 422 551 378 535 404 551 b 447 494 438 551 447 542 l 447 0 l 756 0 l 756 553 b 558 774 756 694 679 774 z "},"ħ":{"ha":806,"x_min":0,"x_max":0,"o":"m 574 774 b 365 686 493 774 431 750 l 365 814 l 526 814 l 526 974 l 365 974 l 365 1067 l 57 1035 l 57 974 l -7 974 l -7 814 l 57 814 l 57 0 l 365 0 l 365 490 b 438 551 393 535 419 551 b 463 494 453 551 463 542 l 463 0 l 771 0 l 771 553 b 574 774 771 694 694 774 z "},"ȟ":{"ha":790,"x_min":0,"x_max":0,"o":"m 486 1100 l 690 1306 l 589 1424 l 396 1303 l 201 1424 l 100 1306 l 304 1100 z m 558 774 b 350 686 478 774 415 750 l 350 1067 l 42 1035 l 42 0 l 350 0 l 350 490 b 422 551 378 535 404 551 b 447 494 438 551 447 542 l 447 0 l 756 0 l 756 553 b 558 774 756 694 679 774 z "},"ĥ":{"ha":790,"x_min":0,"x_max":0,"o":"m 397 1229 l 590 1107 l 692 1225 l 488 1431 l 306 1431 l 101 1225 l 203 1107 z m 558 774 b 350 686 478 774 415 750 l 350 1067 l 42 1035 l 42 0 l 350 0 l 350 490 b 422 551 378 535 404 551 b 447 494 438 551 447 542 l 447 0 l 756 0 l 756 553 b 558 774 756 694 679 774 z "},"ḥ":{"ha":790,"x_min":0,"x_max":0,"o":"m 558 774 b 350 686 478 774 415 750 l 350 1067 l 42 1035 l 42 0 l 350 0 l 350 490 b 422 551 378 535 404 551 b 447 494 438 551 447 542 l 447 0 l 756 0 l 756 553 b 558 774 756 694 679 774 z m 399 -65 b 231 -226 300 -65 231 -136 b 399 -387 231 -318 300 -387 b 568 -226 497 -387 568 -318 b 399 -65 568 -136 497 -65 z "},"ɧ":{"ha":790,"x_min":0,"x_max":0,"o":"m 558 774 b 350 686 478 774 415 750 l 350 757 b 419 847 350 826 372 847 b 524 822 449 847 486 840 l 603 1011 b 375 1065 553 1039 458 1065 b 42 774 147 1065 42 933 l 42 0 l 350 0 l 350 490 b 422 551 378 535 404 551 b 447 494 438 551 447 542 l 447 -37 b 379 -104 447 -81 422 -104 b 286 -81 342 -104 319 -96 l 189 -256 b 421 -319 242 -293 314 -319 b 756 -10 619 -319 756 -217 l 756 553 b 558 774 756 694 679 774 z "},"ɦ":{"ha":790,"x_min":0,"x_max":0,"o":"m 558 774 b 350 686 478 774 415 750 l 350 757 b 419 847 350 826 372 847 b 524 822 449 847 486 840 l 603 1011 b 375 1065 553 1039 458 1065 b 42 774 147 1065 42 933 l 42 0 l 350 0 l 350 490 b 422 551 378 535 404 551 b 447 494 438 551 447 542 l 447 0 l 756 0 l 756 553 b 558 774 756 694 679 774 z "},"ɥ":{"ha":790,"x_min":0,"x_max":0,"o":"m 440 744 l 440 254 b 368 192 413 210 386 192 b 343 249 353 192 343 203 l 343 744 l 35 744 l 35 192 b 232 -31 35 49 111 -31 b 440 58 313 -31 375 -6 l 440 -289 l 749 -319 l 749 744 z "},"ʮ":{"ha":990,"x_min":0,"x_max":0,"o":"m 640 744 l 640 254 b 568 192 611 210 585 192 b 543 249 553 192 543 203 l 543 465 b 208 775 543 672 407 775 b -24 711 101 775 29 749 l 74 536 b 167 560 107 551 129 560 b 235 493 210 560 235 536 l 235 192 b 432 -31 235 49 310 -31 b 640 60 513 -31 575 -6 l 640 -289 l 949 -319 l 949 744 z "},"ʯ":{"ha":990,"x_min":0,"x_max":0,"o":"m 1110 -81 b 1017 -104 1076 -96 1054 -104 b 949 -37 974 -104 949 -81 l 949 744 l 640 744 l 640 254 b 568 192 611 210 585 192 b 543 249 553 192 543 203 l 543 465 b 208 775 543 672 407 775 b -24 711 101 775 29 749 l 74 536 b 167 560 107 551 129 560 b 235 493 210 560 235 536 l 235 192 b 432 -31 235 49 310 -31 b 640 60 513 -31 575 -6 l 640 -10 b 975 -319 640 -217 776 -319 b 1207 -256 1082 -319 1154 -293 z "},"ƕ":{"ha":1189,"x_min":0,"x_max":0,"o":"m 1124 744 l 822 744 b 860 358 842 622 860 483 b 797 189 860 236 836 189 b 756 269 772 189 756 203 l 756 553 b 558 774 756 694 679 774 b 350 686 478 774 415 750 l 350 1067 l 42 1035 l 42 0 l 350 0 l 350 490 b 422 551 378 535 404 551 b 447 494 438 551 447 542 l 447 274 b 771 -31 447 51 599 -31 b 1168 336 968 -31 1168 71 b 1124 744 1168 499 1143 639 z "},"i":{"ha":392,"x_min":0,"x_max":0,"o":"m 197 1167 b 28 1006 99 1167 28 1097 b 197 844 28 915 99 844 b 365 1006 296 844 365 915 b 197 1167 365 1097 296 1167 z m 350 744 l 42 744 l 42 0 l 350 0 z "},"ı":{"ha":392,"x_min":0,"x_max":0,"o":"m 350 744 l 42 744 l 42 0 l 350 0 z "},"í":{"ha":392,"x_min":0,"x_max":0,"o":"m 286 1206 l -43 997 l 39 843 l 399 985 z m 350 744 l 42 744 l 42 0 l 350 0 z "},"ĭ":{"ha":392,"x_min":0,"x_max":0,"o":"m 197 864 b 464 1156 376 864 453 1008 l 308 1181 b 197 1071 293 1117 258 1071 b 86 1181 135 1071 100 1117 l -71 1156 b 197 864 -60 1008 18 864 z m 350 744 l 42 744 l 42 0 l 350 0 z "},"ǐ":{"ha":392,"x_min":0,"x_max":0,"o":"m 389 1167 l 196 1029 l 1 1167 l -100 1050 l 104 828 l 286 828 l 490 1050 z m 350 744 l 42 744 l 42 0 l 350 0 z "},"î":{"ha":392,"x_min":0,"x_max":0,"o":"m 1 843 l 196 981 l 389 843 l 490 960 l 286 1182 l 104 1182 l -100 960 z m 350 744 l 42 744 l 42 0 l 350 0 z "},"ȉ":{"ha":392,"x_min":0,"x_max":0,"o":"m 24 1232 l -161 1142 l 29 857 l 174 928 z m 300 1232 l 111 1150 l 290 863 l 439 921 z m 350 744 l 42 744 l 42 0 l 350 0 z "},"ï":{"ha":392,"x_min":0,"x_max":0,"o":"m 19 1151 b -124 1013 -58 1151 -124 1090 b 19 872 -124 935 -58 872 b 164 1013 101 872 164 935 b 19 1151 164 1090 101 1151 z m 372 1151 b 228 1013 293 1151 228 1090 b 372 872 228 935 293 872 b 515 1013 453 872 515 935 b 372 1151 515 1090 453 1151 z m 350 744 l 42 744 l 42 0 l 350 0 z "},"ḯ":{"ha":392,"x_min":0,"x_max":0,"o":"m 279 1394 l 78 1124 l 190 1024 l 439 1238 z m 1 1083 b -142 944 -79 1083 -142 1021 b 1 804 -142 865 -79 804 b 146 944 81 804 146 865 b 1 1083 146 1021 81 1083 z m 388 1083 b 243 944 306 1083 243 1021 b 388 804 243 865 306 804 b 531 944 465 804 531 865 b 388 1083 531 1021 465 1083 z m 350 744 l 42 744 l 42 0 l 350 0 z "},"ị":{"ha":392,"x_min":0,"x_max":0,"o":"m 197 1167 b 28 1006 99 1167 28 1097 b 197 844 28 915 99 844 b 365 1006 296 844 365 915 b 197 1167 365 1097 296 1167 z m 350 744 l 42 744 l 42 0 l 350 0 z m 196 -387 b 365 -226 294 -387 365 -318 b 196 -65 365 -136 294 -65 b 28 -226 97 -65 28 -136 b 196 -387 28 -318 97 -387 z "},"ì":{"ha":392,"x_min":0,"x_max":0,"o":"m 101 1206 l -11 985 l 350 843 l 431 997 z m 350 744 l 42 744 l 42 0 l 350 0 z "},"ỉ":{"ha":392,"x_min":0,"x_max":0,"o":"m 113 832 l 276 832 l 276 897 b 397 1036 357 913 397 963 b 203 1192 397 1125 332 1192 b 32 1151 129 1192 75 1178 l 75 1042 b 163 1060 104 1053 126 1060 b 211 1024 192 1060 211 1046 b 113 978 211 993 185 978 z m 350 744 l 42 744 l 42 0 l 350 0 z "},"ȋ":{"ha":392,"x_min":0,"x_max":0,"o":"m 197 1136 b -71 844 18 1136 -60 992 l 86 819 b 197 929 100 883 135 929 b 308 819 258 929 293 883 l 464 844 b 197 1136 453 992 376 1136 z m 350 744 l 42 744 l 42 0 l 350 0 z "},"ĳ":{"ha":783,"x_min":0,"x_max":0,"o":"m 197 1167 b 28 1006 99 1167 28 1097 b 197 844 28 915 99 844 b 365 1006 296 844 365 915 b 197 1167 365 1097 296 1167 z m 589 1167 b 419 1006 490 1167 419 1097 b 589 844 419 915 490 844 b 757 1006 688 844 757 915 b 589 1167 757 1097 688 1167 z m 350 744 l 42 744 l 42 0 l 350 0 z m 742 744 l 433 744 l 433 103 b 275 -96 433 -10 368 -53 l 382 -319 b 742 121 572 -262 742 -153 z "},"ī":{"ha":392,"x_min":0,"x_max":0,"o":"m 429 894 l 429 1100 l -39 1100 l -39 894 z m 350 744 l 42 744 l 42 0 l 350 0 z "},"į":{"ha":392,"x_min":0,"x_max":0,"o":"m 197 844 b 365 1006 296 844 365 915 b 197 1167 365 1097 296 1167 b 28 1006 99 1167 28 1097 b 197 844 28 915 99 844 z m 42 18 b -78 -176 -31 -28 -78 -89 b 156 -360 -78 -294 26 -360 b 261 -349 193 -360 231 -356 l 279 -175 b 194 -186 250 -182 221 -186 b 125 -126 153 -186 125 -168 b 282 0 125 -96 151 -40 l 350 0 l 350 744 l 42 744 z "},"ɩ":{"ha":419,"x_min":0,"x_max":0,"o":"m 286 -31 b 451 -6 354 -31 413 -19 l 399 213 b 374 210 388 211 383 210 b 343 243 354 210 343 221 l 343 744 l 35 744 l 35 229 b 286 -31 35 64 124 -31 z "},"ɨ":{"ha":481,"x_min":0,"x_max":0,"o":"m 242 844 b 410 1006 340 844 410 915 b 242 1167 410 1097 340 1167 b 72 1006 143 1167 72 1097 b 242 844 72 915 143 844 z m 485 494 l 394 494 l 394 744 l 86 744 l 86 494 l -6 494 l -6 288 l 86 288 l 86 0 l 394 0 l 394 288 l 485 288 z "},"ĩ":{"ha":392,"x_min":0,"x_max":0,"o":"m 276 853 b 485 1058 378 853 449 951 l 344 1125 b 272 1067 322 1088 307 1067 b 111 1125 232 1067 203 1125 b -94 921 15 1125 -57 1029 l 46 853 b 119 911 68 890 85 911 b 276 853 161 911 189 853 z m 350 744 l 42 744 l 42 0 l 350 0 z "},"j":{"ha":392,"x_min":0,"x_max":0,"o":"m 197 1167 b 28 1006 99 1167 28 1097 b 197 844 28 915 99 844 b 365 1006 296 844 365 915 b 197 1167 365 1097 296 1167 z m 350 744 l 42 744 l 42 103 b -117 -96 42 -10 -24 -53 l -10 -319 b 350 121 181 -262 350 -153 z "},"ȷ":{"ha":392,"x_min":0,"x_max":0,"o":"m 350 744 l 42 744 l 42 103 b -117 -96 42 -10 -24 -53 l -10 -319 b 350 121 181 -262 350 -153 z "},"ǰ":{"ha":392,"x_min":0,"x_max":0,"o":"m 389 1167 l 196 1029 l 1 1167 l -100 1050 l 104 828 l 286 828 l 490 1050 z m 350 744 l 42 744 l 42 103 b -117 -96 42 -10 -24 -53 l -10 -319 b 350 121 181 -262 350 -153 z "},"ĵ":{"ha":392,"x_min":0,"x_max":0,"o":"m 1 843 l 196 981 l 389 843 l 490 960 l 286 1182 l 104 1182 l -100 960 z m 350 744 l 42 744 l 42 103 b -117 -96 42 -10 -24 -53 l -10 -319 b 350 121 181 -262 350 -153 z "},"ʝ":{"ha":518,"x_min":0,"x_max":0,"o":"m 322 844 b 490 1006 421 844 490 915 b 322 1167 490 1097 421 1167 b 153 1006 224 1167 153 1097 b 322 844 153 915 224 844 z m 599 -54 b 471 3 560 -32 521 -14 b 475 100 474 32 475 65 l 475 744 l 167 744 l 167 50 l 131 50 b -100 -142 -8 50 -100 -17 b 131 -319 -100 -254 -21 -319 b 444 -128 299 -319 397 -258 b 550 -168 479 -139 526 -157 z m 104 -179 b 58 -133 75 -179 58 -162 b 128 -79 58 -97 81 -79 b 165 -81 140 -79 154 -79 b 104 -179 161 -156 140 -179 z "},"ɟ":{"ha":485,"x_min":0,"x_max":0,"o":"m 489 471 l 401 471 l 401 744 l 93 744 l 93 471 l -1 471 l -1 263 l 93 263 l 93 103 b -65 -96 93 -10 28 -53 l 42 -319 b 401 121 232 -262 401 -153 l 401 263 l 489 263 z "},"ʄ":{"ha":485,"x_min":0,"x_max":0,"o":"m 401 208 l 401 778 b 456 847 401 825 415 847 b 542 825 483 847 510 839 l 619 1014 b 406 1065 568 1043 499 1065 b 93 775 190 1065 93 931 l 93 208 l -8 208 l -8 0 l 85 0 b -61 -118 64 -54 11 -90 l 42 -319 b 389 0 201 -272 346 -187 l 482 0 l 482 208 z "},"ɉ":{"ha":485,"x_min":0,"x_max":0,"o":"m 249 844 b 417 1006 347 844 417 915 b 249 1167 417 1097 347 1167 b 79 1006 150 1167 79 1097 b 249 844 79 915 150 844 z m 489 471 l 401 471 l 401 744 l 93 744 l 93 471 l -1 471 l -1 263 l 93 263 l 93 103 b -65 -96 93 -10 28 -53 l 42 -319 b 401 121 232 -262 401 -153 l 401 263 l 489 263 z "},"k":{"ha":819,"x_min":0,"x_max":0,"o":"m 350 1065 l 42 1035 l 42 0 l 350 0 z m 839 744 l 538 744 l 356 407 l 507 0 l 846 0 l 660 418 z "},"ǩ":{"ha":819,"x_min":0,"x_max":0,"o":"m 628 1424 l 435 1303 l 240 1424 l 139 1306 l 343 1100 l 525 1100 l 729 1306 z m 350 1065 l 42 1035 l 42 0 l 350 0 z m 839 744 l 538 744 l 356 407 l 507 0 l 846 0 l 660 418 z "},"ķ":{"ha":819,"x_min":0,"x_max":0,"o":"m 350 1065 l 42 1035 l 42 0 l 350 0 z m 839 744 l 538 744 l 356 407 l 507 0 l 846 0 l 660 418 z m 410 -82 b 271 -219 328 -82 271 -146 b 328 -332 271 -271 294 -307 l 294 -489 l 438 -489 l 510 -344 b 547 -219 532 -299 547 -267 b 410 -82 547 -140 492 -82 z "},"ĸ":{"ha":821,"x_min":0,"x_max":0,"o":"m 350 744 l 42 744 l 42 0 l 350 0 z m 840 744 l 539 744 l 356 393 l 508 0 l 847 0 l 661 404 z "},"ƙ":{"ha":819,"x_min":0,"x_max":0,"o":"m 419 847 b 524 822 449 847 486 840 l 603 1011 b 375 1065 553 1039 458 1065 b 42 774 147 1065 42 933 l 42 0 l 350 0 l 350 757 b 419 847 350 826 372 847 z m 660 418 l 839 744 l 538 744 l 356 407 l 507 0 l 846 0 z "},"ʞ":{"ha":819,"x_min":0,"x_max":0,"o":"m -19 0 l 282 0 l 465 338 l 313 744 l -25 744 l 160 325 z m 469 -289 l 778 -319 l 778 744 l 469 744 z "},"l":{"ha":419,"x_min":0,"x_max":0,"o":"m 286 -31 b 451 -6 354 -31 413 -19 l 399 215 b 374 210 393 213 385 210 b 343 243 354 210 343 221 l 343 1065 l 35 1035 l 35 229 b 286 -31 35 64 124 -31 z "},"ĺ":{"ha":419,"x_min":0,"x_max":0,"o":"m 304 1456 l -32 1257 l 46 1104 l 410 1233 z m 286 -31 b 451 -6 354 -31 413 -19 l 399 215 b 374 210 393 213 385 210 b 343 243 354 210 343 221 l 343 1065 l 35 1035 l 35 229 b 286 -31 35 64 124 -31 z "},"ƛ":{"ha":788,"x_min":0,"x_max":0,"o":"m 624 613 b 519 874 597 728 563 811 l 597 922 l 494 1063 l 389 990 b 111 1061 313 1031 221 1049 l 78 878 b 200 858 128 874 167 868 l 193 854 l 108 799 l 260 699 l 329 742 b 353 668 338 721 344 697 l 204 668 l -7 38 l 301 -31 l 381 460 b 515 -31 408 263 436 124 l 817 61 b 624 613 719 208 682 369 z "},"ƚ":{"ha":497,"x_min":0,"x_max":0,"o":"m 451 215 b 426 210 446 213 438 210 b 396 243 407 210 396 221 l 396 413 l 485 413 l 485 619 l 396 619 l 396 1065 l 88 1035 l 88 619 l -6 619 l -6 413 l 88 413 l 88 229 b 339 -31 88 64 176 -31 b 504 -6 407 -31 465 -19 z "},"ɬ":{"ha":678,"x_min":0,"x_max":0,"o":"m 576 210 b 546 243 557 210 546 221 l 546 322 b 656 342 590 325 629 335 l 638 489 b 546 475 604 482 581 478 l 546 1065 l 238 1035 l 238 685 b 179 692 221 689 200 692 b -18 513 61 692 -18 631 b 238 317 -18 399 57 321 l 238 229 b 489 -31 238 64 326 -31 b 654 -6 557 -31 615 -19 l 601 215 b 576 210 596 213 588 210 z m 168 515 b 203 549 168 533 181 549 b 238 544 213 549 224 547 l 238 468 b 168 515 194 468 168 482 z "},"ľ":{"ha":615,"x_min":0,"x_max":0,"o":"m 286 -31 b 451 -6 354 -31 413 -19 l 399 215 b 374 210 393 213 385 210 b 343 243 354 210 343 221 l 343 1065 l 35 1035 l 35 229 b 286 -31 35 64 124 -31 z m 554 692 l 388 717 l 424 1065 l 638 1032 z "},"ḽ":{"ha":419,"x_min":0,"x_max":0,"o":"m 286 -31 b 451 -6 354 -31 413 -19 l 399 215 b 374 210 393 213 385 210 b 343 243 354 210 343 221 l 343 1065 l 35 1035 l 35 229 b 286 -31 35 64 124 -31 z m 67 -419 l 261 -282 l 454 -419 l 556 -303 l 351 -81 l 169 -81 l -35 -303 z "},"ļ":{"ha":419,"x_min":0,"x_max":0,"o":"m 286 -31 b 451 -6 354 -31 413 -19 l 399 215 b 374 210 393 213 385 210 b 343 243 354 210 343 221 l 343 1065 l 35 1035 l 35 229 b 286 -31 35 64 124 -31 z m 261 -82 b 122 -219 179 -82 122 -146 b 179 -332 122 -271 146 -307 l 146 -489 l 289 -489 l 361 -344 b 399 -219 383 -299 399 -267 b 261 -82 399 -140 343 -82 z "},"ȴ":{"ha":713,"x_min":0,"x_max":0,"o":"m 522 369 b 349 258 440 369 390 340 b 343 331 344 279 343 303 l 343 1065 l 35 1035 l 35 328 b 224 4 35 149 114 51 l 182 -79 l 315 -129 l 361 -28 b 413 -31 378 -31 396 -31 b 706 196 571 -31 706 32 b 522 369 706 307 621 369 z m 475 175 b 447 176 465 175 456 175 b 489 226 463 215 472 226 b 513 203 503 226 513 217 b 475 175 513 183 493 175 z "},"ŀ":{"ha":761,"x_min":0,"x_max":0,"o":"m 286 -31 b 451 -6 354 -31 413 -19 l 399 215 b 374 210 393 213 385 210 b 343 243 354 210 343 221 l 343 1065 l 35 1035 l 35 229 b 286 -31 35 64 124 -31 z m 574 682 b 404 521 475 682 404 613 b 574 360 404 431 475 360 b 742 521 672 360 742 431 b 574 682 742 613 672 682 z "},"ḷ":{"ha":419,"x_min":0,"x_max":0,"o":"m 286 -31 b 451 -6 354 -31 413 -19 l 399 215 b 374 210 393 213 385 210 b 343 243 354 210 343 221 l 343 1065 l 35 1035 l 35 229 b 286 -31 35 64 124 -31 z m 261 -387 b 431 -226 360 -387 431 -318 b 261 -65 431 -136 360 -65 b 93 -226 163 -65 93 -136 b 261 -387 93 -318 163 -387 z "},"ɮ":{"ha":1046,"x_min":0,"x_max":0,"o":"m 767 301 l 983 542 l 983 744 l 343 744 l 343 1065 l 35 1035 l 35 229 b 286 -31 35 64 124 -31 b 451 -6 354 -31 413 -19 l 399 215 b 374 210 393 213 385 210 b 343 243 354 210 343 221 l 343 522 l 636 522 l 444 303 l 444 142 l 592 142 b 725 40 669 142 725 118 b 604 -92 725 -54 667 -92 b 465 -43 553 -92 513 -76 l 332 -226 b 626 -319 403 -283 501 -319 b 1039 18 893 -319 1039 -168 b 767 301 1039 192 935 278 z "},"ɭ":{"ha":392,"x_min":0,"x_max":0,"o":"m 511 -81 b 418 -104 478 -96 456 -104 b 350 -37 375 -104 350 -81 l 350 1065 l 42 1035 l 42 -10 b 376 -319 42 -217 178 -319 b 608 -256 483 -319 556 -293 z "},"ǉ":{"ha":811,"x_min":0,"x_max":0,"o":"m 617 844 b 785 1006 715 844 785 915 b 617 1167 785 1097 715 1167 b 447 1006 518 1167 447 1097 b 617 844 447 915 518 844 z m 461 103 b 446 19 461 69 456 43 l 399 215 b 374 210 393 213 385 210 b 343 243 354 210 343 221 l 343 1065 l 35 1035 l 35 229 b 286 -31 35 64 124 -31 b 425 -14 340 -31 388 -24 b 303 -96 396 -49 354 -72 l 410 -319 b 769 121 600 -262 769 -153 l 769 744 l 461 744 z "},"ɫ":{"ha":729,"x_min":0,"x_max":0,"o":"m 742 571 l 590 643 b 515 578 565 614 553 586 l 515 1065 l 207 1035 l 207 657 b -12 443 99 639 38 544 l 140 367 b 207 432 163 396 175 422 l 207 229 b 458 -31 207 64 296 -31 b 624 -6 526 -31 585 -19 l 571 215 b 546 210 565 213 557 210 b 515 243 526 210 515 221 l 515 353 b 742 571 628 368 692 465 z "},"ʪ":{"ha":996,"x_min":0,"x_max":0,"o":"m 514 -31 b 990 244 828 -31 990 68 b 797 474 990 364 928 431 b 664 542 681 513 664 525 b 714 564 664 554 671 564 b 863 525 757 564 818 550 l 957 682 b 693 774 892 742 796 774 b 390 519 493 774 390 663 b 582 288 390 383 463 326 b 708 221 696 250 708 244 b 514 178 708 189 650 178 b 343 307 394 178 343 210 l 343 1065 l 35 1035 l 35 321 b 514 -31 35 121 110 -31 z "},"ł":{"ha":560,"x_min":0,"x_max":0,"o":"m 443 210 b 413 243 424 210 413 221 l 413 518 l 569 614 l 472 768 l 413 732 l 413 1065 l 104 1035 l 104 546 l -37 457 l 60 301 l 104 329 l 104 229 b 356 -31 104 64 193 -31 b 521 -6 424 -31 482 -19 l 468 215 b 443 210 463 213 454 210 z "},"ʫ":{"ha":1063,"x_min":0,"x_max":0,"o":"m 760 225 l 1044 532 l 1044 744 l 424 744 l 424 524 l 689 524 l 399 215 b 374 210 393 213 385 210 b 343 243 354 210 343 221 l 343 1065 l 35 1035 l 35 229 b 286 -31 35 64 124 -31 b 456 0 354 -31 413 -19 l 1031 0 l 1056 225 z "},"m":{"ha":1156,"x_min":0,"x_max":0,"o":"m 935 774 b 713 672 844 774 776 747 b 549 774 681 739 622 774 b 332 675 463 774 396 747 l 311 744 l 42 744 l 42 0 l 350 0 l 350 490 b 404 551 367 535 390 551 b 428 494 418 551 428 542 l 428 0 l 736 0 l 736 490 b 790 551 751 535 776 551 b 813 494 803 551 813 542 l 813 0 l 1121 0 l 1121 553 b 935 774 1121 694 1044 774 z "},"ḿ":{"ha":1156,"x_min":0,"x_max":0,"o":"m 782 985 l 669 1206 l 340 997 l 422 843 z m 935 774 b 713 672 844 774 776 747 b 549 774 681 739 622 774 b 332 675 463 774 396 747 l 311 744 l 42 744 l 42 0 l 350 0 l 350 490 b 404 551 367 535 390 551 b 428 494 418 551 428 542 l 428 0 l 736 0 l 736 490 b 790 551 751 535 776 551 b 813 494 803 551 813 542 l 813 0 l 1121 0 l 1121 553 b 935 774 1121 694 1044 774 z "},"ṁ":{"ha":1156,"x_min":0,"x_max":0,"o":"m 581 844 b 749 1006 679 844 749 915 b 581 1167 749 1097 679 1167 b 411 1006 482 1167 411 1097 b 581 844 411 915 482 844 z m 935 774 b 713 672 844 774 776 747 b 549 774 681 739 622 774 b 332 675 463 774 396 747 l 311 744 l 42 744 l 42 0 l 350 0 l 350 490 b 404 551 367 535 390 551 b 428 494 418 551 428 542 l 428 0 l 736 0 l 736 490 b 790 551 751 535 776 551 b 813 494 803 551 813 542 l 813 0 l 1121 0 l 1121 553 b 935 774 1121 694 1044 774 z "},"ɱ":{"ha":1156,"x_min":0,"x_max":0,"o":"m 935 774 b 713 672 844 774 776 747 b 549 774 681 739 622 774 b 332 675 463 774 396 747 l 311 744 l 42 744 l 42 0 l 350 0 l 350 490 b 404 551 367 535 390 551 b 428 494 418 551 428 542 l 428 0 l 736 0 l 736 490 b 790 551 751 535 776 551 b 813 494 803 551 813 542 l 813 -37 b 744 -104 813 -81 789 -104 b 653 -78 707 -104 686 -93 l 554 -256 b 783 -319 608 -293 679 -319 b 1121 -10 985 -319 1121 -217 l 1121 553 b 935 774 1121 694 1044 774 z "},"ɰ":{"ha":1156,"x_min":0,"x_max":0,"o":"m 806 744 l 806 254 b 751 193 789 210 765 193 b 728 250 738 193 728 203 l 728 744 l 419 744 l 419 254 b 365 193 404 210 379 193 b 343 250 353 193 343 203 l 343 744 l 35 744 l 35 192 b 221 -29 35 50 111 -29 b 443 72 311 -29 379 -3 b 607 -29 475 6 533 -29 b 806 50 685 -29 747 -7 l 806 -289 l 1114 -319 l 1114 744 z "},"ɯ":{"ha":1156,"x_min":0,"x_max":0,"o":"m 806 744 l 806 254 b 751 193 789 210 765 193 b 728 250 738 193 728 203 l 728 744 l 419 744 l 419 254 b 365 193 404 210 379 193 b 343 250 353 193 343 203 l 343 744 l 35 744 l 35 192 b 221 -29 35 50 111 -29 b 443 72 311 -29 379 -3 b 607 -29 475 6 533 -29 b 824 69 693 -29 760 -3 l 844 0 l 1114 0 l 1114 744 z "},"n":{"ha":790,"x_min":0,"x_max":0,"o":"m 558 774 b 332 674 469 774 406 746 l 311 744 l 42 744 l 42 0 l 350 0 l 350 490 b 422 551 378 535 404 551 b 447 494 436 551 447 542 l 447 0 l 756 0 l 756 553 b 558 774 756 694 679 774 z "},"ń":{"ha":790,"x_min":0,"x_max":0,"o":"m 604 985 l 492 1206 l 163 997 l 244 843 z m 558 774 b 332 674 469 774 406 746 l 311 744 l 42 744 l 42 0 l 350 0 l 350 490 b 422 551 378 535 404 551 b 447 494 436 551 447 542 l 447 0 l 756 0 l 756 553 b 558 774 756 694 679 774 z "},"ŉ":{"ha":983,"x_min":0,"x_max":0,"o":"m 142 1064 b 28 954 76 1064 28 1013 b 75 863 28 911 49 882 l 49 743 l 167 743 l 224 853 b 254 954 243 888 254 915 b 142 1064 254 1018 206 1064 z m 753 774 b 526 674 664 774 600 746 l 506 744 l 236 744 l 236 0 l 544 0 l 544 490 b 617 551 572 535 599 551 b 642 494 631 551 642 542 l 642 0 l 950 0 l 950 553 b 753 774 950 694 874 774 z "},"ň":{"ha":790,"x_min":0,"x_max":0,"o":"m 492 828 l 696 1050 l 594 1167 l 401 1029 l 207 1167 l 106 1050 l 310 828 z m 558 774 b 332 674 469 774 406 746 l 311 744 l 42 744 l 42 0 l 350 0 l 350 490 b 422 551 378 535 404 551 b 447 494 436 551 447 542 l 447 0 l 756 0 l 756 553 b 558 774 756 694 679 774 z "},"ṋ":{"ha":790,"x_min":0,"x_max":0,"o":"m 558 774 b 332 674 469 774 406 746 l 311 744 l 42 744 l 42 0 l 350 0 l 350 490 b 422 551 378 535 404 551 b 447 494 436 551 447 542 l 447 0 l 756 0 l 756 553 b 558 774 756 694 679 774 z m 303 -81 l 99 -303 l 200 -419 l 394 -282 l 588 -419 l 689 -303 l 485 -81 z "},"ņ":{"ha":790,"x_min":0,"x_max":0,"o":"m 558 774 b 332 674 469 774 406 746 l 311 744 l 42 744 l 42 0 l 350 0 l 350 490 b 422 551 378 535 404 551 b 447 494 436 551 447 542 l 447 0 l 756 0 l 756 553 b 558 774 756 694 679 774 z m 394 -82 b 256 -219 313 -82 256 -146 b 313 -332 256 -271 279 -307 l 279 -489 l 422 -489 l 494 -344 b 532 -219 517 -299 532 -267 b 394 -82 532 -140 476 -82 z "},"ȵ":{"ha":1124,"x_min":0,"x_max":0,"o":"m 935 369 b 760 261 853 369 803 340 b 756 331 757 281 756 303 l 756 553 b 558 774 756 694 679 774 b 332 674 469 774 406 746 l 311 744 l 42 744 l 42 0 l 350 0 l 350 490 b 422 551 378 535 404 551 b 447 494 436 551 447 542 l 447 328 b 635 4 447 150 526 51 l 594 -79 l 728 -129 l 774 -29 b 824 -31 790 -31 807 -31 b 1118 196 983 -31 1118 32 b 935 369 1118 307 1033 369 z m 888 175 b 858 176 878 175 868 175 b 901 226 875 215 885 226 b 925 203 915 226 925 217 b 888 175 925 183 906 175 z "},"ṅ":{"ha":790,"x_min":0,"x_max":0,"o":"m 403 844 b 571 1006 501 844 571 915 b 403 1167 571 1097 501 1167 b 233 1006 304 1167 233 1097 b 403 844 233 915 304 844 z m 558 774 b 332 674 469 774 406 746 l 311 744 l 42 744 l 42 0 l 350 0 l 350 490 b 422 551 378 535 404 551 b 447 494 436 551 447 542 l 447 0 l 756 0 l 756 553 b 558 774 756 694 679 774 z "},"ṇ":{"ha":790,"x_min":0,"x_max":0,"o":"m 558 774 b 332 674 469 774 406 746 l 311 744 l 42 744 l 42 0 l 350 0 l 350 490 b 422 551 378 535 404 551 b 447 494 436 551 447 542 l 447 0 l 756 0 l 756 553 b 558 774 756 694 679 774 z m 394 -65 b 226 -226 296 -65 226 -136 b 394 -387 226 -318 296 -387 b 564 -226 493 -387 564 -318 b 394 -65 564 -136 493 -65 z "},"ǹ":{"ha":790,"x_min":0,"x_max":0,"o":"m 636 997 l 307 1206 l 194 985 l 556 843 z m 558 774 b 332 674 469 774 406 746 l 311 744 l 42 744 l 42 0 l 350 0 l 350 490 b 422 551 378 535 404 551 b 447 494 436 551 447 542 l 447 0 l 756 0 l 756 553 b 558 774 756 694 679 774 z "},"ŋ":{"ha":790,"x_min":0,"x_max":0,"o":"m 558 774 b 332 674 469 774 406 746 l 311 744 l 42 744 l 42 0 l 350 0 l 350 490 b 422 551 378 535 404 551 b 447 494 436 551 447 542 l 447 -37 b 379 -104 447 -81 422 -104 b 286 -81 342 -104 319 -96 l 189 -256 b 421 -319 242 -293 314 -319 b 756 -10 619 -319 756 -217 l 756 553 b 558 774 756 694 679 774 z "},"ɲ":{"ha":790,"x_min":0,"x_max":0,"o":"m 558 774 b 332 674 469 774 406 746 l 311 744 l 42 744 l 42 -37 b -26 -104 42 -81 17 -104 b -119 -81 -64 -104 -86 -96 l -217 -256 b 15 -319 -164 -293 -92 -319 b 350 -10 214 -319 350 -217 l 350 490 b 422 551 378 535 404 551 b 447 494 436 551 447 542 l 447 0 l 756 0 l 756 553 b 558 774 756 694 679 774 z "},"ɳ":{"ha":790,"x_min":0,"x_max":0,"o":"m 917 -81 b 824 -104 883 -96 861 -104 b 756 -37 781 -104 756 -81 l 756 553 b 558 774 756 694 679 774 b 332 674 469 774 406 746 l 311 744 l 42 744 l 42 0 l 350 0 l 350 490 b 422 551 378 535 404 551 b 447 494 436 551 447 542 l 447 -10 b 782 -319 447 -217 583 -319 b 1014 -256 889 -319 961 -293 z "},"ǌ":{"ha":1182,"x_min":0,"x_max":0,"o":"m 988 844 b 1156 1006 1086 844 1156 915 b 988 1167 1156 1097 1086 1167 b 818 1006 889 1167 818 1097 b 988 844 818 915 889 844 z m 756 0 l 756 553 b 558 774 756 694 679 774 b 332 674 469 774 406 746 l 311 744 l 42 744 l 42 0 l 350 0 l 350 490 b 422 551 378 535 404 551 b 447 494 436 551 447 542 l 447 0 z m 832 103 b 674 -96 832 -10 767 -53 l 781 -319 b 1140 121 971 -262 1140 -153 l 1140 744 l 832 744 z "},"ƞ":{"ha":790,"x_min":0,"x_max":0,"o":"m 558 774 b 332 674 469 774 406 746 l 311 744 l 42 744 l 42 0 l 350 0 l 350 490 b 422 551 378 535 404 551 b 447 494 436 551 447 542 l 447 -289 l 756 -319 l 756 553 b 558 774 756 694 679 774 z "},"ñ":{"ha":790,"x_min":0,"x_max":0,"o":"m 325 911 b 482 853 367 911 394 853 b 690 1058 583 853 654 951 l 550 1125 b 478 1067 528 1088 513 1067 b 317 1125 438 1067 408 1125 b 111 921 221 1125 149 1029 l 251 853 b 325 911 274 890 290 911 z m 558 774 b 332 674 469 774 406 746 l 311 744 l 42 744 l 42 0 l 350 0 l 350 490 b 422 551 378 535 404 551 b 447 494 436 551 447 542 l 447 0 l 756 0 l 756 553 b 558 774 756 694 679 774 z "},"o":{"ha":811,"x_min":0,"x_max":0,"o":"m 406 774 b 11 374 163 774 11 619 b 406 -31 11 110 167 -31 b 800 369 649 -31 800 125 b 406 774 800 635 644 774 z m 406 556 b 486 369 463 556 486 507 b 406 189 486 242 463 189 b 325 374 349 189 325 236 b 406 556 325 503 347 556 z "},"ó":{"ha":811,"x_min":0,"x_max":0,"o":"m 496 1206 l 167 997 l 249 843 l 608 985 z m 406 774 b 11 374 163 774 11 619 b 406 -31 11 110 167 -31 b 800 369 649 -31 800 125 b 406 774 800 635 644 774 z m 406 556 b 486 369 463 556 486 507 b 406 189 486 242 463 189 b 325 374 349 189 325 236 b 406 556 325 503 347 556 z "},"ɵ":{"ha":811,"x_min":0,"x_max":0,"o":"m 406 774 b 11 374 163 774 11 619 b 406 -31 11 110 167 -31 b 800 369 649 -31 800 125 b 406 774 800 635 644 774 z m 406 560 b 492 451 458 560 483 531 l 321 451 b 406 560 329 528 353 560 z m 406 183 b 319 303 350 183 326 217 l 492 303 b 406 183 485 219 461 183 z "},"ŏ":{"ha":811,"x_min":0,"x_max":0,"o":"m 407 864 b 674 1156 586 864 663 1008 l 518 1181 b 407 1071 503 1117 468 1071 b 296 1181 344 1071 310 1117 l 139 1156 b 407 864 150 1008 228 864 z m 406 774 b 11 374 163 774 11 619 b 406 -31 11 110 167 -31 b 800 369 649 -31 800 125 b 406 774 800 635 644 774 z m 406 556 b 486 369 463 556 486 507 b 406 189 486 242 463 189 b 325 374 349 189 325 236 b 406 556 325 503 347 556 z "},"ǒ":{"ha":811,"x_min":0,"x_max":0,"o":"m 599 1167 l 406 1029 l 211 1167 l 110 1050 l 314 828 l 496 828 l 700 1050 z m 406 774 b 11 374 163 774 11 619 b 406 -31 11 110 167 -31 b 800 369 649 -31 800 125 b 406 774 800 635 644 774 z m 406 556 b 486 369 463 556 486 507 b 406 189 486 242 463 189 b 325 374 349 189 325 236 b 406 556 325 503 347 556 z "}}}
